<!-- Generated by IcoMoon.io -->
<svg version="1.1" xmlns="http://www.w3.org/2000/svg" width="32" height="32" viewBox="0 0 32 32">
<title>bombon</title>
<path d="M27.14 2.401c-0.001-0.001-0.001-0.001-0.001-0.001-1.732-1.569-3.658-2.399-5.574-2.399s-3.841 0.83-5.574 2.399l-0.001 0.001c0 0-0.001 0-0.001 0.001-2.342 2.137-4.114 5.521-4.667 8.794-0.297-0.040-0.594-0.065-0.888-0.065-4.825 0-8.743 5.129-9.996 9.973-0.005 0.018-0.010 0.036-0.014 0.054l-0.001 0.001c-0.282 1.099-0.424 2.173-0.424 3.19 0 5.078 3.511 7.652 10.435 7.652s10.435-2.575 10.435-7.652c0-1.018-0.143-2.093-0.424-3.188-0.001-0.008-0.003-0.015-0.006-0.022-0.026-0.102-0.054-0.196-0.081-0.294 0.381 0.017 0.781 0.026 1.207 0.026 6.924 0 10.435-2.575 10.435-7.652 0-3.757-1.999-8.205-4.86-10.817zM25.8 3.082c-0.019 0.033-0.034 0.070-0.054 0.103-0.050 0.084-0.105 0.163-0.16 0.243-0.073 0.108-0.148 0.214-0.23 0.314-0.061 0.076-0.126 0.149-0.191 0.221-0.086 0.095-0.175 0.186-0.268 0.273-0.071 0.067-0.143 0.131-0.218 0.193-0.098 0.081-0.2 0.158-0.304 0.232-0.079 0.056-0.157 0.111-0.238 0.161-0.11 0.068-0.224 0.129-0.339 0.189-0.083 0.043-0.166 0.088-0.252 0.126-0.123 0.055-0.25 0.1-0.378 0.145-0.084 0.029-0.166 0.063-0.253 0.088-0.144 0.042-0.293 0.070-0.441 0.099-0.074 0.014-0.147 0.035-0.223 0.045-0.225 0.031-0.454 0.049-0.687 0.049s-0.462-0.019-0.688-0.051c-0.075-0.010-0.148-0.031-0.223-0.045-0.149-0.029-0.297-0.057-0.441-0.099-0.086-0.025-0.168-0.058-0.252-0.087-0.128-0.045-0.255-0.090-0.379-0.145-0.086-0.038-0.168-0.083-0.252-0.126-0.115-0.060-0.229-0.12-0.339-0.189-0.081-0.051-0.16-0.106-0.238-0.161-0.104-0.074-0.206-0.15-0.304-0.232-0.074-0.062-0.147-0.127-0.218-0.193-0.093-0.087-0.182-0.179-0.268-0.273-0.065-0.072-0.129-0.145-0.191-0.221-0.081-0.101-0.157-0.207-0.23-0.315-0.054-0.080-0.11-0.16-0.159-0.243-0.019-0.033-0.035-0.069-0.054-0.103 2.716-2.215 5.752-2.215 8.468 0.001zM11.713 12.678c0.006 0.001 0.011 0.003 0.016 0.003 0.001 0.001 0.003 0.001 0.005 0.001 0.205 0.049 0.406 0.109 0.605 0.179 0.047 0.017 0.092 0.039 0.138 0.056 0.151 0.057 0.302 0.115 0.449 0.184 0.102 0.047 0.201 0.104 0.302 0.157 0.089 0.047 0.18 0.089 0.268 0.139 0.119 0.069 0.234 0.146 0.35 0.221 0.067 0.043 0.135 0.082 0.2 0.127 0.139 0.096 0.274 0.2 0.409 0.305 0.040 0.031 0.081 0.058 0.12 0.090 0.168 0.136 0.333 0.278 0.495 0.427 0.004 0.004 0.008 0.007 0.013 0.011 1.607 1.482 2.855 3.56 3.574 5.528 0.024 0.065 0.050 0.13 0.073 0.195 0.001 0.004 0.003 0.008 0.004 0.012 0.001 0.003 0.003 0.006 0.003 0.009 0.002 0.005 0.003 0.010 0.006 0.015 0.001 0.003 0.002 0.006 0.003 0.009 0.109 0.302 0.207 0.611 0.295 0.941-1.024 2.526-3.842 3.755-8.607 3.755-4.764 0-7.582-1.229-8.606-3.754 1.309-4.811 5.433-9.69 9.884-8.611zM10.435 30.609c-6.086 0-9.043-2.048-9.043-6.261 0-0.323 0.016-0.654 0.049-0.991 1.639 2.044 4.653 3.078 8.994 3.078s7.355-1.034 8.994-3.078c0.033 0.337 0.049 0.667 0.049 0.991 0 4.213-2.958 6.261-9.043 6.261zM21.565 19.478c-0.611 0-1.163-0.019-1.675-0.056-0.026-0.070-0.056-0.138-0.084-0.208-0.045-0.113-0.089-0.224-0.136-0.335-0.060-0.143-0.122-0.285-0.185-0.426-0.048-0.107-0.096-0.214-0.146-0.319-0.067-0.142-0.137-0.28-0.208-0.419-0.051-0.099-0.101-0.2-0.154-0.298-0.077-0.143-0.157-0.282-0.237-0.422-0.051-0.089-0.1-0.179-0.153-0.266-0.095-0.159-0.195-0.313-0.294-0.467-0.041-0.063-0.080-0.129-0.122-0.191-0.142-0.211-0.287-0.418-0.437-0.618-0.047-0.064-0.098-0.124-0.146-0.186-0.104-0.136-0.209-0.271-0.317-0.401-0.067-0.081-0.137-0.158-0.205-0.237-0.093-0.106-0.184-0.213-0.279-0.315-0.076-0.082-0.153-0.16-0.23-0.239-0.090-0.093-0.181-0.186-0.273-0.275-0.082-0.079-0.165-0.155-0.248-0.231-0.090-0.083-0.181-0.164-0.273-0.243-0.086-0.074-0.173-0.145-0.26-0.216-0.092-0.074-0.184-0.147-0.278-0.217-0.089-0.067-0.178-0.134-0.268-0.197-0.095-0.067-0.19-0.131-0.285-0.193-0.090-0.060-0.181-0.119-0.272-0.175-0.099-0.061-0.198-0.116-0.298-0.173-0.090-0.051-0.179-0.102-0.269-0.149-0.108-0.056-0.216-0.106-0.325-0.157-0.084-0.039-0.167-0.081-0.252-0.117-0.143-0.061-0.287-0.114-0.431-0.166-0.051-0.018-0.101-0.040-0.152-0.057-0.002-0.001-0.004-0.001-0.006-0.002 0.435-2.695 1.796-5.481 3.62-7.439 0.147 0.232 0.31 0.45 0.485 0.658 0.045 0.053 0.095 0.099 0.141 0.15 0.143 0.159 0.29 0.314 0.449 0.458 0.076 0.069 0.157 0.129 0.236 0.194 0.139 0.114 0.28 0.225 0.429 0.327 0.091 0.063 0.185 0.12 0.279 0.177 0.147 0.090 0.298 0.175 0.453 0.253 0.1 0.050 0.2 0.098 0.303 0.143 0.161 0.070 0.325 0.131 0.492 0.188 0.103 0.035 0.204 0.072 0.309 0.101 0.184 0.052 0.373 0.090 0.563 0.126 0.092 0.017 0.182 0.040 0.275 0.053 0.285 0.038 0.574 0.062 0.867 0.062s0.582-0.024 0.867-0.064c0.093-0.013 0.183-0.036 0.275-0.053 0.19-0.035 0.378-0.074 0.563-0.126 0.105-0.030 0.207-0.066 0.31-0.102 0.167-0.056 0.33-0.118 0.491-0.188 0.103-0.045 0.203-0.093 0.303-0.143 0.155-0.078 0.305-0.162 0.453-0.253 0.094-0.058 0.187-0.114 0.278-0.177 0.149-0.102 0.291-0.214 0.431-0.328 0.078-0.064 0.159-0.125 0.234-0.193 0.16-0.145 0.309-0.301 0.454-0.463 0.045-0.049 0.093-0.093 0.136-0.144 0.175-0.208 0.339-0.427 0.486-0.659 2.246 2.409 3.763 6.044 3.763 9.152 0 4.213-2.958 6.261-9.043 6.261z"></path>
</svg>
