<?xml version="1.0" encoding="utf-8"?>
<!-- Generator: Adobe Illustrator 23.0.0, SVG Export Plug-In . SVG Version: 6.00 Build 0)  -->
<svg version="1.1" id="Capa_1" xmlns="http://www.w3.org/2000/svg" xmlns:xlink="http://www.w3.org/1999/xlink" x="0px" y="0px"
	 viewBox="0 0 650 300" style="enable-background:new 0 0 650 300;" xml:space="preserve">
<style type="text/css">
	.st0{clip-path:url(#SVGID_2_);}
	.st1{clip-path:url(#SVGID_4_);}
	.st2{fill:#754F44;}
	.st3{fill:#FFC48B;}
	.st4{fill:#99594A;}
	.st5{fill:#6C3825;}
	.st6{fill:#AE7244;}
	.st7{fill:#351C1C;}
</style>
<g>
	<defs>
		<rect id="SVGID_1_" x="-0.5" y="0" width="650" height="300"/>
	</defs>
	<clipPath id="SVGID_2_">
		<use xlink:href="#SVGID_1_"  style="overflow:visible;"/>
	</clipPath>
	<g class="st0">
		<defs>
			<rect id="SVGID_3_" x="0" y="-64" width="662" height="423"/>
		</defs>
		<clipPath id="SVGID_4_">
			<use xlink:href="#SVGID_3_"  style="overflow:visible;"/>
		</clipPath>
		<g class="st1">
			<g>
				<path class="st2" d="M649.5,300c0,0,0,0-29.5-5c-54.5-9.3-41.3-11.6-59.1-19.8c-0.8-0.4-4.4-2.9-4.5-3.6c-0.6-1-1.3-2.3-1.9-3.3
					c-1.1-0.7-1.5-1.7-1.2-3.1c-0.1-0.1-0.2-0.1-0.3-0.2c-0.5-0.5-1.1-0.9-1.9-1c0,0,0,0,0,0c-1.4-0.1-2.5-1.3-2.6-2.8
					c0-0.1,0-0.3,0-0.4c-0.1-2.4-2.9-3.6-4.7-2.1c-6.8,5.7-9.4,13.7-12.2,21.7c-0.7,2.1-24-2-24.6,0.2c-1.5,5-5.6,3.8-9.9,4.4
					c-2.5,0.4-3.2,5.5-9.4,5c-7.1-0.5-14-2-20.9-2.9c-0.9-0.1-1.9-0.7-2.4-1.3c-0.9-1.1-0.1-2.2,1-2.9c3.1-2.2,6.3-4.3,9.5-6.5
					c-2-2.6-4.9-2.3-7.5-2.8c-1.5,1.4-2.4,3.5-5.6,3.6c1.9-3.9,3.2-7.7,7.8-9.5c-0.8-4.1,2.6-7.1,3.7-10.7c1.6-5.3-0.5-8.6-3.7-12.2
					c-3.4-3.9-8.2-7.5-3.5-13.2c1-1.2,0.6-3.3-1.8-3.7c-1.9-0.3-4.6-0.7-4.9,1.7c-0.9,5.5-6.1,5.9-10.3,7.7
					c-2.1,3.5-2.5,7.8-6.8,10.1c-3.4,5.6-9.4,8.7-15,12.1c-2.8,1.7-3.5-0.4-2.8-2.5c0.5-1.7,1.9-3.6-1.2-4.4c-2.2-0.6-4,0.3-5.1,2.1
					c-1.9,2.9-4.5,5.4-4.9,9c-0.3,2.5-0.7,5.4-3.7,7.1c-2.2-7.9-7.5-10.9-16.3-9.5c-4,0.7-7.7,0.2-9.6-3.4c-1.3-2.5-3.7-2.8-6.2-3.2
					c-6.3,0.9-12.7,3.2-18.6-1.1c-6.8,2.1-11.9-2-16.5-4.7c-6.7-3.9-16.1-2.9-20.7-10.1c-1-0.5-1.8-0.9-2.9-1.4
					c-3.9,0.5-5.6-2.5-8.3-3.9c-3.8-2-8.1-5.6-10.2,2.3c-1.7,6.5-10.2,6.3-15.5,9.3c-3.6,2-6.2-2.7-9-4.8c-3.1-2.3-4.7-5.9-8.8-7.2
					c-4.6-2.3-10.5-0.9-14.8-4c-7.6-0.5-13.6-5.5-21.5-5.6c-5.6-0.1-7.8,1.1-6.7,6.1l-0.1,2c5.2,7.1,8.6-0.1,12.6-1.5
					c1-0.4,1.5-2.4,3.3-1.3c7.7,4.6,16.4,6.3,25.3,7.8c5.2,0.9,5.1,6.2,7.8,9.2c3,3.3,3.4,7.7,10.2,4.3c3.8-1.9,8.7,0.8,9.5,4.5
					c1.3,6.1,5,9.4,11.2,11.1c0.7,0.2,1.2,0.8,1.8,1.2c2.5,1.6,7.2,3.1,4.6,6.3c-2.1,2.7-5.3-0.7-7.7-2c-10-5.1-20.7-5-31.6-3.2
					c-0.9,0.2-2.3,0.2-2.8-0.3c-5.6-4.8-13.2-1.9-19.4-4.1c-1.4-0.5-3.1-0.4-3.9,1.2c-0.8,1.7-0.4,3.1,1.4,4.1c3.7,2,7.8,4,12,3.9
					c7.6-0.2,15,1.6,22.6,1.5c0,0,0.1,0.1,0.1,0.1c4.1,6.5-0.9,7.1-7.4,7.1c4.6,2,8.9-0.3,12.3,3.4c-3.4,0.2-6.5,0.4-9.7,0.6
					c0.4,0.5,0.6,1,0.9,1c2.4,0.3,5.3-0.1,6.4,2.7c0.3,0.8,0.2,2-0.9,2.3c-3,1-7.1,1.4-8.5-0.7c-3.8-5.5-8.7-5.3-14.6-4.6
					c-2.4,0.3-5.3-1.4-7.7-2.5c-7.8-3.6-15.5-7.3-23.3-10.9c-0.2-0.1-0.6-0.1-0.7-0.2c-5.1-11.5-13.8-4.9-21.6-3.7
					c-8.9,1.3-18,5.7-26.4-1.4c-1.7-1.5-2.5-0.6-4,0.9c-2.5,2.6-4.1,5.6-6.2,8.2c-1.1,1.3-0.2,4.8-4,3.8c-2.7-0.7-3.2-2.6-3.4-4.8
					c-0.1-0.9-0.8-1.8-0.7-2.6c0.2-2.7,2.9-6.7-1.7-7.3c-3.2-0.4-3.5,4.3-5,6.7c-2.5,4.2-1.2,10.1-6.9,12.9c-1.4,8.7-8.8,4.6-14,5.3
					c-3.6,1.3-6.1-2.3-9.5-1.8c-3.7,1.5-7.2,0.5-10.7-0.8c-0.2,0.6-0.2,1.4-0.6,1.9c-1.8,2-4.4,4-7,2.9c-3.2-1.4,0.5-4,0.1-6.1
					l-0.3-0.2c-3.1-0.2-4.9-2-6-4.4c-2.3,0.8-4.5,1.6-7.1,2.5c-0.9-4.8,2.5-7,5.7-9.3c-1.2-4.5,4.4-4,5.9-6.6
					c-0.3-1.9,0.7-4.2-2.2-5.2c-2.4-0.8-2.7-2.5-2-4.4c0.8-2,2.7-2.2,4.8-2.6c2.9-0.5,6.8,1.8,8.4-2.3c-2.6-0.1-5-0.5-6.3-2.9
					c-3.3-4.7-1.3-9.1,4.8-9.7c4.4-0.4,9.2,0.7,12-3.7c0.2-0.3,1.1-0.5,1.4-0.4c6,4.1,15.1-1.1,20.3,5.4c6.2,1.6,10.2-2.5,15-4.6
					c6.8-1.9,8.7-6.8,9.8-12.4c0.7-3.5-4-1.1-4.8-3.9c-0.4-1.5-3.3,1-4.1,2.3c-5.4,9.1-12.6,10.9-24.3,8.5c-7.3-1.5-13-4.4-19-7.9
					c-3.6,0.3-6.2,0.5-9.8,0.8c-3.8,3.3-6.5,7.2-7.9,11.8c-0.8,2.8-4,2.1-6.3,2.8c-12.1,3.4-12.2,15.2-5.3,22.8
					c-8.6-1.9-16.5-3.6-24.6-5.3c1.5-1.9,3.1-0.9,4.4-1.3c2.7-0.9,7,4,8-1.1c0.9-4.6,1.6-10.2-4.9-12.8c-7.2-2.9-13.5-7.7-21.8-8.1
					c-2.1-0.1-3.2-2-4.6-3.3c-3-2.6-5.5-3.4-8,1c-2.6,4.5-16.7,5.2-20.2,1.3c-0.2-0.2-0.4-0.3-0.5-0.5c-2.3-3.5-5.3-6.6-10.1-5.9
					c-4.5,0.7-3.5,5.4-5.1,8.9c-5-4-5.2-9.3-6.4-13.8c-2.8-10.7-8.2-20.9-9.4-32c-4-1.3-3.3-6.4-7.5-7.5v0c-1.1-1.9-2.2-3.7-3.3-5.6
					c-2-1.1-5.5-4.6-2.9,1.5c0.4,1,0.7,2,1.4,3.8c-3.8-0.5-4.7-2.8-5.8-4.8c-1.7-4-4.4-7.1-9.2-8.4c-3.1,0.6-1.5,3.9-3.5,5.3
					c-3-2-1.6-5.4-3.1-7.7c-0.9,0.3-0.9,0.3-1.8,0.6c0.1,2.2-0.3,4.2-3.3,4c-4.7-0.4-2-4.3-3.6-6.2c-1-1.4-2.1-2.7-3.1-4.1
					c0.7,5.1-4,9.7-1.3,15c5-0.1,9.2,1.3,12.2,5.1c3.6,4.5,7.3,9,10.9,13.5c1.2,1.5,1.3,3.1,1.3,4.8c0.4,1.5,1,3.7,1.4,5.3
					c1.1,1.8,2.2,3.7,3.3,5.5c1.8,2,2.6,4.7,0.2,5.9c-2.3,1.1-5.3-0.2-7-2.6c-0.7-1-1.2-3-3-2.4c-1.2,0.4-3,2.2-2.8,2.9
					c1,3.1-2,5.9-1.3,8.4c1.6,5.1-3.2,5-5.6,5.9c-4.1,1.6-5.3-1.5-6-4.6c-0.2-0.9-0.7-1.7-1.1-2.5c-7.7-0.3-7.4-7-10.6-10.8
					c-2.2-1.5-1-7.6-7.4-4.2c-1.3,0.7-4-3.2-5.1-5.4c-1.2-2.4,2.2-2.5,3.4-3.7c1.2-1.3,4-1.2,3.8-4.7c-3.5,4.2-7.3,1.4-10.9,1.5
					c-2.2,3.7-5.2,3.9-9.5,2.6c-7.4-2.2-13.4-6.2-19.7-9.9c-12.4-7.3-25.6-13.5-41.1-13.6c4.2,1.9,8.3,3.8,12.5,5.6
					c6.2,1.7,12.5,3.4,18.7,5.2c1.8,0.6,3,1.3,1.9,2.4c1.1-1.1-0.1-1.8-1.9-2.4c-1,1.3-1,2.4,0.7,3.2c-0.5,1.7-1,3.4-1.5,5.1
					c8.7,1.7,14.1,8.5,22,11.6c4.1,1.6,7.8,3.2,12,0.6c2-1.2,3.7-0.9,5.3,0.7c1.9,2,6.5,3,5.3,5.9c-1.3,3.4-5.6,2.2-8.7,1.7
					c-1.9-0.3-3.5-1.1-3.7,1.5c4,2.2,5.9,7.4,11.9,6.9c9.7-6.1,11.7,4.4,17.4,6.8c5.3,2.2,1.9,5.8-0.3,8.5c-0.7,0.8-2.4,1-3.2,1.7
					c-2,1.9-7.3,4,0.5,5.5c3.2,0.6,2,3.7,2.2,5.9c0,0,0,0,0,0c-1.2,0.1-2.3,0.3-2.9,1.3c0.1,0.4,0.1,0.8,0.2,1.2
					c6,6.3,10.7,13.5,18.6,18.2c3.4,1.2,4.4,3.4,2.9,6.4c-2.1,4-2.2,7.3,3.9,8.3c-5.3,5.7-11.6,5.7-18.3,4.3c-3.3,2.7-4.8,3.9-8,6.6
					c0.1,2.7-2.2,3.1-5,3.1c-0.2,0.2-0.4,0.3-0.5,0.6c-0.9,3.9-5.8,4.4-7.7,7.4c28.6,4.9,57.6,7.6,86.6,9.8c28,2.1,56,3.6,84.1,5.4
					c1.6,0.1,3.7-0.7,4.5,1.4H427c5.7-3.3,12.4-2,18.5-2.5c24-2,48.2-2,72-4.7c16.6-1.9,116.3-5.8,132.5-10.4"/>
			</g>
			<g>
				<path class="st3" d="M182.6,182.7c-4.9,1.1-9.7,2-14.6-0.7c-3.1-1.8-6.2-0.4-9.1,1.3c-2,1.2-4.4,1-6.3-0.6c-1-0.9-1.4-2-0.8-3.1
					c1.2-2.1,3.3-1.7,5.3-1.2c1.1,0.3,2,0.3,2.6-0.5c1-1.3-0.3-2-0.9-2.9c-2.4-3.5-5.9-2.7-9.3-1.8c-3.9,1-3.8,3-1.6,5.5
					c0.9,1,0.2,2.1-0.7,3.1c-2.7,2.9-1.9,4.9,2,6.1c2.3,0.7,4.8,1.6,2.7,4.2c-1.5,1.9-4.1,1.8-6,0.3c-1.7-1.4-3.2-2.7-6.6-2.7
					c1.8,3.7,5.3,7.8-2.4,8.1c-0.4,0-1.3,1-1.2,1.4c0.4,2.4,0.7,5.4-3,4.6c-4.5-0.9-0.4-3.7,0.3-5.6c-4.2-1.2-5.6,1.6-7.6,3.1
					c-1.8,1.4-3.3,3.2-2.2,5.4c1.3,2.6,3.5,0.2,5.3,0.3c8.6,0.5,16.4-1.9,24.5-7.5c-0.6,8.1,1.8,14.2,7.9,19.7
					c-6.2,0.9-11.2-0.2-14.4-3.2c-3-2.9,5.1-3.3,3.4-7.1c-7.5-3.2-13.3,11.1-22.4,1.2c1.1,5.7,0.7,9.8-5.7,11
					c-2.8,0.5-1.9,2.8-2.2,4.5c-3.5-0.3-7-0.5-10.5-0.8c4.5-3.2,1.3-8.8,4.5-12.4c7.7-4.7,10.1-16.4,5.4-25.9
					c-0.4-2.3-0.9-4.6-1.3-6.8c5.2-2.3,10.6-4.3,15-7.7c1.2,0.1,2.6-0.1,3.6,0.3c3.3,1.3,7.2,0.1,8-1.7c1.3-3-3.1-3.8-5.4-4.4
					c-6.8-1.7-6.6-6-5.7-10.6c0.9-4.9,5.1-4.8,9.3-4.4c13.8,7,28.5,12.9,37.4,25.8C181.2,178.5,183.5,180,182.6,182.7z"/>
			</g>
			<g>
				<path class="st3" d="M517.7,148.5c2.2-3.2,2.1-7.8,6.5-9.8c3.2,0.6,6.3,0.4,6.7-3.1c0.3-3,0.4-6.5-4.9-6.3
					c-0.2-0.2-0.5-0.5-0.7-0.7c0.3-1,0.7-1.9,2-2.1c2.3-0.9,4.5-1.9,6.9-2.7c13.5-5,22-16.3,34.7-22.3c2.4,0.5,4.8,1.1,7.2,1.6
					c-2.7,4.4-1.3,6.5,4.3,7.1c5.4,0.5,10.3-1.2,15.5-1.7c2.2-0.2,3.4-1.4,2.8-3.2c-1.5-5.1-6.1-9.1-7.1-14.5c0.9-3.1,2-6.1,2.5-9.2
					c1-5.7,5.1-8.5,10.8-10.1c7.8-2.2,15.7-1.1,23.2,0.5c6.6,1.4,12.4,0.7,18.4-1.4c-0.6,3-2.6,5.3-4.9,7.3c-5.3,4.6-2.5,5.8,3,6.1
					c-2.9,4.4-6.7,7.9-12.5,9.2c-2.2-1.6-6.3-0.2-7.5-3.6c1.5,0,3-0.1,4.5-0.2c1.7-0.1,3.7,0.5,4.5-1.5c0.6-1.6,0.3-3.1-1.2-4.3
					c-1.7-1.3-3.6-1.5-5.5-0.4c-1.2,0.7-2.3,1.7-3.4,2.6c-1.5-3.2-4.1-4.8-8-4.4c-0.2-2.5,5.2-2.5,3.2-5.3c-2-2.9-5.1-0.5-7.7-0.3
					c-3.5,0.3-5.2,2.2-6,5.2c-1.1,4.6-2.1,9.3-4.9,13.5c-3.3,5,0.9,3.3,3.4,2.9c-0.7,3.7,1.1,5.9,5.3,5.4c4-0.5,5,2,6.6,4.1
					c-3.8,7.8-12.5,9.2-19.9,12.3c-0.1-0.5-0.2-1-0.2-1.4c0.8-2.1,5.4-3.2,2.4-6c-1.6-1.6-4.4-0.8-6.2,0.5c-1.7,1.2-4.6,2.1-3.8,4.4
					c0.7,2,3.7,0.3,5.3,1.2c-3.3,3.5-8.6,6.2-12.1,3.1c-5.1-4.5-9.6-3.2-14.7-1.8c-0.9-1.9-2.6-0.7-4-0.9c-0.3-3.4-2.4-4-4.9-2
					c-7.1,5.8-15.9,10.1-20.7,18.1l-0.3,0.3c-0.3,0.4-0.5,0.7-0.8,1.1c-4.2,3.9-8.3,7.8-12.6,11.6
					C521.8,148.9,520.1,151,517.7,148.5z"/>
			</g>
			<g>
				<path class="st4" d="M569.7,164.3c-0.8-0.8-1.8-1.6-2.5-2.5c-1.4-2.1-6.7-5.3-9.2-5.4c0.7-3.4,5.2-6.2,2-10.3
					c2.1-1.6,6.2-2.5,2.5-6c0.8-0.1,1.6-0.3,2.5-0.4c0.5,0,0.9-0.1,1.4-0.1c-0.3-0.3-0.5-0.7-0.8-1c-0.3-2.6,0.2-5.6-1.1-7.8
					c-2.7-4.5-0.1-7.8,2-11.4c5.2-1.4,9.6-2.7,14.7,1.8c3.5,3.1,8.8,0.4,12.1-3.1c0.7-0.1,1.5-0.1,2.2-0.2c0.1,0.5,0.2,1,0.2,1.4
					c-1.2,0.8-2.3,1.8-3.5,2.5c-4.8,2.8-9.4,5.3-7.8,11.9c0.5,2,0.5,5.5-2.2,7.5c-2.9-1.7-7-3.3-7.2,1.2
					C574.5,150.2,570.1,156.8,569.7,164.3z"/>
			</g>
			<g>
				<path class="st4" d="M-87,102.8c1.3,0.6,2.5,1.8,3.8,1.8c5.1,0.1,8.3,1.5,9.5,6.6c0.5,2.2,4.1,3.8,6.2,5.7
					c-2,8.7-1.4,17.3,2.6,25.7c-2.8-3-3-7.3-7.4-9.2c-2.3,7.1-0.2,10.5,9.2,15.1c0.1,2.6,0.3,5.1,0.4,7.7c-2.4,2.6-4.9-0.4-7.3,0.2
					c0-3-3.3-5.1-4.9-4.5c-3.5,1.4-3-2-4.8-2.2c2.4-3.7,1.9-6.7-1.1-10.3c-4.5-5.5-7.8-11.8-13.1-16.9c5-0.1,10.1-0.7,14.7,1.9
					c1.9,1,3.8,0.7,5.8,0c1.4-0.5,3.1-0.2,2.8-2.3c-0.2-1.5-1-2.6-2.9-2.5c-4,0.2-7.7-1-12.7-2.1c5.4-2.7,4.3-5.3,1.6-8
					C-86.6,107.6-88.1,105.6-87,102.8z"/>
			</g>
			<g>
				<path class="st3" d="M-70,156.3c2.4-0.6,4.9,2.4,7.3-0.2c5.5-0.7,1.7,3.1,2.7,4.5c0.7,5.1-4,9.7-1.3,15c0,0,0.1-0.1,0.1-0.1
					c-3.2,7.3-1.2,14.8-1.5,22.2c-0.6,1.2-1.3,2.4-1.9,3.6c-1.8,4,2.7,6.4,3.2,9.8l0.1-0.1c-3,1.7-4.4-5.9-7.9-1
					c-2.2-1.5-1-7.6-7.4-4.2c-1.3,0.7-4-3.2-5.1-5.4c-1.2-2.4,2.2-2.5,3.4-3.7c1.2-1.3,4-1.2,3.8-4.7c-3.5,4.2-7.3,1.4-10.9,1.5
					c-0.8-9.3,0.2-10.2,9.7-9.3c2.8-6.5-2.6-12.9-0.5-19.5c0.8,0.8,1.6,1.5,2.4,2.3c0.4,6.2,4.2,12,3,18.4c-0.2,0.8,0.2,1.8,1.5,2
					c1.2,0.2,2.1-0.5,2.1-1.4c0-3.8,2.3-7.3,0.9-11.3C-68.3,168.8-67.4,162.2-70,156.3z"/>
			</g>
			<g>
				<path class="st3" d="M-63.1,148.5c-9.4-4.5-11.5-7.9-9.2-15.1c4.4,1.8,4.6,6.1,7.4,9.2c-4-8.4-4.6-17-2.6-25.7
					c4.3-0.1,6.6,2.6,9.1,5.1c2.6,4.7,7.5,5.3,12.6,5.6c9.8,2,12.6,9.5,16.3,16.4c-2.6,2.2-1.1,5-1.5,7.6c-0.5-0.2-0.9-0.3-1.4-0.2
					c-6.9-6.2-13.8-12.3-20.2-18.9c-2.3-2.3-7.6-5.7-10.5-2.6c-2.9,3.1,0.5,6.9,4.4,9c0.2,3,2.5,5.6,1.8,8.8
					c-3.3,0.2-1.6-4.3-4.8-3.4C-64.1,145-62.4,147.1-63.1,148.5z"/>
			</g>
			<g>
				<path class="st3" d="M139.6,91.8c-0.1-9.3,4.8-13.3,15-12.4c2.4,0.2,4.5,1.1,6,2.7c5.3,5.8,0.1,11.8,0,17.6
					c-0.1,4.2-5.3,5.1-9.3,5.7C144.4,106.4,139.7,100.7,139.6,91.8z"/>
			</g>
			<g>
				<path class="st3" d="M491.5,167.3c3.5,1.1,2.5,4.2,3.3,6.4c1.1,2.8,1,5.8-4,3c-3.2-1.8-5,0-6.1,2.6c-2.8,6.4-3.1,13.7-8.2,19.4
					c-1.4,1.6-0.6,3.2,0.9,4.8c2.2,2.4,1.7,5.2-0.9,7.3c-4.1,3.2-3.4-1.6-4.7-2.6c-2.1-1.6-3.8-0.5-5.5,0.3c-2.2,1-3.8,3-6.7,2.7
					c3.3-8,6.7-16,10-24c2.4-5.9,8.1-9.1,13.5-12.4C486.4,172.5,489.3,170.3,491.5,167.3z"/>
			</g>
			<g>
				<path class="st2" d="M-193.8-14.2c-0.2,1,0,2.2-1.5,2.6c-2.3,0.4-2.7,2.1-3.1,3.8c-9.2,3.9-12.6,2.6-21.2-8.1
					c0-2.5-0.3-5,0.2-7.4c1-5.6,12.3-12.5,16.4-9.4c3.6,2.7,8.9,6.2,7,12.1C-196.9-18-196.6-15.8-193.8-14.2z"/>
			</g>
			<g>
				<path class="st2" d="M-196.7,125.8c2.3,1.2,3.2,3.4,4.4,5.3c2.7,4.3,5.7,7.8,12,7.5c4.7-0.3,1.8,2.4,1.6,4
					c-2.9,1-4.1-2.3-6.7-2.2c-1.7,0-4.8,0.3-3.3,2c3.8,4.5,0.1,8.6,0.3,12.9c-2.9-2.5-7-0.7-10.1-2.5c0-5-2.6-8.7-7.2-11.3
					c-1.4-2.3,1.5-4.3,0.7-6.6C-203.2,131.1-197.2,130.5-196.7,125.8z"/>
			</g>
			<g>
				<g>
					<path class="st4" d="M615.5,81.5c3.9-0.4,6.5,1.2,8,4.4c-0.1,0.6-0.1,1.2-0.2,1.8c-0.2,0.9,0.1,1.6,1.2,1.8l0.1,0.2
						c1.2,3.3,5.2,1.9,7.5,3.6c-3.4,1.3-6,2.8-6.6,6.6c-0.8,4.7-7,4.3-9.9,7.3c-1.6-2.2-2.6-4.7-6.6-4.1c-4.2,0.5-6-1.6-5.3-5.4
						C607.7,92.2,611.6,86.8,615.5,81.5z M618.6,102.1c1.6-3.7,4.7-5.8,2.3-8.9c-0.9-1.2-3.1-1.3-4-0.2
						C614.6,95.7,615.7,98.4,618.6,102.1z"/>
				</g>
			</g>
			<g>
				<path class="st3" d="M-193.8-14.2c-2.8-1.6-3.1-3.8-2.3-6.5c2-5.9-3.4-9.4-7-12.1c-4.1-3-15.3,3.9-16.4,9.4
					c-0.4,2.4-0.1,4.9-0.2,7.4c-4.1-1.5-8.5-3.4-7.3-8.1c1.4-5.5,6.3-10.3,11.8-11.1c5.2-0.8,11.4-2.7,17.2,1.5
					C-189-27.2-187.7-23.5-193.8-14.2z"/>
			</g>
			<g>
				<path class="st3" d="M-3.2,163.1c0,1.4,0,2.8,0,4.1c-5.5-0.8-11.3,2-16.5-1.4c-2.4-2.7-3.7-6.4-8.6-7c-2.5-0.3-2.7-3-2.5-5.1
					c2.3-0.5,4.6-1,6.9-1.5C-13.6,150.6-7.1,154.9-3.2,163.1z"/>
			</g>
			<g>
				<path class="st3" d="M-81.1,220.5c9.7-6.1,11.7,4.4,17.4,6.8c5.3,2.2,1.9,5.8-0.3,8.5c-0.7,0.8-2.4,1-3.2,1.7
					c-2,1.9-7.3,4,0.5,5.5c3.2,0.6,2,3.7,2.2,5.9c-1.2,0.1-2.5,0.3-3,1.5c-1-0.3-1.5-0.9-1.5-1.9c0-1.5-0.4-2.9-2.3-3.4
					c-1-3.4-2.7-6.5-1.2-10.3c0.8-2.1,0.5-3.9-3.5-4.9C-79.3,229-82.5,225.1-81.1,220.5z"/>
			</g>
			<g>
				<path class="st3" d="M621.8,170c4.6,2.5,3.1,5.8,1,8.6c-3.1,4.1-7.6,6.2-13.2,4.7c-3.3-0.9-6.3-2.8-9.5-4.3
					c-1.2-0.6-2-1.4-1.6-2.7c1.1-3.3,12.9-10.6,16.8-10.2C618.3,166.2,621.7,166.1,621.8,170c-1.9,1-4.4,0.8-5.8,2.7
					c-1.2,1.6-3.2,2.9-2.4,5.3c0.3,1,1.2,1.3,2.3,1.3c2.4-0.2,3.3-2,4.2-3.5C621,173.9,621.3,171.9,621.8,170z"/>
			</g>
			<g>
				<path class="st4" d="M58.9,157.7c0,1.3,0,2.6,0.1,3.9c-8.4-1.9-15-5.8-19.7-12.5c-2.3-3.2-4.5-1.3-6.6,0.5
					c-4.1-7.3-3.1-9.4,4.9-9.7c0,0-0.1-0.1-0.1-0.1c-1.9,2.1,0.5,2.5,1.7,3.4c5.6,0.3,5.1,7.8,11.7,8c-2.8-3.4-3.9-6.6-1.3-9.9
					C53.2,146.6,53.5,153.3,58.9,157.7z"/>
			</g>
			<g>
				<path class="st4" d="M591.7,90.8c0.9,5.4,5.5,9.3,7.1,14.5c0.5,1.7-0.6,2.9-2.8,3.2c-5.2,0.5-10.1,2.2-15.5,1.7
					c-5.6-0.5-7-2.7-4.3-7.1c1.8,0.2,3.1-0.6,4.4-1.5c1.4,0.9,2.7,2.4,4.2,2.5c1.9,0.2,4.6,2.3,5.9-0.7c1.1-2.3-0.8-3.8-2.8-5
					c-0.8-0.5-1.9-0.6-2.9-0.8C586.1,94.4,590.7,94,591.7,90.8z"/>
			</g>
			<g>
				<path class="st4" d="M568.9,101.4c-12.7,6-21.2,17.2-34.7,22.3c-2.3,0.9-4.6,1.8-6.9,2.7c1.8-3.6,5.1-6.4,8.7-8.1
					c6.6-3.1,12-7.3,17-12.1C557.3,102.1,562.1,98.9,568.9,101.4z"/>
			</g>
			<g>
				<path class="st3" d="M56.8,166.6c-2.3-1.8-3.8-5.8-7.7-0.9c-1.8,2.4-3.1-0.4-3.5-2c-0.5-2,0.5-4.8-3.6-4.4
					c-4.1-2.4-7.5-5.3-9.3-9.6c2-1.9,4.3-3.8,6.6-0.5c4.7,6.7,11.3,10.6,19.7,12.5C59.3,163.7,58.6,165.4,56.8,166.6z"/>
			</g>
			<g>
				<path class="st3" d="M46.8,131.8c2.7,1.7-0.3,3.2-0.1,4.8c-1.4,1.4,0.3,3.6-1.3,4.7c-3.4-1.1-2.5-6.6-7.8-5.3
					c-2-3.9-3.3-7.9-0.1-11.8c1.6-0.2,3.2-0.4,4.8-0.5c0,0-0.1-0.1-0.1-0.1C42.2,126.9,41.5,130.7,46.8,131.8z"/>
			</g>
			<g>
				<path class="st3" d="M13.2,144.1c0.3,0.8,1,1.7,0.9,2.5c-0.1,3.1,0.2,6.5-3.5,8.3c-2.2,1.1-4.4,0.8-6.3-0.8
					c-3.1-2.5-2.7-5.6-1.4-8.7C6.8,147.6,10,145.8,13.2,144.1z"/>
			</g>
			<g>
				<path class="st3" d="M40.4,162c0,1.1-0.1,2.2-0.1,3.3c-8,0.2-14.9,5.3-23.4,3.6c-3-0.6-5.9-0.6-8.1-2.8
					C19.7,167.4,29.8,163.2,40.4,162z"/>
			</g>
			<g>
				<path class="st3" d="M113.4,170.4c-3.1-3.4-6-1.6-9,0.3c-5.1,3.4-10.8,1.7-16.2,1.1c-0.2,0-0.3-1.2-0.5-1.8
					c8.9,1.3,16.5-2.2,24.1-5.6C113,166.3,114.3,168.1,113.4,170.4z"/>
			</g>
			<g>
				<path class="st3" d="M37.6,136c5.3-1.3,4.3,4.3,7.8,5.3c1.6-1.1,0-3.3,1.3-4.7c1.9,1.2,3.1,2.6,2.9,4.8
					c-2.5,3.4-1.4,6.5,1.3,9.9c-6.6-0.2-6.1-7.7-11.7-8c-0.1-1.3,0-2.7-1.7-3.4c0,0,0.1,0.1,0.1,0.1C37.6,138.7,37.6,137.3,37.6,136
					z"/>
			</g>
			<g>
				<path class="st4" d="M575.4,191.6c-0.7-1.4-1.3-2.7-2-4.1c-0.1-1.6-0.2-3.1-0.3-4.7c1.8-0.2,3.1-1,3.5-2.7
					c1.1-0.2,2.3-0.4,3.4-0.6c0.9,2.1,4.9,1,5,4C580.9,185.2,577.3,187.5,575.4,191.6z"/>
			</g>
			<g>
				<path class="st3" d="M-196.7,125.8c-0.5,4.7-6.5,5.3-8.3,9c-1.5-1.6-0.7-3.4-0.7-5.1c0-2.1-1.2-4.9,1.9-5.8
					C-201.2,123-198.4,123.2-196.7,125.8z"/>
			</g>
			<g>
				<path class="st2" d="M-207,149.2c-0.3-0.4-0.6-0.9-0.9-1.3c1.9-1.8,1.9-4.2,2.1-6.5c4.6,2.6,7.2,6.3,7.2,11.3
					c-1.4,0-2.7-0.1-4.1-0.1c0,0-0.1-0.4-0.1-0.4C-203.9,150.9-204.7,149.2-207,149.2z"/>
			</g>
			<g>
				<path class="st3" d="M42.2,123.6c-1.6,0.2-3.2,0.4-4.8,0.5c-3.2-3.6,1.5-10.1-4.7-11.8C34.9,116,40.5,118.4,42.2,123.6z"/>
			</g>
			<g>
				<path class="st4" d="M585,97.5c1,0.3,2,0.4,2.9,0.8c2,1.1,3.8,2.7,2.8,5c-1.3,2.9-4,0.8-5.9,0.7c-1.5-0.1-2.8-1.6-4.2-2.5
					c0.7-0.8,1.4-1.7,2.1-2.5c1.1-0.1,2.3-0.2,2.6-1.5L585,97.5z"/>
			</g>
			<g>
				<path class="st4" d="M13.2,144.1c-3.2,1.7-6.4,3.5-10.2,1.4c0-0.5,0.1-0.9,0.1-1.4c0.3-0.4,0.6-0.9,0.9-1.3
					C8,137.9,10.9,139.6,13.2,144.1z"/>
			</g>
			<g>
				<path class="st4" d="M112,134.3c-5,0.1-11.1,1.1-7.6-6.6C107.6,129.4,110.5,131.2,112,134.3z"/>
			</g>
			<g>
				<path class="st3" d="M82.5,167.3c-7,0.2-11.5-4.8-17.5-6.8C72.3,159.8,77.8,162.7,82.5,167.3z"/>
			</g>
			<g>
				<path class="st4" d="M-79.6,156.2c8.1,0.9,6.6,6,5.9,10.8c-0.8-0.8-1.6-1.5-2.4-2.3C-76.7,161.7-79.8,159.5-79.6,156.2z"/>
			</g>
			<g>
				<path class="st4" d="M353.1,248.1c-4.7-6-14.4-8.8-14.5-17.8c0-3.4,0-6.8,0-10.8c-7.1,3.4-2.3,7.4-2.2,10.9
					c-0.6,2-1,4.2-3.6,5.1c-2.1,5.4-7.5,1.4-11,3.1c4.6,6.9,14,6,20.6,9.9c4.7,2.7,9.8,6.9,16.5,4.7
					C357,251.6,354.7,250.1,353.1,248.1z"/>
			</g>
			<g>
				<g>
					<path class="st3" d="M-158.7,171.3C-158.7,171.3-158.7,171.3-158.7,171.3c0.1,0.1,0.1,0.1,0.1,0.1
						C-158.6,171.3-158.7,171.3-158.7,171.3z"/>
				</g>
				<g>
					<path class="st3" d="M-85.9,204.6c-1.6-1.6-3.3-2-5.3-0.7c-4.2,2.6-7.8,1-12-0.6c-7.9-3.1-13.3-9.8-22-11.6
						c-8.1,3.2-12.6-3.5-18.5-5.9c-2.7-1.1-2.2-5.2,0.6-7.6c-4.2-1.9-8.3-3.8-12.5-5.6c0,0,0.1,0.1,0.1,0.1
						c-1.3,0.1-2.6,0.1-3.1-1.4c-1.6,0-3.1,0-4.7,0.1c0.5-0.5,1.1-1,1.6-1.5c-2.7-3.6-8.3-3.5-11.3-6.8c-1.6-0.3-2.3-1.3-2.5-2.7
						c0,0,0.1,0.1,0.1,0.1c-0.3-4.7-1.8-8.9-6.1-12c-0.5-2.5,3.4-3.4,2.8-6c-2.9,1-4.1-2.3-6.7-2.2c-1.7,0-4.8,0.3-3.3,2
						c3.8,4.5,0.1,8.6,0.3,12.9c5.3,1,6.2,5.2,7.2,8.8c1.1,4.4,3.4,6.7,8.5,6.2c-1,1.9-1.9,3.1,1.3,4.6c12.7,6,25.1,12.8,37.8,18.9
						c8.8,4.2,17,9.2,24.2,15.2c5,4.1,10.1,5.7,16.5,4.8c0.2-2.6,1.8-1.8,3.7-1.5c3.1,0.5,7.4,1.8,8.7-1.7
						C-79.5,207.5-84,206.5-85.9,204.6z"/>
				</g>
			</g>
			<g>
				<path class="st3" d="M-198.3-7.8c0.4-1.7,0.7-3.4,3.1-3.8C-196-10.1-195.4-7.9-198.3-7.8z"/>
			</g>
			<path class="st5" d="M585.2,97.5c-0.3,1.3-1.5,1.3-2.6,1.5C583.1,98,583.6,96.9,585.2,97.5z"/>
			<g>
				<path class="st2" d="M-71.3,245.2c1.9,0.5,2.3,1.9,2.3,3.4c-0.4-0.2-0.9-0.5-1.3-0.7C-70.6,247-70.9,246.1-71.3,245.2z"/>
			</g>
			<path class="st6" d="M644.5,84.1c0.4-1.1,1.3-1.3,2.4-1.5C646.1,83.1,645.3,83.6,644.5,84.1z"/>
			<path class="st6" d="M4,142.8c-0.3,0.4-0.6,0.9-0.9,1.3C3.4,143.7,3.7,143.2,4,142.8z"/>
			<g>
				<path class="st4" d="M267.1,232.7c6.5-7.5,7.8-7.6,12.3,0.3c2,3.6,3.3,4.1,7.1,1.4c4.3-3,9.5-5,14.3-7.4c3.7-1.9,6.7-4,6.2-8.5
					c-0.4-3.5,3.1-4.1,5.6-4.7c1.3-0.3,5.4,0.3,2.8,2.6c-7.9,7-2.4,12.1,2.2,17.5c0.7,0.8,0.8,2.1,1.1,3.1c-3.9,0.5-5.6-2.5-8.3-3.9
					c-3.8-2-8.1-5.6-10.2,2.3c-1.7,6.5-10.2,6.3-15.5,9.3c-3.6,2-6.2-2.7-9-4.8C272.8,237.7,271.1,234.1,267.1,232.7z"/>
			</g>
			<g>
				<path class="st3" d="M160.6,237.9c0.2,0.1,0.4,0.2,0.6,0.3c5.3,2.5-3.7,3.6-0.7,5.6c2.3,1.5,5.7,2.1,7.3,3.9
					c1.3,1.5-1.2,3.3-3.1,3.7c-2.6,0.5-5.4,0.5-8.1,0.7c-0.2-0.6-0.4-1.2-0.6-1.9c-6.8,2.3-14.7,1.2-21,5.1
					c-1.6,0.2-2.3,0.8-1.5,2.3c0,0,0-0.1,0-0.1c-2,0-4,0-5.9,0c-4-3.3-8.2-6.3-14.2-3.8c-2.6-0.1-5-0.5-6.3-2.9
					c5.4-1.7,10.8-2.1,16.3-0.6c2.1,0.6,5.3,1.6,6.3-0.3c3.3-6.3,10.1-5.7,15.8-7.4C151.8,244.1,155.8,239.9,160.6,237.9z"/>
			</g>
			<g>
				<path class="st4" d="M145.6,242.5c-5.7,1.7-12.5,1.1-15.8,7.4c-1,1.9-4.1,0.9-6.3,0.3c-5.5-1.4-10.9-1.1-16.3,0.6
					c-3.3-4.7-1.3-9.1,4.8-9.7c4.4-0.4,9.2,0.7,12-3.7c0.2-0.3,1.1-0.5,1.4-0.4C131.3,241.1,140.4,236,145.6,242.5z"/>
			</g>
			<g>
				<path class="st4" d="M-59.9,288.7c-2.5-9.4,8.6-12.2,11.3-19.1c3.4,1.2,4.4,3.4,2.9,6.4c-2.1,4-2.2,7.3,3.9,8.3
					C-47.1,290-53.3,290-59.9,288.7z"/>
			</g>
			<g>
				<path class="st3" d="M104.4,268.2c2.7,0.8,6.9,0.9,2.5,4.8c-1.9,1.8-1.2,5.4-4.7,6.3c-2.8-0.5-3.3-2.5-3.7-4.5
					C97.3,270.3,102.9,270.8,104.4,268.2z"/>
			</g>
			<g>
				<path class="st3" d="M224,231.2c-2.4,1.3,0.9,5.8-3.6,5.6c-3.6-0.2-3-3.7-4.2-5.8c-0.7-1.2-1.2-2.4-1.9-4
					c4.2-1.5,6.7,1.7,9.8,2.3C224,229.9,224,230.6,224,231.2z"/>
			</g>
			<path class="st5" d="M89.9,274.9c-2.5,0-3-2-3.3-3.6c-0.6-3.2,2.3-4.3,5-4.9c2.2-0.5,2,1.4,2.2,2.6
				C94.2,271.8,93.4,274,89.9,274.9z"/>
			<g>
				<path class="st2" d="M648.9,296.5c0,0.1,0,0.1-0.1,0.2c0.1,0,0.1-0.1,0.2-0.1L648.9,296.5z"/>
			</g>
			<g>
				<path class="st2" d="M96.9,265.8c2.4,1.3,1.5,2.6,0,3.9C94.8,268.4,95,267.1,96.9,265.8z"/>
			</g>
			<g>
				<path class="st2" d="M60.3,254.8c-1.3,0-2.4-0.2-3-1.4c-1.3,0-2.4-0.2-3-1.4c-1.3,0-2.4-0.2-3.1-1.3c-1.2-0.1-2.4-0.3-3.1-1.4
					c-0.7-0.2-1.4-0.4-2.1-0.7c0.2-0.2,0.4-0.5,0.4-0.5c0.6,0.3,1.2,0.6,1.8,1c1.2,0,2.4,0.3,3,1.4c1.3,0,2.4,0.3,3,1.4
					c1.2,0,2.4,0.3,3,1.4C58.6,253.4,59.7,253.6,60.3,254.8c0.3,0.2,0.5,0.4,0.7,0.6C60.8,255.2,60.6,255,60.3,254.8z"/>
			</g>
			<g>
				<path class="st2" d="M89.9,274.9c-2.5,0-3-2-3.3-3.6c-0.6-3.2,2.3-4.3,5-4.9c2.2-0.5,2,1.4,2.2,2.6
					C94.2,271.8,93.4,274,89.9,274.9z"/>
			</g>
			<g>
				<path class="st2" d="M329.5,291.8c-0.2-0.3-0.4-0.5-0.5-0.8c0.3,0.2,0.6,0.3,0.9,0.5L329.5,291.8z"/>
			</g>
			<g>
				<path class="st3" d="M171.8,193.1c5.1,1.1,9.1,3.8,13.2,6.3c1.1,0.6,2,2.1,1,2.9c-4.3,3.3-5.2,8-7.5,12.2c-1,1.8-3,2.5-5.2,1.9
					c-2.9-0.8-4.9-2.5-4.9-5.3c0-4.3-0.1-8.6-1.9-12.6C164.2,193.5,167.9,193.2,171.8,193.1z"/>
			</g>
			<g>
				<path class="st3" d="M206.6,250.6c-4.4-2.7-1.5-7.9-5-10.9c3.3-1.4,6.2-4.1,10.3-2.4C211.7,242.3,206.4,245.6,206.6,250.6z"/>
			</g>
			<g>
				<path class="st2" d="M192.7,232.9c-5.6,1.1-11.1-2.4-16.8-0.3c-0.9,0.3-2.2,0-2.3-1.1c0-0.8,0.3-1.9,0.9-2.4
					C178,226.5,189.5,229,192.7,232.9C192.7,232.9,192.7,232.9,192.7,232.9z"/>
			</g>
			<g>
				<path class="st3" d="M186.7,236.9c4.2,0.9,8.1-0.5,12.1-1.5c-0.4,2.3-3.4,2.5-4.4,4.4c-4,2.6-8.4,1.1-12.7,1.1
					C178.4,234.6,186.7,239.8,186.7,236.9z"/>
			</g>
			<g>
				<g>
					<path class="st4" d="M305.8,266.5c-0.6-0.4-1.2-1-1.8-1.2c-6.3-1.7-9.9-5-11.2-11.1c-0.8-3.7-5.7-6.4-9.5-4.5
						c-6.8,3.3-7.2-1-10.2-4.3c-2.7-3-2.6-8.3-7.8-9.2c-8.9-1.5-17.6-3.2-25.3-7.8c-1.8-1.1-2.3,1-3.3,1.3c-4,1.4-7.4,8.6-12.6,1.5
						c-2.4,1.3,0.9,5.8-3.6,5.6c-3.6-0.2-3-3.7-4.2-5.8c-0.7-1.2-1.2-2.4-1.9-4c4.2-1.5,6.7,1.7,9.8,2.3c-1.1-5,1.2-6.2,6.7-6.1
						c7.9,0.1,13.9,5.1,21.5,5.6c3.2-3.2,4.8-6.8,4.5-11.1c-9.6-11.3-11.8-11.8-25.2-6.4c-4.6,1.9-9.1,3-12.2-2.5
						c-1.9-3.3-5.6-4.7-9.7-3.8c-8.9,2.1-13.2-2.2-16.7-8.6c-2.7-4.9-4.5-10.6-10.4-13.7c-4.9,1.1-9.7,2-14.6-0.7
						c-3.1-1.8-6.2-0.4-9.1,1.3c-2,1.2-4.4,1-6.3-0.6c-1-0.9-1.4-2-0.8-3.1c1.2-2.1,3.3-1.7,5.3-1.2c1.1,0.3,2,0.3,2.6-0.5
						c1-1.3-0.3-2-0.9-2.9c-2.4-3.5-5.9-2.7-9.3-1.8c-3.9,1-3.8,3-1.6,5.5c0.9,1,0.2,2.1-0.7,3.1c-2.7,2.9-1.9,4.9,2,6.1
						c2.3,0.7,4.8,1.6,2.7,4.2c-1.5,1.9-4.1,1.8-6,0.3c-1.7-1.4-3.2-2.7-6.6-2.7c1.8,3.7,5.3,7.8-2.4,8.1c-0.4,0-1.3,1-1.2,1.4
						c0.4,2.4,0.7,5.4-3,4.6c-4.5-0.9-0.4-3.7,0.3-5.6c-4.2-1.2-5.6,1.6-7.6,3.1c-1.8,1.4-3.3,3.2-2.2,5.4c1.3,2.6,3.5,0.2,5.3,0.3
						c8.6,0.5,16.4-1.9,24.5-7.5c-0.6,8.1,1.8,14.2,7.9,19.7c-6.2,0.9-11.2-0.2-14.4-3.2c-3-2.9,5.1-3.3,3.4-7.1
						c-7.5-3.2-13.3,11.1-22.4,1.2c1.1,5.7,0.7,9.8-5.7,11c-2.8,0.5-1.9,2.8-2.2,4.5c5.4,3.1,10.8,5.6,17.4,7
						c11.7,2.4,19,0.6,24.3-8.5c0.8-1.3,3.6-3.9,4.1-2.3c0.8,2.8,5.5,0.4,4.8,3.9c-1.1,5.6-3,10.5-9.8,12.4c0.2,0.1,0.4,0.2,0.6,0.3
						c5.3,2.5-3.7,3.6-0.7,5.6c2.3,1.5,5.7,2.1,7.3,3.9c1.3,1.5-1.2,3.3-3.1,3.7c-2.6,0.5-5.4,0.5-8.1,0.7c1.6,5.3-2.1,8.1-10.4,7.9
						c-1-1.8,3.1-2,1.5-3.6c-0.8-0.7-3.2-1-4.1-0.5c-3,1.9-5.8-0.7-8.6,0.2c-0.1,0.8-0.3,1.6-1.5,1.4c0,0,0-0.1,0-0.1
						c-2,1.8-4,2.2-5.9,0c-4-3.3-8.2-6.3-14.2-3.8c-1.6,4.1-5.5,1.8-8.4,2.3c-2.1,0.4-4,0.7-4.8,2.6c-0.7,1.9-0.5,3.6,2,4.4
						c2.9,1,1.9,3.3,2.2,5.2c2.7,0.8,6.9,0.9,2.5,4.8c-1.9,1.8-1.2,5.4-4.7,6.3c-0.8,0.8-1.5,1.6-2.3,2.3c1.1,2.4,2.8,4.2,6,4.4
						c0.3-0.2,0.5-0.3,0.8-0.5c-0.2,0.2-0.4,0.5-0.6,0.7c0.4,2.1-3.3,4.6-0.1,6.1c2.6,1.2,5.2-0.8,7-2.9c0.4-0.5,0.4-1.3,0.6-1.9
						c-4.6-2.7-0.7-6.2-2.1-10.9c6.5,5.8,13.2,1.2,18.9,3.8c1.2-0.3,2.3-0.6,3.5-0.9c-1.7-4.8,3.1-6.4,5.7-9c1-1,2.6-0.6,3.3,0.1
						c1.5,1.5-0.8,2.2-1.3,3.3c0.5,4.6-3.4,8-4.3,12.2c4.1,3.8,6.7-2.3,10.4-1.3c5.7-2.8,4.4-8.7,6.9-12.9c1.5-2.5,1.7-7.2,5-6.7
						c4.7,0.6,2,4.6,1.7,7.3c-0.1,0.8,0.6,1.7,0.7,2.6c0.2,2.1,0.7,4.1,3.4,4.8c3.8,1,2.9-2.4,4-3.8c2.2-2.7,3.8-5.7,6.2-8.2
						c1.5-1.6,2.3-2.4,4-0.9c8.4,7.1,17.5,2.7,26.4,1.4c7.8-1.1,16.6-7.7,21.6,3.7c0.1,0.1,0.5,0.1,0.7,0.2
						c7.8,3.6,15.5,7.4,23.3,10.9c2.5,1.1,5.3,2.8,7.7,2.5c6-0.7,10.9-0.9,14.6,4.6c1.4,2.1,5.6,1.7,8.5,0.7
						c1.1-0.4,1.2-1.5,0.9-2.3c-1.1-2.8-4-2.3-6.4-2.7c-0.3,0-0.5-0.5-0.9-1c3.2-0.2,6.2-0.4,9.7-0.6c-3.4-3.7-7.8-1.4-12.3-3.4
						c6.5,0,11.5-0.6,7.4-7.1l-0.1-0.1c-7.6,0.1-14.9-1.8-22.6-1.5c-4.2,0.1-8.3-1.8-12-3.9c-1.8-1-2.2-2.4-1.4-4.1
						c0.8-1.6,2.5-1.7,3.9-1.2c6.2,2.3,13.9-0.7,19.4,4.1c0.5,0.5,1.9,0.4,2.8,0.3c10.9-1.8,21.5-1.9,31.6,3.2
						c2.5,1.3,5.6,4.6,7.7,2C313,269.6,308.3,268.1,305.8,266.5z M243.7,213.8c2.9,0.6,5.1,2.2,5.2,5.3c0,2.4-1.2,4.7-4.2,4.5
						c-3.3-0.3-5-2.5-4.8-5.7C240.1,215.8,240,213.8,243.7,213.8z M117.3,257.3c3-0.3,3,1.7,1.1,2.2c-1.8,0.5-3.1,1.3-4.5,2.3
						C112.8,258.9,114.3,257.6,117.3,257.3z M119.8,269.6c0,0.2-0.1,0.4-0.1,0.7c0.2,3.4-1.6,5.5-5.2,6.4c-1.1,0.3-2,0-2.3-1.1
						c-0.7-3-0.5-5.8,3-7.5c0.3-3.1,2.8-4.8,5.5-3.5C124.1,266.1,121.5,268,119.8,269.6z M168.4,211.1c0-4.3-0.1-8.6-1.9-12.6
						c-2.2-4.9,1.4-5.3,5.3-5.4c5.1,1.1,9.1,3.8,13.2,6.3c1.1,0.6,2,2.1,1,2.9c-4.3,3.3-5.2,8-7.5,12.2c-1,1.8-3,2.5-5.2,1.9
						C170.5,215.7,168.4,213.9,168.4,211.1z M179.5,255.2c8.9,0.9,17.2,4.7,26.3,5.1C196.5,261.2,187.2,261.4,179.5,255.2z
						 M206.6,250.6c-5.3,4-10.4,3.2-15.7,0c-3-1.8-5.5-4.7-9.7-4.2c-1.6,0.2-6.2-1.9-3.2,2.9c0.8,1.4-1.6,1.1-2.6,1.2
						c-1.9,0.2-2.6-0.9-3.1-2.3c-0.6-1.4-1-2.6,1.2-3.1c3.2-0.8,5.9-2.3,8.5-4.2c-3.3-6.2,4.9-1.1,4.9-4c0.1-3.7,4.9-1.6,6-4
						c-5.6,1.1-11.1-2.4-16.8-0.3c-0.9,0.3-2.2,0-2.3-1.1c0-0.8,0.3-1.9,0.9-2.4c3.4-2.6,14.9-0.1,18.2,3.8
						c5.3-0.5,10.1-2.3,14.7-4.3c1.2-0.5,2.4-1.1,3.1,0.3c0.6,1.2-0.1,2.1-1.5,2.6c-3.4,1.3-6.8,2.7-10.2,4
						c-0.4,2.3-3.4,2.5-4.4,4.4c2.4-0.1,4.8-0.1,7.2-0.2c3.3-1.4,6.2-4.1,10.3-2.4C211.7,242.3,206.4,245.6,206.6,250.6z
						 M223.9,240.5c5.3,4.7,9.8,8.8,14.4,12.8C230.7,253.1,225.7,248.9,223.9,240.5z M247,256.8c-2.7-0.2-7.6,1.3-8.6-3.4
						c9.2-3.4,16.7,2.5,25.1,3.9C257.9,260.5,252.4,257.2,247,256.8z M262.6,253.6c-3.6,0.6-5.7-1.8-8.6-3.1c0.7-0.8,0.8-1,0.9-1
						c3.4-0.5,6.3,0.5,8.7,2.6C263.8,252.2,263.1,253.6,262.6,253.6z"/>
				</g>
			</g>
			<g>
				<path class="st3" d="M119.8,269.6c-1.5-0.5-3-1-4.5-1.5c0.3-3.1,2.8-4.8,5.5-3.5C124.1,266.1,121.5,268,119.8,269.6z"/>
			</g>
			<g>
				<path class="st3" d="M113.9,261.8c-1.1-2.9,0.4-4.3,3.3-4.5c3-0.3,3,1.7,1.1,2.2C116.6,260,115.3,260.8,113.9,261.8z"/>
			</g>
			<path class="st7" d="M105.9,286c0.3-0.2,0.5-0.3,0.8-0.5c-0.2,0.2-0.4,0.5-0.6,0.7C106.1,286.3,105.9,286,105.9,286z"/>
			<g>
				<path class="st3" d="M516.8,148.2c-3.6,2-5.2,5.4-7.5,8.3c-1.9,2.8-3.9,5.7-5.7,8.6c-1,1.6-2.6,3.1-3.8,1.5
					c-0.7-0.9-3.4-2.1-1.6-4.5c4.1-5.7,8.8-10.9,14.7-15.3C515.3,145,516.3,145.8,516.8,148.2z"/>
			</g>
			<g>
				<path class="st3" d="M585.6,171.8c-0.4-0.5-1.3-0.7-2-0.9c-4.3-1.2-5.2-3.4-4.7-7.6c0.7-6.4,5.2-12.3,3.2-19.1
					c-4.6,4.8-3.9,11.4-6.8,16.8c-0.9,1.6,0.1,7.6-5.6,3.3c-0.8-0.8-1.8-1.6-2.5-2.5c-1.4-2.1-6.7-5.3-9.2-5.4
					c-3.8,2.5-6.7,5.7-8.7,9.6c-0.6,1.2-1.5,2.7-3.1,2.1c-1.5-0.6-1-2.3-0.8-3.6c-3.1-0.4-2.4,1.7-2.3,3.1
					c1.3,10.9-4.7,20.3-7.7,30.2c-2.1,6.9-6.8,7.7-12.7,3.5c-0.4,3.5,2,8.1-1.9,10.2c-7,3.7,13.7,16.3,10.6,22.1l0.5,0.4
					c14.1-3.7,1.3-20.8,15.9-25.7c-1.5,4.2-1.7,7,3.3,7.3c0,0,0,0,0,0c0.5,0.4,1.1,0.8,1.6,1.2c0,2.3,20.5,9.3,18.8,9.8
					c-5.9,1.7-7.2,4.7-5.9,8.7c0.5,1.5,2.2,2.3,3.7,1.8c1-0.4,2-0.8,2.9-1.3c6.4-4.3,12.4-6.7,20.6-2.4c5.2,2.8,10.8,0.4,13.6-5
					c3.9-7.5-20.6-22.9-27.2-28.7c-2.6-2.2-5.2-4.4-4-8.1c-0.7-1.4-1.3-2.7-2-4.1c-0.8,1.4,0.6,3.9-2.2,4.3
					c-2.2,0.3-2.7-1.5-3.3-2.9c-0.7-1.5-1.5-2.8-3.2-3.4c-0.7,6.3,2.8,9.9,11.4,11.6c-7.9,2.2-11.4,5.3-11.1,11.9
					c0.2,3.7-4.9,1.4-7.6,2.1c0.4,0.8,1,1.5,1.3,2.4c0.8,1.9,24.4,10.5,22.1,11.6c-2.2,1.1-25.4-8.3-27.2-9c0,0,0,0,0,0
					c-0.6-0.4-1.2-0.7-1.8-1.1c0,0,0,0,0,0c0-2.8,2.5-3.4,4.7-4.2c-3.2-8-4.1-8.4-12-4.4c-1.3,0.7-2.8,1.1-4.1,1.7
					c-1.1,0.5-2.1,1.6-3.3,0.7c-1.4-1.1-0.7-2.5-0.1-3.7c1.8-3.7,3.7-7.4,5.6-11c-5-5.8,1.1-10.1,2.1-16.3
					c2.5,6.3-1.3,10.9-0.6,15.8c2.8,0.1-1,4.7,2.7,3.6c3.9-1.2,1.2-4.7,1.8-7.1c-0.3-7.2,1-14.2,4.4-20.7c2.2-4.2,5-5.7,7.9-0.4
					c1.5-0.1,3.1,0.1,4.4-0.4c5.8-2.3,6.1,0.8,5.9,4.6c8.3-2.5,9.7-1.5,8.8,6.4c0.9,2.1,4.9,1,5,4c3.1-1.3,7.1-2.1,7.5-5.7
					C593.1,173.6,587.6,174.2,585.6,171.8z M546.4,176.7c-0.1-0.2-0.4-0.3-0.4-0.5c0-0.2,0.3-0.3,0.4-0.4c0.1,0.2,0.4,0.3,0.4,0.5
					C546.8,176.4,546.5,176.5,546.4,176.7z"/>
			</g>
			<path class="st6" d="M530.3,235.1c-0.2,0.2-0.5,0.4-0.7,0.6C529.9,235.5,530.1,235.3,530.3,235.1
				C530.3,235.1,530.3,235.1,530.3,235.1z"/>
			<path class="st6" d="M532.1,234c-0.6,0.4-1.2,0.8-1.8,1.1c0,0-0.1-0.1-0.1-0.1c0.4-0.5,0.9-1,1.3-1.5
				C531.6,233.6,532.1,234,532.1,234z"/>
			<g>
				<path class="st3" d="M-61.4,211.1c4.6,1.3,8.1,2.2,9.7-4c1.5-5.9,6.6-1.1,10.1-1.2c3.2,1.3,5.5,4.3,9.5,3.8
					c1.8,2,2.6,4.7,0.2,5.9c-2.3,1.1-5.3-0.2-7-2.6c-0.7-1-1.2-3-3-2.4c-1.2,0.4-3,2.2-2.8,2.9c1,3.1-2,5.9-1.3,8.4
					c1.6,5.1-3.2,5-5.6,5.9c-4.1,1.6-5.3-1.5-6-4.6c-0.2-0.9-0.7-1.7-1.1-2.5c2.9-1.6,1.2-3.2,0.1-4.9c-1-1.6-3.6-2.5-2.8-4.9
					L-61.4,211.1z"/>
			</g>
			<path class="st5" d="M536.6,134.9c-0.1,0.5-0.3,0.8-0.8,1.1C536.1,135.7,536.4,135.3,536.6,134.9z"/>
			<g>
				<path class="st4" d="M564.7,185.5c-0.7,6.3,2.8,9.9,11.4,11.6c-7.9,2.2-11.4,5.3-11.1,11.9c0.2,3.7-4.9,1.4-7.6,2.1
					c-0.3,0-0.6-0.1-0.8-0.3c-3.2-8-4.1-8.4-12-4.4c-1.3,0.7-2.8,1.1-4.1,1.7c-1.1,0.5-2.1,1.6-3.3,0.7c-1.4-1.1-0.7-2.5-0.1-3.7
					c1.8-3.7,3.7-7.4,5.6-11c0.5-0.2,1-0.4,1.5-0.5c2.8,0.1-1,4.7,2.7,3.6c3.9-1.2,1.2-4.7,1.8-7.1c3.8-2.5,2.1-6.6,3.3-9.8
					c2.2,0.3,0.5,3.5,3,3.2c2.1-0.3,1.1-2.1,1.4-3.3c1-3.9,2-7.8,4.6-11.2c1.5-0.1,3.1,0.1,4.4-0.4c5.8-2.3,6.1,0.8,5.9,4.6
					c-0.3,0.4-0.6,0.7-1.1,0.9c-3,3-6.7,5.8-5.7,10.5C564.7,184.8,564.8,185.1,564.7,185.5z"/>
			</g>
			<g>
				<g>
					<path class="st3" d="M119.9,138.5c-2.2-2-4.7-3.7-7.9-4.1c-5,0.1-11.1,1.1-7.6-6.6c-3.4-4.9-9-8-12.4-13.2
						c-2.3-3.5-7.3-2.8-9.3,0.9c-2.1,4-2.2,8.8,3.6,10.9c3.3,1.2,5.3,3,6.9,5.7c1.9,3.2,4.7,5.9,8.1,7.9c5.1-3.4,6.6,3.3,10.6,3.1
						c1.4,5,4.4,8.9,9.1,11.8c-1.5-3.9-3-7.8-4.5-11.7C117.7,141.6,118.8,140,119.9,138.5z"/>
				</g>
				<g>
					<path class="st3" d="M121.3,155c-0.1,0-0.1-0.1-0.2-0.2c0,0.1,0.1,0.2,0.1,0.3L121.3,155z"/>
				</g>
			</g>
			<g>
				<path class="st4" d="M139,166c-6.8-1.7-6.6-6-5.7-10.6c0.9-4.9,5.1-4.8,9.3-4.4c-8.4-2.9-15.4-7.9-22.7-12.4
					c-1.1,1.6-2.3,3.1-3.4,4.7c1.5,3.9,3,7.8,4.5,11.7c-4.7-2.9-7.7-6.8-9.1-11.8c-4,0.2-5.5-6.5-10.6-3.1c2.4,2.5,5.5,4.8,7,7.7
					c2.8,5.2,7.4,10.4,3.4,16.8c1.2,1.8,2.5,3.7,1.7,6c0.2,5.5,2.9,6.9,8,3.7c3.5-2.1,7.2-2.9,11.3-2.4c1.2,0.1,2.6-0.1,3.6,0.3
					c3.3,1.3,7.2,0.1,8-1.7C145.6,167.3,141.2,166.5,139,166z"/>
			</g>
			<g>
				<path class="st3" d="M71.1,186.4c-3.3,2.4-6.6,4.3-10.6,1c-1-6.6-4.8-9.8-13.1-7.7c5.1-4,9.9-1.7,14.7-1.3
					c2.6,0.8,5.2,1.7,7.8,2.5C68.2,183,70.2,184.6,71.1,186.4z"/>
			</g>
			<g>
				<path class="st4" d="M72.2,176.9c-0.3-0.4-0.7-0.8-1-1.2c-1.8-6-5.4-7.8-11-5.4c-1.1,0.5-2.2,1.2-3.4,0.4
					c-1.9-1.3-0.5-2.8-0.1-4.2c-2.3-1.8-3.8-5.8-7.7-0.9c-1.8,2.4-3.1-0.4-3.5-2c-0.5-2,0.5-4.8-3.6-4.4c-0.5,0.9-1,1.8-1.6,2.7
					c0,1.1-0.1,2.2-0.1,3.3c1.4,10.9,9.8,11,19.1,9.9c1.4-0.2,3,0.2,4.4,0.4c-0.6,0.9-1.2,1.8-1.7,2.8c2.6,0.8,5.2,1.7,7.8,2.5
					c0.8-0.1,1.5-0.2,2.3-0.2c3.6,0.2,7.1,0.4,10.7,0.6c1.8-0.5,4.4,0.1,4.4-2.7C82.5,176.5,78,171.1,72.2,176.9z"/>
			</g>
			<g>
				<g>
					<path class="st3" d="M-70.6,122c-0.2-1.5-1-2.6-2.9-2.5c-4,0.2-7.7-1-12.7-2.1c5.3-2.7,4.3-5.3,1.6-8c-2-1.9-3.5-3.9-2.3-6.6
						c-0.3-0.8-0.6-1.7-0.9-2.5c-0.3-0.3-0.6-0.7-0.8-1c-0.4-1.4-0.5-2.9-2.4-3.5l-0.1-0.1l0-0.6c0,0-0.6-0.3-0.6-0.3
						c-0.2,0.3-0.4,0.6-0.7,0.9c0.2-0.3,0.4-0.6,0.7-0.9c-1.7-4.6-3.3-9.1-5-13.7c-1.7-6-4.8-11.1-11.3-13.9
						c-4.2-3.2-6.2-7.3-7.6-12c-1.6-5.4-4-10.6-10.9-12.5v0c0,0,0,0,0,0c0,0,0,0,0,0c0,0.1,0,0.1,0,0.2c-0.5-0.5-1.1-1-1.6-1.5
						c0,0,0.1,0.2,0.1,0.2c-0.5-0.3-1-0.7-1.4-1c-2.1-0.3-4.1-2.1-6.3-0.3c-0.5,0-0.9-0.1-1.4-0.2c-6.7-7.7-14-14.1-26-8.2
						c-1.3-3.3-5.7-2.9-7.9-5.2c-2.2-0.7-4.4-1.4-6.6-2.1c-0.3,0.4-0.6,0.7-0.9,0.9c0.3-0.3,0.6-0.6,0.9-0.9c-1.9-2.1-4-4-5.8-6.2
						c-2.2-2.7-4.2-5.2-8.5-3.9h0c-6.3,0.9-8.8,3.5-5.5,9.1c0.8,1.3,0.7,3,1,4.5c1.1,0.4,2.3,0.7,3.4,0.8c-1.2-0.2-2.3-0.4-3.4-0.8
						c4.2,6.2,10.7,3.9,16.6,3.7c2.5,0.7,5.7-1.1,7.5,1.8c0.2-0.1,0.4-0.2,0.6-0.4c-0.2,0.1-0.3,0.2-0.6,0.4c3.1,2.4,6.1,5,10.8,3.8
						c0.6,0.6,1.2,1.2,1.8,1.8c1.6,5.8,6.9,6.5,12,5.7c4.1-0.6,7.9-0.5,11.8-0.2c0.5,0.5,1,0.9,1.5,1.4c2.5,10.7,9.6,18.8,18.4,25.8
						v0c1.5,2.2,2.9,4.3,4.4,6.5c-3.7,9.7,1.6,16.2,9.3,22c0.8,3.1,1,6.4,2.4,9.2c2.1,4.2,0.8,9.8,6.1,12.8c5-0.1,10.1-0.7,14.7,1.9
						c1.9,1,3.8,0.7,5.8,0C-72.1,123.8-70.3,124.1-70.6,122z M-181.2,29.4c-0.4,0-0.9,0-1.4-0.1C-182.1,29.3-181.6,29.3-181.2,29.4
						s0.8,0.1,1.1,0.3C-180.4,29.5-180.8,29.4-181.2,29.4z M-182.1,26.2c-0.4-0.2-0.7-0.5-1-0.9C-182.8,25.7-182.4,26-182.1,26.2
						c0.9,0.5,1.9,0.4,2.9-0.3C-180.2,26.6-181.2,26.7-182.1,26.2z M-113.1,68.3C-113.1,68.4-113.1,68.4-113.1,68.3
						C-113.1,68.4-113.1,68.4-113.1,68.3z M-113.1,68.6c0,0.2,0,0.5,0.1,0.7c0,0.1,0,0.2,0,0.4c0-0.1,0-0.2,0-0.4
						C-113,69.1-113.1,68.9-113.1,68.6z M-115.3,70.7c0.6-0.4,1.4-0.5,2.2-0.6c0-0.1,0.1-0.1,0.1-0.2c0,0.1,0,0.1-0.1,0.2
						C-113.9,70.3-114.7,70.4-115.3,70.7z"/>
				</g>
			</g>
			<g>
				<path class="st3" d="M618.6,102.1c-2.9-3.7-4-6.4-1.8-9.1c0.9-1.1,3.1-1,4,0.2C623.2,96.3,620.2,98.4,618.6,102.1z"/>
			</g>
			<g>
				<path class="st3" d="M354.5,139.1c-0.6-2.2-2.4-3.5-5-3.2c-4.7,0.7-6.3,4-7.3,7.7c-0.1,0.2,0,0.4,0,0.7
					c-0.8,3.1-3.3,5.8-3.2,9.2c-7.4,9.8-14.3,19.9-20.3,30.5c-3,0.8-4,3.4-5.4,5.4c-3.7,5.7-7.6,11.2-12.8,15.9
					c-5.1,2.7-8.7,6.9-11.5,11.4c-2.7,4.3-6.4,5.7-11.8,5.4c-7.2-0.3-13.5-3.2-20.4-4.5c0.3,4.3-1.4,8-4.5,11.1
					c4.3,3.2,10.2,1.8,14.8,4c6.5-7.5,7.8-7.6,12.3,0.3c2,3.6,3.3,4.1,7.1,1.4c4.3-3,9.5-5,14.3-7.4c3.7-1.9,6.7-4,6.2-8.5
					c-0.4-3.5,3.1-4.1,5.6-4.7c1.3-0.3,5.4,0.3,2.8,2.6c-7.9,7-2.4,12.1,2.2,17.5c0.7,0.8,0.8,2.1,1.1,3.1c1,0.5,2,1,3,1.6
					c3.4-1.7,8.8,2.3,11-3.1c-3.1,0.1-6.4,0.6-9.1-1.4c-1.4-0.5-1.6-1.3-0.7-2.4c0-1,0-2.1-0.1-3.1c-1.8-0.7-2.5-1.7-2.7-2.8
					c0-0.2,0-0.3,0-0.5c0,0.2,0,0.3,0,0.5c0.1,1.1,0.8,2,2.7,2.8c1.4-4.5,2.2-9.1,2.9-13.8c1.3-7.9-0.4-16.4,4.8-23.7
					c5.5-10.3,12.4-20.1,15.5-31.3c1-3.8,1.2-6.8,5.9-9.1C356.7,148.4,355.7,143.3,354.5,139.1z M317.4,207.2
					c-0.2-0.2-0.5-0.3-0.8-0.3C316.9,207,317.2,207.1,317.4,207.2C317.4,207.2,317.4,207.2,317.4,207.2z M319.2,187.2
					c-0.3-0.7-0.5-1.5-0.5-2.3C318.7,185.7,318.9,186.5,319.2,187.2z M318,203.9c0-0.3-0.1-0.6-0.3-0.9
					C317.9,203.3,318,203.6,318,203.9z M317.9,204.7c-0.3,0.7-1.1,1.3-1.6,2C316.8,206,317.6,205.4,317.9,204.7z M312.9,206.9
					c-0.3,0-0.6-0.1-0.9-0.2C312.3,206.8,312.6,206.8,312.9,206.9z M305.6,208.5c-0.2,0-0.3-0.1-0.5-0.1
					C305.3,208.4,305.4,208.5,305.6,208.5z M324.7,189.5c0.1,0.3,0.2,0.6,0.2,1.1C324.9,190.1,324.8,189.8,324.7,189.5z"/>
			</g>
			<path class="st6" d="M623.3,87.7c0.4,0.6,0.8,1.2,1.2,1.8C623.4,89.3,623.1,88.6,623.3,87.7z"/>
			<g>
				<path class="st3" d="M37.4,139.9c1.7,0.7,1.6,2.1,1.7,3.4C37.9,142.5,35.5,142.1,37.4,139.9z"/>
			</g>
			<g>
				<path class="st3" d="M69.7,213.6c8.9,2.5,18,3.3,27.3,2.8c4.4,3.3,3.9,6-1.2,8.1c-6.7,2.7-12.9,6.4-20.5,7
					c-1.7,0.1-4.4,0.6-4.9-0.9c-2.6-7.3-9.1-5.8-15-5.8c-1.8,0-4,0-4.7-1.6c-2.3-5.5-6.9-4.8-11.7-3.9c-0.4-8.9,2.2-10.8,14.3-10
					c-0.8,3.1-5.4,3.4-5.8,7.2c5.5-1.5,10.3-0.8,15.2,2c4.5,2.5,7.1,0.5,6.5-4.3L69.7,213.6z"/>
			</g>
			<g>
				<path class="st3" d="M17.6,189.2c6.2,0.6,12.8,7.9,10.4,12.9c-2.7,5.8-3.6,9.4,4.6,11.3c2.6,0.6,1.8,5.9,6.4,5.7
					c-3.2,3-9.5,1.2-11.7,6.1c-0.6,1.3-3.5,0.6-3.7-0.6c-0.6-4.4-5.4-7.7-3.4-12.7c1.5-3.7,1.2-7.2-4.4-8.2c-1.9,1.5-1.3,3.6-0.8,5
					c2.2,6.5-3.4,8.5-7.9,9.8c-2.9,0.8-6-1.7-6-5.4c0.1-4.5,0.1-9,0.1-13.5c3.6,2.7,2.6,8.1,7.5,10c5.6,1.8,4.2-1.2,3.2-3.8
					c0.2-7.3,0.3-7.2,5.5-14C17.9,191.1,17.6,190,17.6,189.2z"/>
			</g>
			<g>
				<path class="st3" d="M536.9,163.2c-2.8,0.4-3.5,4.6-7.3,3.5c0.4-2.1,3.4-2.8,3.3-5.3c-5,1.4-9,5.2-14.6,4.5
					c-0.8-4.3-1.9-1.5-3-0.1c-9.8,12.1-16.3,25.6-21.2,39.8c-0.9,2.6-2.2,4.9-5,5.2c-2.7,0.3-1.4-2.9-2.7-4.2
					c-1.4,2.9-2.9,5.7-4.1,8.6c-0.9,2.1-2,4.8,0.5,6.2c2.1,1.1,4.2-0.9,5.9-2.2c1.5-1.2,3.8-1.9,4.9-3c5.4-5.7,14.4-7.7,17.8-15.6
					c1.7-3.9,4-8.6,9.3-11.5c0.4,4.6-2.7,7.7-3.4,11.2c1.5,0.9,2.1-0.1,2.8-0.6c1.1-0.7,1.8,0.2,2.6,0.6c6.3-11.7,3.3-27,17.1-35.9
					C538.5,164.6,537.4,164.5,536.9,163.2z M513,189.5c-0.4,1.9-2,3.1-4.1,3.5c-1.5,0.3-2.4-0.4-2.3-1.8c0.1-2.1,1.9-2.9,3.4-3.8
					C511.4,188.2,513.3,188,513,189.5z M524.5,178.8c-2.6,1.1-1.8,4.1-4.6,5.2c-3.2-3.6,0.3-6,2.1-8.6c0.7-0.9,1.7-0.3,2.3,0.6
					C524.9,176.9,526.1,178.2,524.5,178.8z"/>
			</g>
			<g>
				<path class="st4" d="M113.7,207.9c0-2.1-0.4-4.6-2.1-5.5c-5.8-2.9-3.4-7.7-4.1-11.8c-0.6-0.9-1.1-1.8-1.7-2.6l-0.1,0
					c-1.2,0-2.2-0.3-2.8-1.4c-1,0.1-2,0.3-2.9,0.4c-4.8,2.8-2,8.9-6.3,12c3.4,3.8,3.1,8.2,2.1,12.4c-0.5,2-0.2,3.5,1.2,4.9
					c4.4,3.3,3.9,6-1.2,8.1c-6.7,2.7-12.9,6.4-20.5,7c-1.7,0.1-4.4,0.6-4.9-0.9c-2.6-7.3-9.1-5.8-15-5.8c-1.8,0-4,0-4.7-1.6
					c-2.3-5.5-6.9-4.8-11.7-3.9c0,0,0,0,0,0c-3.2,3-9.5,1.2-11.7,6.1c-0.6,1.3-3.5,0.6-3.7-0.6c-0.6-4.4-5.4-7.7-3.4-12.7
					c1.5-3.7,1.2-7.2-4.4-8.2c-1.9,1.5-1.3,3.6-0.8,5c2.2,6.5-3.4,8.5-7.9,9.8c-2.9,0.8-6-1.7-6-5.4c0.1-4.5,0.1-9,0.1-13.5
					c-2.8-7.3-6.4-14.3-10.5-21c-1-1.6-2.7-3.3-1.2-4.9c1.8-1.8,3.3,1.3,5.3,1c6.7-3.4,9.2,1.2,12,5.1c1.1,1.6,2.4,3,4.8,3
					c0,0-0.1-0.5-0.1-0.5c0-0.1,0-0.1,0.1-0.2c0,0.1,0,0.1-0.1,0.2c7,4,14.5,6.1,22.9,5.7c-0.5-0.9-1-1.9-1.6-2.8
					c-2.6-3.2-8.6,0.7-10.5-4.1c2.8-0.1,5.6-0.3,8.5-0.4c-10.1-7.6-22.4-9.9-34.1-13.4c-5.5-0.8-11.3,2-16.5-1.4
					c-1.1,0.4-2.2,0.9-3.3,1.1c1.1-0.3,2.2-0.8,3.3-1.1c-2.4-2.7-3.7-6.4-8.6-7c-2.5-0.3-2.7-3-2.5-5.1c2.3-0.5,4.6-1,6.9-1.5
					c-3.1-2-4.2-5.2-5.6-8.2c-2.6,2.2-1.1,5-1.5,7.6c-0.5-0.2-0.9-0.3-1.4-0.2c-6.9-6.2-13.8-12.3-20.2-18.9
					c-2.3-2.3-7.6-5.7-10.5-2.6c-2.9,3.1,0.5,6.9,4.4,9c1,0.1,2,0.2,2.9,0.3c0.1-0.6,0.1-1.2,0.2-1.8c-1.1-0.3-2.5-0.4-2.4-1.8
					c0-0.3,0.5-0.7,0.8-0.8c1.6-0.1,1.7,1.1,2.1,2.1c2.6,0.5,4.2,1.8,4.5,4.2c1.8,1.8,3.6,3.7,5.4,5.5c2.6,0,3.2,1.5,3.3,3.4
					c-0.5,0.6-1.1,1.2-1.6,1.8c0,0,0,0,0,0c-0.4,0.1-0.8,0.2-1.1,0.3c0.1,0.8,0.5,1.3,1.5,1.2c0,0-0.2,0.1-0.2,0.1
					c4.4,2.6,10,4,11.1,9.7c1.9,1.3,3.9,2.5,5.8,3.8c0.3,1.4,0.7,2.8,1,4.2c9.9,1.4,15.7,11.2,11,18.6c1.2,11.1,6.5,21.3,9.4,32
					c1.2,4.5,1.4,9.8,6.4,13.8c1.6-3.5,0.6-8.2,5.1-8.9c4.8-0.8,7.8,2.4,10.1,5.9c0.1,0.2,0.3,0.3,0.5,0.5
					c3.6,3.8,17.6,3.2,20.2-1.3c2.5-4.4,5-3.6,8-1c1.5,1.2,2.5,3.2,4.6,3.3c8.4,0.4,14.6,5.2,21.8,8.1c6.5,2.6,5.9,8.1,4.9,12.8
					c-1,5.1-5.4,0.2-8,1.1c-1.2,0.4-2.9-0.6-4.4,1.3c8.1,1.8,16,3.5,24.6,5.3c-7-7.6-6.9-19.4,5.3-22.8c2.3-0.6,5.5,0,6.3-2.8
					c1.5-5,4.5-9,8.6-12.5c4.5-3.2,1.3-8.8,4.5-12.4c0-0.7,0.1-1.4,0.1-2.1C113.7,209.4,113.7,208.7,113.7,207.9z M11.9,179.8
					c0.3,0.2,0.4,0.5,0.2,0.8c-0.4-0.1-0.9-0.1-1.3-0.2C11.1,180.2,11.5,180,11.9,179.8z"/>
			</g>
			<g>
				<path class="st4" d="M557.6,116.6c-7.1,5.8-15.9,10.1-20.7,18.1c0,0-0.3,0.3-0.3,0.3c-0.1,0.5-0.3,0.8-0.8,1.1
					c-4.2,3.9-8.3,7.8-12.6,11.6c-1.5,1.3-3.2,3.4-5.6,0.9c2.2-3.2,2.1-7.8,6.5-9.8c-0.7-1.8-1.4-3.7-2.1-5.5c2-0.7,3.2-2.1,3.9-3.9
					c-0.2-0.2-0.5-0.5-0.7-0.7c-1.7,1.2-3.5,2.5-3.6,4.7c-4.2,4.6-8.7,8.5-15.8,9.5c-5,0.7-7.7,4.6-8.4,8.6
					c-1,5.7-3.6,10.8-6.1,15.9c3.5,1.1,2.5,4.2,3.3,6.4c1.1,2.8,1,5.8-4,3c-3.2-1.8-5,0-6.1,2.6c-2.8,6.4-3.1,13.7-8.2,19.4
					c-1.4,1.6-0.6,3.2,0.9,4.8c2.2,2.4,1.7,5.2-0.9,7.3c-4.1,3.2-3.4-1.6-4.7-2.6c-2.1-1.6-3.8-0.5-5.5,0.3c-2.2,1-3.8,3-6.7,2.7
					c-3.4,7.1-5.4,14.9-10.9,21.2c0,0,0,0,0,0c-4.2,0.8-8.7,0.8-12.4,3.3c-21.2,2.1-39,12.6-58.6,18.8c2.5,0.4,4.8,0.6,6.2,3.2
					c1.9,3.6,5.5,4.1,9.6,3.4c8.8-1.4,14.1,1.6,16.3,9.5c2.9-1.7,3.4-4.6,3.7-7.1c0.5-3.7,3-6.1,4.9-9c1.1-1.7,2.9-2.6,5.1-2.1
					c3,0.8,1.7,2.7,1.2,4.4c-0.7,2.2-0.1,4.3,2.8,2.5c5.6-3.4,11.6-6.5,15-12.1c4.3-2.3,4.7-6.6,6.8-10.1c4.2-1.7,9.4-2.1,10.3-7.7
					c0.4-2.4,3-2,4.9-1.7c2.4,0.4,2.8,2.4,1.8,3.7c-4.7,5.8,0.1,9.4,3.5,13.2c3.2,3.6,5.3,6.9,3.7,12.2c-1.1,3.6-4.5,6.6-3.7,10.7
					c-0.7,2-1.4,3.9-2.1,5.9c2.6,0.6,5.5,0.3,7.5,2.8c-3.2,2.2-6.4,4.3-9.5,6.5c-1,0.7-1.9,1.8-1,2.9c0.5,0.6,1.5,1.2,2.4,1.3
					c7,0.9,13.8,2.4,20.9,2.9c6.2,0.5,6.8-4.6,9.4-5c4.2-0.6,8.3,0.6,9.9-4.4c0.7-2.2,23.9,2,24.6-0.2c3.3-9.5,6.5-19.1,16.7-24.8
					c0.4-0.1,0.8-0.2,1.2-0.1c-1.4-6.4,2.2-9.9,8.1-12.8c2.4-1.2,5.6-1.1,7.8-2.7c1.1-0.8,1.4-2.3,0.8-3.5c-2-4.5-1-8,5.4-9.8
					c1.7-0.5-18.8-7.4-18.8-9.7c-0.5-0.5-0.9-0.8-1.4-1.3c-5.2-0.1-5-3-3.5-7.3c-14.4,4.8-1.6,21.6-15.3,25.5
					c-0.6,0.3-1.5,0.8-2.1,1.1c-0.3,0.3-0.6,0.5-0.9,0.8c0.3-0.3,0.5-0.5,0.8-0.8c0.5-0.6,1.2-1.7,1.7-2.3
					c2.8-5.5-17.8-17.6-11.1-21.1c3.9-2.1,1.5-6.7,1.9-10.2c0-0.3,0-0.6-0.1-0.9c-0.8-0.4-1.6-1.3-2.6-0.6c-0.8,0.5-1.3,1.4-2.8,0.6
					c0.7-3.5,3.8-6.6,3.4-11.2c-5.3,2.9-7.6,7.6-9.3,11.5c-3.4,7.9-12.4,9.9-17.8,15.6c-1.1,1.1-3.3,1.8-4.9,3
					c-1.7,1.3-3.8,3.4-5.9,2.2c-2.5-1.4-1.4-4.1-0.5-6.2c1.3-3,2.8-5.8,4.2-8.7c-0.3-1.4-0.5-2.8-0.7-4.3c-1.1-1-0.3-1.7,1.6-2.3
					c0.3-0.3,0.5-0.7,0.6-1.1c-0.1-3.4-1.7-7.5,4.3-8.5l0.1,0c0.2-1.9,1.2-2.8,3.4-2.4c0.6-0.4,1.5-0.6,1.9-1.1
					c6.9-9.6,8.7-22,20.3-28.9c0,0,0,0,0,0c1.2-0.4,1.2-2.9,3.4-1.7l0,0c-1.1-1.6,0.5-2,1.4-2.7c5.1,1.3,11.7-2.8,15.4-9.5
					c5.2,1.2,7.8-4.9,13.3-3.8c-0.8,2.6-2.9,4-4.7,5.5c-2.8,2.4,2.4,4.7,0,7.1c2,1.4,3.2-0.5,4.7-1c-0.3-1.7,1.4-2.5,2.2-3.7
					c-0.6-1.3-3.9-1.5-1.3-4c2.3-2.2,4-5,5.9-7.5c-1.5-0.8-3-1.6-4.5-2.3c-3.2,1.3-6.5,2.6-9.7,3.9c-1.3-1.7-2.7-3.1-4.8-3.6
					c2,0.4,3.5,1.8,4.7,3.4c5.2-2,4.6-1.8,9.8-3.8c-0.1-1.3-0.3-2.5-0.4-3.8c0.7-4.8,7.7-6,8-11.1c0.4-0.3,0.8-0.7,1.2-1
					C562.2,115.1,560,114.6,557.6,116.6z M510.3,158.3c0.7,0.7,1.6,0.7,2.6,0.4C511.9,159,511.1,159,510.3,158.3z M509.3,156.6
					C509.3,156.6,509.3,156.6,509.3,156.6c-1.9,2.8-3.9,5.7-5.7,8.6c-1,1.6-2.6,3.1-3.8,1.5c-0.7-0.9-3.4-2.1-1.6-4.5
					c4.1-5.7,8.8-10.9,14.7-15.3c2.5-1.8,3.5-1,4,1.4C513.2,150.2,511.6,153.7,509.3,156.6z M538,144C538,144,538,144,538,144
					C538,144,538,144,538,144C538,144,538,144,538,144z"/>
			</g>
			<g>
				<path class="st3" d="M570.3,174c0.9,4.8-1.5,8.1-5.7,10.5C563.6,179.7,567.3,177,570.3,174z"/>
			</g>
		</g>
	</g>
</g>
</svg>
