<?xml version="1.0" encoding="utf-8"?>
<!-- Generator: Adobe Illustrator 23.0.0, SVG Export Plug-In . SVG Version: 6.00 Build 0)  -->
<svg version="1.1" id="Capa_1" xmlns="http://www.w3.org/2000/svg" xmlns:xlink="http://www.w3.org/1999/xlink" x="0px" y="0px"
	 viewBox="0 0 573.4 199" style="enable-background:new 0 0 573.4 199;" xml:space="preserve">
<style type="text/css">
	.st0{fill:#FFFFFF;}
</style>
<path class="st0" d="M291.2,51.5c0.2,0.2,0.4,0.4,0.6,0.6C291.6,51.9,291.4,51.7,291.2,51.5c0-0.5-0.2-0.9-0.7-1.1c0,0,0,0,0,0
	C291,50.6,291.2,51,291.2,51.5z"/>
<path class="st0" d="M291.8,52.1L291.8,52.1C291.7,52.1,291.8,52.1,291.8,52.1z"/>
<path d="M-3.6,44.1c0,0.6,0,1.2,0,1.8c0,0.8,0,1.6,0,2.4c2.4,0.2,4.3,1.8,6,3.3c3.8,3.3,7.7,4,12.3,1.9c6.4-2.8,11.4-0.7,14.9,5.6
	c2.6,4.8,3.4,10,3.7,15.4c0.9,13,10,21,22.3,19.1c2.8-0.4,5.5-1.2,8.2-1.9c9.8-2.4,17.8,1.5,22.3,10.9c1.4,3,2.6,6,4,9
	c2,4.3,4.4,8.3,8,11.4c4.8,4.2,9.7,4.4,14.8,0.7c4-2.9,6.7-6.9,8.4-11.6c1.1-3.2,2.2-6.5,3.7-9.5c2.6-5.4,7-7.5,13-6.8
	c5.6,0.7,9.7,4.5,11,10c0.6,2.4,0.4,4.8,0.6,7.2c1.6,18.2,0.7,18.2-5.1,35.7c-1.5,4.6-2.8,9.2-4,13.9c-2.8,11.9-0.4,22.4,8.3,31
	c7.5,7.3,17.5,7.1,24.9-0.3c5.5-5.5,7-12.4,6.7-19.9c-0.2-5.5-1.6-10.9-3-16.2c-2.9-10.4-5.7-20.7-6.8-31.5c-0.3-3-0.6-3.9-0.8-4.1
	c0.2-0.1,0.7-0.9,1.7-4c2.8-9.1,10.7-11.2,17.3-4.5c2,2,3.6,4.4,5.3,6.8c2.8,3.9,6.4,6.3,10.9,7.4c7.5,1.8,15.1,1.7,22.3-0.6
	c9.5-3,18.2-23.7,22.6-32.9c2-4.1,3.5-8.5,5.4-12.7c2.4-5.6,4.9-11.2,9-15.8c5.8-6.5,13.5-7.9,21.1-3.9c2.4,1.3,4.6,3,6.6,4.9
	c2,1.9,3.9,3.9,6,5.6c11.5,9.8,20.9,8.5,29.6-4.2c1.5-2.1,2.7-4.4,4-6.6c1.4-2.4,2.8-4.8,4.6-6.9c2.7-3.2,6-5.3,10-6.3
	c9.8-2.4,20,2.1,25.3,11.3c2.3,3.9,3.7,8.2,5.2,12.4c1.5,4.3,3,8.7,5.5,12.6c6.9,10.6,20.4,11.9,29,2.9c2.9-3,5-6.6,7-10.3
	c2.4-4.6,5.5-8.5,9.8-11.3c6.3-4.2,12.8-3.6,18.3,1.6c1.1,1,2.1,2.1,3.2,3.1c4.7,4.2,9.7,4.4,14.7,0.5c0,0,0.1-0.1,0.1-0.1
	c1.5-1.1,3-2.2,4.5-3.2c8-5.1,16.2-2.7,20.4,6c2.6,5.5,3.4,11.3,2.7,17.3c-0.5,3.8-1.8,7.4-2.8,11.1c-3.1,11.1-1.3,21.1,5.6,30.2
	c2.5,3.3,5.9,5.5,10,6.2c10.4,1.6,20.2-5.2,23-15.8c1.4-5.4,1.2-10.8,0.2-16.2c-1.4-7.4-3.2-14.7-4.6-22.1
	c-1.2-6.3-1.1-12.6,1.5-18.7c3.5-8.2,15.4-10.4,20-2.8c0.4,0.7,1,1.2,1.5,1.8c4,3.9,12.7,5,16.3,0.7c8.4-8.8,11-7.3,11.8-65.1H-3
	c0,13.5,0,26.9,0,40.4C-3,41.6-2.5,43-3.6,44.1z"/>
<path class="st0" d="M0.1,36c0,0-0.1,0-0.1-0.1c0.1,0.1,0.1,0.1,0.2,0.2C0.2,36.1,0.2,36.1,0.1,36z"/>
</svg>
