<?xml version="1.0" encoding="utf-8"?>
<!-- Generator: Adobe Illustrator 23.0.0, SVG Export Plug-In . SVG Version: 6.00 Build 0)  -->
<svg version="1.1" id="Capa_1" xmlns="http://www.w3.org/2000/svg" xmlns:xlink="http://www.w3.org/1999/xlink" x="0px" y="0px"
	 viewBox="0 0 573.4 199" style="enable-background:new 0 0 573.4 199;" xml:space="preserve">
<style type="text/css">
	.st0{fill:none;}
	.st1{fill:#754F44;}
</style>
<g>
	<path class="st0" d="M561.4,65.1c-3.6,4.3-12.2,3.2-16.2-0.7c-0.6-0.6-1.1-1.1-1.5-1.8c-4.5-7.6-16.3-5.4-19.8,2.8
		c-2.6,6.1-2.7,12.4-1.5,18.7c1.3,7.4,3.1,14.7,4.5,22.1c1,5.4,1.2,10.8-0.2,16.2c-2.7,10.6-12.4,17.4-22.7,15.8
		c-4.1-0.6-7.4-2.8-9.9-6.2c-6.8-9-8.6-19.1-5.5-30.2c1-3.7,2.3-7.2,2.8-11.1c0.8-6.1-0.1-11.9-2.7-17.3c-4.2-8.7-12.3-11.1-20.2-6
		c-1.5,1-3,2.1-4.5,3.2c0,0-0.1,0.1-0.1,0.1c-5,3.9-9.9,3.7-14.6-0.5c-1.1-1-2.1-2.1-3.2-3.1c-5.5-5.2-11.9-5.8-18.1-1.6
		c-4.2,2.8-7.3,6.8-9.7,11.3c-2,3.7-4.1,7.3-7,10.3c-8.5,9-22,7.6-28.8-2.9c-2.5-3.9-4-8.2-5.5-12.6c-1.5-4.3-2.9-8.5-5.2-12.4
		c-5.3-9.2-15.4-13.7-25.1-11.3c-3.9,1-7.2,3.1-9.9,6.3c-1.8,2.1-3.2,4.5-4.6,6.9c-1.3,2.2-2.5,4.5-4,6.6
		c-8.6,12.7-17.9,14-29.3,4.2c-2.1-1.8-4-3.7-6-5.6c-2-1.9-4.1-3.6-6.5-4.9c-7.5-4-15.2-2.6-20.9,3.9c-4,4.6-6.5,10.1-8.9,15.8
		c-1.8,4.2-3.4,8.6-5.3,12.7c-4.4,9.2-13,29.9-22.4,32.9c-7.2,2.3-14.7,2.4-22.1,0.6c-4.4-1.1-8-3.5-10.8-7.4
		c-1.7-2.3-3.3-4.7-5.3-6.8c-6.5-6.7-14.4-4.6-17.1,4.5c-0.9,3.1-1.4,3.9-1.6,4c0.2,0.2,0.5,1.1,0.8,4.1c1.1,10.8,3.9,21.1,6.7,31.5
		c1.4,5.3,2.8,10.7,3,16.2c0.3,7.5-1.2,14.5-6.7,19.9c-7.4,7.4-17.3,7.6-24.7,0.3c-8.6-8.5-11-19-8.2-31c1.1-4.7,2.4-9.3,3.9-13.9
		c5.7-17.5,6.7-17.5,5-35.7c-0.2-2.4-0.1-4.8-0.6-7.2c-1.3-5.5-5.4-9.3-10.9-10c-5.9-0.8-10.3,1.4-12.8,6.8c-1.4,3-2.5,6.3-3.6,9.5
		c-1.7,4.8-4.3,8.7-8.3,11.6c-5.1,3.7-10,3.5-14.7-0.7c-3.5-3.1-5.9-7.1-7.9-11.4c-1.4-3-2.6-6.1-4-9c-4.5-9.4-12.4-13.3-22.1-10.9
		c-2.7,0.7-5.4,1.5-8.1,1.9c-12.2,1.9-21.2-6.1-22.1-19.1c-0.4-5.3-1.1-10.6-3.7-15.4c-3.4-6.3-8.4-8.4-14.7-5.6
		c-4.6,2-8.5,1.4-12.2-1.9c-1.7-1.5-3.6-3.1-6-3.3c0-0.8,0-1.6,0-2.4c0-0.6,0-1.2,0-1.8c1-1.1,0.6-2.5,0.6-3.7c0-13.5,0-26.9,0-40.4
		H0v36c0.1,0,0.1,0,0.1,0.1c0,0,0,0.1,0,0.1C0.1,36.1,0.1,36,0,36v163h573.4V0H573C572.3,57.8,569.7,56.3,561.4,65.1z"/>
	<path class="st0" d="M291.2,51.5c0.2,0.2,0.4,0.4,0.6,0.6C291.6,51.9,291.4,51.7,291.2,51.5c0-0.5-0.2-0.9-0.7-1.1c0,0,0,0,0,0
		C291,50.6,291.2,51,291.2,51.5z"/>
	<path class="st0" d="M291.8,52.1L291.8,52.1C291.7,52.1,291.8,52.1,291.8,52.1z"/>
	<path class="st1" d="M0.2,44.1c0,0.6,0,1.2,0,1.8c0,0.8,0,1.6,0,2.4c2.4,0.2,4.2,1.8,6,3.3c3.7,3.3,7.6,4,12.2,1.9
		c6.4-2.8,11.3-0.7,14.7,5.6c2.6,4.8,3.4,10,3.7,15.4c0.9,13,9.9,21,22.1,19.1c2.7-0.4,5.4-1.2,8.1-1.9c9.7-2.4,17.6,1.5,22.1,10.9
		c1.4,3,2.6,6,4,9c2,4.3,4.4,8.3,7.9,11.4c4.7,4.2,9.6,4.4,14.7,0.7c4-2.9,6.6-6.9,8.3-11.6c1.1-3.2,2.2-6.5,3.6-9.5
		c2.5-5.4,6.9-7.5,12.8-6.8c5.6,0.7,9.6,4.5,10.9,10c0.6,2.4,0.4,4.8,0.6,7.2c1.6,18.2,0.7,18.2-5,35.7c-1.5,4.6-2.8,9.2-3.9,13.9
		c-2.8,11.9-0.4,22.4,8.2,31c7.4,7.3,17.3,7.1,24.7-0.3c5.5-5.5,7-12.4,6.7-19.9c-0.2-5.5-1.6-10.9-3-16.2
		c-2.8-10.4-5.6-20.7-6.7-31.5c-0.3-3-0.6-3.9-0.8-4.1c0.2-0.1,0.7-0.9,1.6-4c2.8-9.1,10.6-11.2,17.1-4.5c2,2,3.6,4.4,5.3,6.8
		c2.8,3.9,6.4,6.3,10.8,7.4c7.4,1.8,14.9,1.7,22.1-0.6c9.4-3,18-23.7,22.4-32.9c2-4.1,3.5-8.5,5.3-12.7c2.4-5.6,4.9-11.2,8.9-15.8
		c5.7-6.5,13.4-7.9,20.9-3.9c2.4,1.3,4.5,3,6.5,4.9c2,1.9,3.9,3.9,6,5.6c11.4,9.8,20.7,8.5,29.3-4.2c1.4-2.1,2.7-4.4,4-6.6
		c1.4-2.4,2.8-4.8,4.6-6.9c2.7-3.2,6-5.3,9.9-6.3c9.7-2.4,19.8,2.1,25.1,11.3c2.2,3.9,3.7,8.2,5.2,12.4c1.5,4.3,3,8.7,5.5,12.6
		c6.8,10.6,20.3,11.9,28.8,2.9c2.9-3,5-6.6,7-10.3c2.4-4.6,5.5-8.5,9.7-11.3c6.2-4.2,12.7-3.6,18.1,1.6c1.1,1,2.1,2.1,3.2,3.1
		c4.7,4.2,9.6,4.4,14.6,0.5c0,0,0.1-0.1,0.1-0.1c1.5-1.1,3-2.2,4.5-3.2c7.9-5.1,16.1-2.7,20.2,6c2.6,5.5,3.4,11.3,2.7,17.3
		c-0.5,3.8-1.8,7.4-2.8,11.1c-3,11.1-1.2,21.1,5.5,30.2c2.5,3.3,5.8,5.5,9.9,6.2c10.3,1.6,20-5.2,22.7-15.8
		c1.4-5.4,1.2-10.8,0.2-16.2c-1.4-7.4-3.2-14.7-4.5-22.1c-1.1-6.3-1.1-12.6,1.5-18.7c3.5-8.2,15.3-10.4,19.8-2.8
		c0.4,0.7,1,1.2,1.5,1.8c4,3.9,12.6,5,16.2,0.7c8.4-8.8,10.9-7.3,11.7-65.1H0.8c0,13.5,0,26.9,0,40.4C0.8,41.6,1.3,43,0.2,44.1z
		 M290.5,50.4c0.5,0.2,0.6,0.6,0.7,1.1c0.2,0.2,0.4,0.4,0.6,0.6c0,0,0,0-0.1,0.1l0.1-0.1c-0.2-0.2-0.4-0.4-0.6-0.6
		C291.2,51,291,50.6,290.5,50.4C290.5,50.4,290.5,50.4,290.5,50.4z"/>
	<path class="st1" d="M0.1,36c0,0-0.1,0-0.1-0.1c0.1,0.1,0.1,0.1,0.2,0.2C0.2,36.1,0.2,36.1,0.1,36z"/>
</g>
</svg>
