<!-- Generated by IcoMoon.io -->
<svg version="1.1" xmlns="http://www.w3.org/2000/svg" width="32" height="32" viewBox="0 0 32 32">
<title>chocolate</title>
<path d="M28.992 19.234l-8.847-8.846c-0.465-0.465-1.161-0.611-1.774-0.371-3.506 1.372-6.393 1.219-8.826-0.467-0.653-0.453-1.539-0.37-2.105 0.197l-4.375 4.374c-0.446 0.446-0.691 1.039-0.691 1.669s0.246 1.223 0.691 1.669l13.851 13.851c0.446 0.446 1.039 0.691 1.669 0.691s1.223-0.246 1.669-0.691l1.25-1.251c0.183-0.183 0.183-0.48 0-0.663s-0.48-0.183-0.663 0l-1.251 1.251c-0.269 0.269-0.626 0.416-1.006 0.416s-0.737-0.148-1.006-0.417l-13.851-13.851c-0.269-0.269-0.417-0.626-0.417-1.006s0.148-0.737 0.417-1.006l4.375-4.375c0.246-0.246 0.628-0.283 0.908-0.089 0.25 0.173 0.504 0.332 0.762 0.476 0.025 0.362 0.179 0.708 0.44 0.969l2.19 2.19c0.296 0.296 0.685 0.444 1.074 0.444s0.778-0.148 1.074-0.444l2.189-2.19c0.090-0.090 0.167-0.19 0.232-0.299 0.565-0.151 1.145-0.344 1.741-0.577 0.265-0.104 0.567-0.041 0.769 0.161l8.846 8.847c0.269 0.269 0.417 0.626 0.417 1.006s-0.148 0.737-0.417 1.006l-5.927 5.927c-0.183 0.183-0.183 0.48 0 0.663s0.48 0.183 0.663 0l5.927-5.927c0.446-0.446 0.691-1.039 0.691-1.669s-0.246-1.223-0.691-1.669zM13.889 13.291c-0.227 0.227-0.595 0.227-0.822 0l-1.855-1.855c1.292 0.438 2.681 0.554 4.182 0.35zM11.638 16.868c0.592-0.592 0.592-1.556 0-2.148l-2.189-2.189c-0.287-0.287-0.668-0.445-1.074-0.445s-0.787 0.158-1.074 0.445l-2.189 2.19c-0.592 0.592-0.592 1.556 0 2.148l2.189 2.19c0.296 0.296 0.685 0.444 1.074 0.444s0.778-0.148 1.074-0.444l2.189-2.19c-0 0-0 0 0 0zM10.975 16.205h0l-2.19 2.189c-0.227 0.227-0.595 0.227-0.822 0l-2.189-2.189c-0.227-0.227-0.227-0.595 0-0.822l2.189-2.189c0.11-0.11 0.256-0.17 0.411-0.17s0.301 0.061 0.411 0.17l2.189 2.189c0.227 0.227 0.227 0.595 0 0.822zM21.986 6.641l-1.171-0.58c-0.293-0.145-0.635-0.129-0.913 0.044s-0.445 0.471-0.445 0.799v1.269c0 0.342 0.177 0.647 0.474 0.816 0.146 0.084 0.307 0.126 0.467 0.126 0.164 0 0.328-0.044 0.477-0.131l1.171-0.689c0.298-0.175 0.476-0.499 0.463-0.844s-0.213-0.656-0.522-0.809zM21.57 7.486l-1.175 0.689s-0-0.001-0-0.003l0.004-1.271 1.172 0.579c0 0.001 0 0.005-0.001 0.006zM19.976 20.897c0 0.406 0.158 0.787 0.445 1.074l2.189 2.189c0.287 0.287 0.668 0.445 1.074 0.445s0.787-0.158 1.074-0.445l2.189-2.189c0.287-0.287 0.445-0.668 0.445-1.074s-0.158-0.787-0.445-1.074l-2.189-2.189c-0.592-0.592-1.556-0.592-2.148 0l-2.19 2.189c-0.287 0.287-0.445 0.668-0.445 1.074zM21.084 20.486l2.189-2.189c0.113-0.113 0.262-0.17 0.411-0.17s0.298 0.057 0.411 0.17l2.189 2.189c0.11 0.11 0.17 0.256 0.17 0.411s-0.061 0.301-0.17 0.411l-2.189 2.19c-0.11 0.11-0.256 0.17-0.411 0.17s-0.301-0.061-0.411-0.17l-2.189-2.189c-0.11-0.11-0.17-0.256-0.17-0.411s0.061-0.301 0.17-0.411zM22.020 3.569l0.441 1.136c0.125 0.323 0.404 0.552 0.746 0.612 0.058 0.010 0.115 0.015 0.172 0.015 0.281 0 0.547-0.12 0.737-0.337l0.921-1.058c0.248-0.284 0.311-0.677 0.164-1.025s-0.471-0.577-0.848-0.599l-1.362-0.078c-0.334-0.020-0.652 0.131-0.849 0.402s-0.243 0.619-0.122 0.932zM22.899 3.188c0.014-0.019 0.030-0.018 0.038-0.018l1.362 0.078c0.010 0.001 0.027 0.002 0.038 0.027s-0.001 0.038-0.007 0.045l-0.921 1.058c-0.005 0.006-0.016 0.019-0.040 0.014s-0.031-0.020-0.033-0.027l-0.441-1.136c-0.003-0.007-0.009-0.022 0.005-0.042zM12.404 24.161c0.287 0.287 0.668 0.445 1.074 0.445s0.787-0.158 1.074-0.445l2.189-2.189c0.287-0.287 0.445-0.668 0.445-1.074s-0.158-0.787-0.445-1.074l-2.189-2.189c-0.592-0.592-1.556-0.592-2.148 0l-2.189 2.189c-0.592 0.592-0.592 1.556 0 2.148zM10.877 20.486l2.19-2.189c0.113-0.113 0.262-0.17 0.411-0.17s0.298 0.057 0.411 0.17l2.189 2.189c0.11 0.11 0.17 0.256 0.17 0.411s-0.060 0.301-0.17 0.411l-2.189 2.19c-0.11 0.11-0.256 0.17-0.411 0.17s-0.301-0.061-0.411-0.17l-2.189-2.189c-0.11-0.11-0.17-0.256-0.17-0.411s0.061-0.301 0.17-0.411zM19.655 12.531c-0.287-0.287-0.668-0.445-1.074-0.445s-0.787 0.158-1.074 0.445l-2.189 2.189c-0.592 0.592-0.592 1.556 0 2.148l2.189 2.189c0.296 0.296 0.685 0.444 1.074 0.444s0.778-0.148 1.074-0.444l2.189-2.189c0.592-0.592 0.592-1.556 0-2.148zM21.182 16.205l-2.19 2.189c-0.227 0.227-0.595 0.227-0.822 0l-2.189-2.189c-0.227-0.227-0.227-0.595 0-0.822l2.19-2.189c0.11-0.11 0.256-0.17 0.411-0.17s0.301 0.061 0.411 0.17l2.189 2.189c0.227 0.227 0.227 0.595 0 0.822zM17.507 29.264c0.296 0.296 0.685 0.444 1.074 0.444s0.778-0.148 1.074-0.444l2.189-2.19c0.287-0.287 0.445-0.668 0.445-1.074s-0.158-0.787-0.445-1.074l-2.189-2.189c-0.287-0.287-0.668-0.445-1.074-0.445s-0.787 0.158-1.074 0.445l-2.189 2.189c-0.287 0.287-0.445 0.668-0.445 1.074s0.158 0.787 0.445 1.074zM15.98 25.59l2.189-2.189c0.11-0.11 0.256-0.17 0.411-0.17s0.301 0.060 0.411 0.17l2.19 2.189c0.11 0.11 0.17 0.256 0.17 0.411s-0.061 0.301-0.17 0.411l-2.19 2.189c-0.227 0.227-0.595 0.227-0.822 0l-2.189-2.189c-0.11-0.11-0.17-0.256-0.17-0.411s0.060-0.301 0.17-0.411zM12.709 7.575c0.22 0.186 0.495 0.285 0.778 0.285 0.067 0 0.135-0.006 0.203-0.017 0.437-0.074 0.857-0.176 1.262-0.305 0.005-0.001 0.009-0.003 0.014-0.004 2.558-0.818 4.509-2.731 5.937-5.816 0.175-0.377 0.146-0.812-0.078-1.161-0.222-0.348-0.602-0.556-1.016-0.556h-5.169c-1.301 0-2.36 1.059-2.36 2.36v1.66c0 0.259 0.21 0.469 0.469 0.469s0.469-0.21 0.469-0.469v-1.66c0-0.785 0.638-1.423 1.423-1.423h5.169c0.128 0 0.196 0.077 0.226 0.123 0.024 0.038 0.074 0.139 0.017 0.262-0.132 0.284-0.268 0.557-0.409 0.82-0.252-0.179-0.556-0.281-0.877-0.281h-3.096c-0.837 0-1.519 0.681-1.519 1.519v3.096c0 0.103 0.011 0.204 0.031 0.304-0.212 0.053-0.429 0.1-0.65 0.137-0.107 0.019-0.183-0.030-0.219-0.060s-0.096-0.097-0.096-0.206v-0.452c0-0.259-0.21-0.469-0.469-0.469s-0.469 0.21-0.469 0.469v0.452c0 0.356 0.156 0.692 0.428 0.922zM15.088 3.381c0-0.321 0.261-0.581 0.581-0.581h3.096c0.152 0 0.294 0.061 0.4 0.162-1.097 1.734-2.446 2.903-4.077 3.532 0-0.006-0.001-0.011-0.001-0.017z"></path>
</svg>
