<!-- Generated by IcoMoon.io -->
<svg version="1.1" xmlns="http://www.w3.org/2000/svg" width="32" height="32" viewBox="0 0 32 32">
<title>coffee</title>
<path d="M29.984 26.785h-4.526c-0.259 0-0.469 0.21-0.469 0.469s0.21 0.469 0.469 0.469h4.058v0.264l-6.825 1.296h-13.682l-6.825-1.296v-0.264h1.864c0.001 0 0.002 0 0.002 0s0.001-0 0.002-0h1.689c0.001 0 0.001 0 0.002 0s0.002-0 0.003-0h5.62c0 0 0.001 0 0.001 0s0.001-0 0.001-0h1.675c0.001 0 0.001 0 0.002 0s0.001-0 0.002-0h5.612c0.001 0 0.001 0 0.002 0s0.001-0 0.001-0h5.059c0.259 0 0.469-0.21 0.469-0.469s-0.21-0.469-0.469-0.469h-3.023c0.56-0.356 1.082-0.772 1.552-1.242 0.678-0.678 1.235-1.445 1.66-2.275 0.593 0.241 1.22 0.364 1.871 0.364 2.745 0 4.979-2.234 4.979-4.979s-2.233-4.979-4.979-4.979c-0.297 0-0.592 0.027-0.882 0.079v-0.268c0-0.6-0.488-1.088-1.088-1.088h-2.217c-0.259 0-0.469 0.21-0.469 0.469s0.21 0.469 0.469 0.469h2.217c0.083 0 0.151 0.068 0.151 0.151v0.797h-16.217v-0.797c0-0.083 0.068-0.151 0.151-0.151h11.958c0.259 0 0.469-0.21 0.469-0.469s-0.21-0.469-0.469-0.469h-11.958c-0.6 0-1.088 0.488-1.088 1.088v5.661c0 0.707 0.083 1.408 0.244 2.089-0.763-0.227-1.672-0.049-2.502 0.519-0.214 0.146-0.268 0.438-0.122 0.652s0.438 0.268 0.652 0.122c0.544-0.372 1.114-0.518 1.586-0.423l-1.707 2.555c-0.144 0.215-0.086 0.506 0.129 0.65 0.080 0.053 0.171 0.079 0.26 0.079 0.151 0 0.3-0.073 0.39-0.208l1.708-2.555c0.177 0.263 0.274 0.607 0.279 1.008 0 0 0 0 0 0s0 0.002 0 0.003c0.006 0.619-0.21 1.289-0.609 1.886-0.228 0.34-0.497 0.632-0.801 0.869-0.211 0.165-0.433 0.298-0.66 0.395h-1.481c-0.017-0.010-0.034-0.020-0.051-0.032-0.78-0.521-0.83-1.869-0.112-3.069 0.133-0.222 0.061-0.51-0.162-0.643s-0.51-0.061-0.643 0.162c-0.457 0.765-0.681 1.617-0.629 2.399 0.029 0.444 0.146 0.844 0.337 1.183h-1.194c-0.259 0-0.469 0.21-0.469 0.469v1.121c0 0.225 0.16 0.419 0.381 0.46l6.893 1.309v1.387c0 0.259 0.21 0.469 0.469 0.469h13.721c0.259 0 0.469-0.21 0.469-0.469v-1.387l6.894-1.309c0.221-0.042 0.381-0.235 0.381-0.46v-1.121c0-0.259-0.21-0.469-0.469-0.469zM24.894 19.146v-2.218h0c0.272-0.139 0.572-0.213 0.882-0.213 1.069 0 1.938 0.869 1.938 1.938s-0.869 1.938-1.938 1.938c-0.341 0-0.668-0.088-0.96-0.255 0.051-0.391 0.078-0.789 0.078-1.19zM24.639 21.294c0.356 0.154 0.741 0.234 1.138 0.234 1.586 0 2.876-1.29 2.876-2.876s-1.29-2.876-2.876-2.876c-0.302 0-0.599 0.047-0.882 0.138v-1.16c0-0.002 0-0.003 0-0.005s-0-0.003-0-0.005v-0.037c0.288-0.064 0.583-0.097 0.882-0.097 2.228 0 4.041 1.813 4.041 4.041s-1.813 4.042-4.041 4.042c-0.517 0-1.015-0.096-1.486-0.284 0.14-0.363 0.257-0.736 0.349-1.117zM7.74 15.219h16.217v1.443c0 0 0 0.001 0 0.002v2.482c0 2.166-0.843 4.202-2.374 5.734-0.848 0.848-1.887 1.505-3.008 1.905h-5.45c-0.151-0.054-0.302-0.112-0.45-0.175 0.344-0.541 0.475-1.142 0.362-1.716-0-0.001-0-0.001-0-0.002s-0.001-0.002-0.001-0.003c-0.149-0.746-0.677-1.36-1.485-1.728-0.757-0.345-1.682-0.435-2.605-0.251-0.084 0.017-0.167 0.036-0.25 0.057-0.626-1.17-0.956-2.482-0.956-3.82v-3.927zM7.889 26.042c0.434-0.649 0.696-1.377 0.754-2.083 0.157-0.053 0.319-0.097 0.485-0.13 1.193-0.237 2.343 0.122 2.801 0.805l-3.012 0.599c-0.254 0.050-0.419 0.297-0.368 0.551 0.044 0.223 0.24 0.377 0.459 0.377 0.030 0 0.061-0.003 0.092-0.009l3.014-0.599c-0.060 0.308-0.232 0.617-0.507 0.901-0.001 0.001-0.001 0.002-0.002 0.002-0.115 0.118-0.245 0.227-0.386 0.328h-3.941c0.225-0.222 0.43-0.47 0.612-0.742zM22.24 31.063h-12.783v-0.843h12.783v0.843z"></path>
<path d="M17.069 9.372c-0.009 0.005-0.015 0.010-0.020 0.013 0.005-0.003 0.012-0.007 0.020-0.013z"></path>
<path d="M17.048 9.385c-0.012 0.008-0.011 0.007 0 0v0z"></path>
<path d="M18.083 5.117c0.631-0.6 0.995-1.431 0.995-2.324 0-1.111-0.562-2.128-1.504-2.721-0.219-0.138-0.509-0.072-0.646 0.147s-0.072 0.508 0.147 0.646c0.668 0.42 1.066 1.141 1.066 1.927s-0.399 1.507-1.066 1.927c-0.287 0.18-0.287 0.613 0 0.793 0.668 0.42 1.066 1.141 1.066 1.927s-0.398 1.507-1.066 1.927c-0.002 0.002-0.004 0.002-0.006 0.004 0.002-0.001 0.004-0.002 0.006-0.004-0.219 0.138-0.285 0.427-0.147 0.646 0.089 0.142 0.241 0.219 0.397 0.219 0.085 0 0.172-0.023 0.249-0.072 0.942-0.593 1.504-1.61 1.504-2.721 0-0.893-0.364-1.724-0.995-2.324zM17.319 9.214c0.011-0.007 0.012-0.008 0 0v0zM17.258 9.253c0.010-0.007 0.020-0.012 0.028-0.018-0.008 0.005-0.017 0.011-0.028 0.018z"></path>
<path d="M20.873 4.72c-0.219-0.138-0.509-0.072-0.646 0.147s-0.072 0.508 0.147 0.646c0.668 0.42 1.066 1.141 1.066 1.927s-0.398 1.507-1.066 1.927c-0.219 0.138-0.285 0.427-0.147 0.646 0.089 0.142 0.241 0.219 0.397 0.219 0.085 0 0.172-0.023 0.249-0.072 0.942-0.593 1.504-1.61 1.504-2.721s-0.562-2.128-1.504-2.721z"></path>
<path d="M14.005 4.72c-0.219-0.138-0.509-0.072-0.646 0.147s-0.072 0.508 0.147 0.646c0.668 0.42 1.066 1.141 1.066 1.927s-0.399 1.507-1.066 1.927c-0.219 0.138-0.285 0.427-0.147 0.646 0.089 0.142 0.241 0.219 0.397 0.219 0.085 0 0.172-0.023 0.249-0.072 0.942-0.593 1.504-1.61 1.504-2.721s-0.562-2.128-1.504-2.721z"></path>
</svg>
