<?xml version="1.0" encoding="utf-8"?>
<!-- Generator: Adobe Illustrator 23.0.0, SVG Export Plug-In . SVG Version: 6.00 Build 0)  -->
<svg version="1.1" id="Capa_1" xmlns="http://www.w3.org/2000/svg" xmlns:xlink="http://www.w3.org/1999/xlink" x="0px" y="0px"
	 viewBox="0 0 600 520" style="enable-background:new 0 0 600 520;" xml:space="preserve">
<g>
	<path d="M443.2,380.2c-1.6-2-3.6-3.6-5.9-4.8c-2.3-1.2-4.9-1.8-7.8-1.8c-3,0-5.7,0.6-8.1,1.9c-2.4,1.2-4.3,2.9-5.9,4.9
		c-1.6,2-2.8,4.3-3.6,6.9s-1.2,5.2-1.2,7.8c0,2.8,0.4,5.5,1.3,8.1c0.8,2.6,2.1,4.9,3.7,6.9c1.6,2,3.6,3.6,5.9,4.8
		c2.3,1.2,5,1.8,7.9,1.8c3,0,5.7-0.6,8-1.9c2.3-1.2,4.3-2.9,5.9-4.9c1.6-2.1,2.8-4.4,3.6-6.9c0.8-2.6,1.2-5.2,1.2-7.8
		c0-2.8-0.4-5.5-1.3-8.1C446.1,384.5,444.8,382.2,443.2,380.2z"/>
	<path d="M313.1,380.2c-1.6-2-3.6-3.6-5.9-4.8c-2.3-1.2-4.9-1.8-7.8-1.8c-3,0-5.7,0.6-8.1,1.9c-2.4,1.2-4.3,2.9-5.9,4.9
		c-1.6,2-2.8,4.3-3.6,6.9c-0.8,2.6-1.2,5.2-1.2,7.8c0,2.8,0.4,5.5,1.3,8.1c0.8,2.6,2.1,4.9,3.7,6.9c1.6,2,3.6,3.6,5.9,4.8
		c2.3,1.2,5,1.8,7.9,1.8c3,0,5.7-0.6,8-1.9c2.3-1.2,4.3-2.9,5.9-4.9c1.6-2.1,2.8-4.4,3.6-6.9c0.8-2.6,1.2-5.2,1.2-7.8
		c0-2.8-0.4-5.5-1.3-8.1C316,384.5,314.7,382.2,313.1,380.2z"/>
	<path d="M449.3,0H149.9L0.2,259.3l149.7,259.3h299.4L599,259.3L449.3,0z M191.5,419.3c-1.9,1.8-4,3.4-6.4,4.7
		c-2.4,1.3-4.9,2.2-7.7,2.9c-2.7,0.7-5.4,1-8,1c-4.6,0-8.8-1-12.6-2.9c-3.8-1.9-7.1-4.5-9.8-7.6c-2.8-3.1-4.9-6.6-6.4-10.6
		c-1.5-4-2.3-8-2.3-12.1c0-3.9,0.7-7.8,2.1-11.6c1.4-3.8,3.5-7.3,6.2-10.3c2.7-3,6-5.5,10-7.3c3.9-1.9,8.4-2.8,13.4-2.8
		c5.9,0,11,1.3,15.4,3.9c4.3,2.6,7.5,6,9.7,10.2l-9.6,6.6c-0.8-1.8-1.9-3.3-3.1-4.6c-1.2-1.2-2.5-2.2-3.9-2.9
		c-1.4-0.7-2.8-1.3-4.4-1.6c-1.5-0.3-3-0.5-4.4-0.5c-3.1,0-5.9,0.6-8.2,1.9c-2.3,1.3-4.3,2.9-5.8,4.9c-1.5,2-2.7,4.3-3.5,6.9
		c-0.8,2.6-1.2,5.1-1.2,7.7c0,2.8,0.5,5.6,1.4,8.2c0.9,2.6,2.2,4.9,3.9,6.9c1.7,2,3.7,3.6,6,4.8c2.3,1.2,4.9,1.8,7.7,1.8
		c1.5,0,3-0.2,4.5-0.5c1.6-0.4,3.1-0.9,4.5-1.7c1.4-0.8,2.7-1.8,3.9-3c1.2-1.2,2.2-2.7,2.9-4.5l10.2,5.9
		C194.9,415.3,193.4,417.4,191.5,419.3z M258.4,427.3H246v-27.5h-29.2v27.5h-12.5v-64.4h12.5v26H246v-26h12.4V427.3z M328.4,407.6
		c-1.6,3.9-3.7,7.3-6.5,10.3c-2.8,3-6.1,5.4-10,7.2c-3.9,1.8-8.1,2.7-12.6,2.7c-4.7,0-9-0.9-12.8-2.8c-3.8-1.8-7.1-4.3-9.9-7.3
		c-2.7-3-4.9-6.5-6.4-10.5c-1.5-3.9-2.3-7.9-2.3-12.1c0-4.3,0.8-8.4,2.4-12.3c1.6-3.9,3.8-7.4,6.6-10.4c2.8-3,6.1-5.4,10-7.2
		c3.9-1.8,8.1-2.7,12.6-2.7c4.7,0,8.9,1,12.7,2.9c3.8,1.9,7.1,4.4,9.8,7.5s4.8,6.6,6.3,10.5s2.3,7.9,2.3,12
		C330.8,399.6,330,403.7,328.4,407.6z M389.7,419.3c-1.9,1.8-4,3.4-6.4,4.7c-2.4,1.3-4.9,2.2-7.7,2.9c-2.7,0.7-5.4,1-8,1
		c-4.6,0-8.8-1-12.6-2.9c-3.8-1.9-7.1-4.5-9.8-7.6c-2.8-3.1-4.9-6.6-6.4-10.6c-1.5-4-2.3-8-2.3-12.1c0-3.9,0.7-7.8,2.1-11.6
		c1.4-3.8,3.5-7.3,6.2-10.3c2.7-3,6-5.5,10-7.3c3.9-1.9,8.4-2.8,13.4-2.8c5.9,0,11,1.3,15.4,3.9c4.3,2.6,7.5,6,9.7,10.2l-9.6,6.6
		c-0.8-1.8-1.9-3.3-3.1-4.6c-1.2-1.2-2.5-2.2-3.9-2.9c-1.4-0.7-2.8-1.3-4.4-1.6c-1.5-0.3-3-0.5-4.4-0.5c-3.1,0-5.9,0.6-8.2,1.9
		c-2.3,1.3-4.3,2.9-5.8,4.9c-1.5,2-2.7,4.3-3.5,6.9c-0.8,2.6-1.2,5.1-1.2,7.7c0,2.8,0.5,5.6,1.4,8.2c0.9,2.6,2.2,4.9,3.9,6.9
		c1.7,2,3.7,3.6,6,4.8c2.3,1.2,4.9,1.8,7.7,1.8c1.5,0,3-0.2,4.5-0.5c1.6-0.4,3.1-0.9,4.5-1.7c1.4-0.8,2.7-1.8,3.9-3
		c1.2-1.2,2.2-2.7,2.9-4.5l10.2,5.9C393.1,415.3,391.6,417.4,389.7,419.3z M458.5,407.6c-1.6,3.9-3.7,7.3-6.5,10.3
		c-2.8,3-6.1,5.4-10,7.2c-3.9,1.8-8.1,2.7-12.6,2.7c-4.7,0-9-0.9-12.8-2.8c-3.8-1.8-7.1-4.3-9.9-7.3c-2.7-3-4.9-6.5-6.4-10.5
		c-1.5-3.9-2.3-7.9-2.3-12.1c0-4.3,0.8-8.4,2.4-12.3c1.6-3.9,3.8-7.4,6.6-10.4c2.8-3,6.1-5.4,10-7.2c3.9-1.8,8.1-2.7,12.6-2.7
		c4.7,0,8.9,1,12.7,2.9c3.8,1.9,7.1,4.4,9.8,7.5c2.7,3.1,4.8,6.6,6.3,10.5c1.5,3.9,2.3,7.9,2.3,12
		C460.9,399.6,460.1,403.7,458.5,407.6z M472,109.5c-2.1,0-3.8-0.7-4.9-2.1c-1.1-1.4-2.2-2.9-3.3-4.6c-1.1-1.7-2.4-3.2-4-4.6
		c-1.6-1.4-3.9-2.1-6.9-2.1c-1.8,0-4,0.4-6.6,1.3c-2.6,0.9-5.3,2.2-8,3.9c-2.8,1.8-5.5,3.9-8.2,6.6c-2.7,2.6-5.1,5.7-7.1,9.2
		c-2,3.5-3.6,7.5-4.7,12c-1.1,4.5-1.5,9.4-1,14.7c0.4,6.1,1.1,13.3,1.9,21.5c0.8,8.2,1.7,17,2.6,26.4c1,9.4,2,19.1,3,29.1
		c1.1,10,2.2,19.9,3.3,29.6c1.1,9.7,2.2,19.1,3.3,28c1.1,9,2,17.1,2.9,24.3c0.9,7.3,1.7,13.4,2.5,18.4c0.8,5,1.4,8.4,1.9,10.3
		c0.7,2.8,1.6,5.1,2.7,6.8c1.1,1.7,3.1,2.6,6.1,2.6c3,0,5.9-0.5,8.6-1.4c2.7-0.9,5.1-1.9,7.2-2.8l2.7,5.4c-2,1.3-4.6,2.7-7.7,4.3
		c-3.1,1.6-6.6,3.1-10.6,4.6c-4,1.5-8.4,2.7-13.1,3.6c-4.8,1-9.9,1.5-15.4,1.5c-7.7,0-13.9-0.9-18.4-2.6c-4.5-1.7-7.9-3.8-10.4-6.3
		c-2.4-2.5-4-5.1-4.9-7.9c-0.8-2.8-1.5-5.3-1.9-7.5c-1-5-2.1-10.9-3.2-18c-1.1-7-2.2-14.5-3.3-22.6c-1.1-8-2.1-16.3-3.1-24.8
		c-1-8.5-1.9-16.8-2.8-25c-0.8-8.1-1.6-15.8-2.3-23c-0.7-7.2-1.2-13.5-1.7-18.8c-3.4,4.8-6.5,9.4-9.3,13.8c-2.9,4.4-5.6,9-8.3,13.6
		c-2.7,4.6-5.4,9.5-8.3,14.5c-2.8,5.1-5.8,10.6-8.8,16.5c-3.1,5.9-6.5,12.5-10.1,19.6c-3.7,7.1-7.7,15-12,23.8h-16.5l-60.6-104.7
		l-2.2,35.2c-0.7,10.2-1.3,20.4-1.8,30.4c-0.5,10.1-1.4,19.7-2.8,28.8c-1.3,9.1-3.5,17.5-6.3,25.3c-2.9,7.8-7,14.5-12.5,20.2
		c-5.4,5.7-12.5,10.1-21.2,13.4c-8.7,3.2-19.6,4.8-32.6,4.8c-5.7,0-11.2-0.4-16.5-1.2c-5.3-0.8-9.9-2-14-3.4c-4-1.5-7.3-3.2-9.7-5.2
		c-2.4-2-3.6-4.2-3.6-6.5c0-1.8,0.3-3.5,0.8-5.3c0.6-1.8,1.4-3.5,2.5-5c1.1-1.5,2.5-2.7,4.1-3.6c1.6-0.9,3.5-1.4,5.5-1.4
		c1.2,0,2.3,0.5,3.3,1.6c1,1.1,1.9,2.4,2.9,4c1,1.6,2.2,3.3,3.5,5.2c1.3,1.9,3,3.6,5.1,5.2c2.1,1.6,4.6,2.9,7.5,4
		c2.9,1.1,6.6,1.6,10.9,1.6c8.6,0,15.9-1.3,21.8-3.9c5.9-2.6,10.8-6.3,14.6-11.2c3.8-4.9,6.7-10.7,8.8-17.7c2-6.9,3.5-14.7,4.5-23.5
		c0.4-4.9,0.9-9.6,1.3-14.1c0.4-4.5,0.9-9,1.3-13.5c0.4-4.5,0.9-9,1.3-13.6c0.4-4.6,0.8-9.5,1.3-14.7c0.6-7.5,1.1-14.6,1.5-21.4
		c0.4-6.8,0.8-13.1,1.1-18.9c0.3-5.8,0.5-11.1,0.7-15.8c0.2-4.7,0.3-8.7,0.4-12.1c-1.9-3.4-3.6-6.2-5.1-8.2c-1.5-2.1-3-3.7-4.5-4.8
		c-1.6-1.1-3.3-1.9-5.2-2.3c-1.9-0.4-4.2-0.6-6.9-0.6c-2.2,0-5,0.4-8.3,1.1c-3.3,0.7-6.7,1.8-10.3,3.1c-3.5,1.4-7.1,3-10.6,5
		c-3.5,2-6.7,4.3-9.4,6.9c-2.8,2.6-5,5.4-6.7,8.5c-1.7,3.1-2.6,6.5-2.6,10.1c0,3.1,0.5,5.6,1.4,7.4c1,1.9,2.1,3.2,3.4,4.2
		c1.3,0.9,2.6,1.5,3.9,1.8c1.3,0.2,2.2,0.4,2.8,0.4c2.8,0,5.1-0.4,6.9-1.2c1.8-0.8,3.4-1.7,4.9-2.6c1.5-0.9,2.8-1.8,4.1-2.6
		c1.3-0.8,2.8-1.2,4.5-1.2c1.3,0,2.8,0.3,4.3,0.8c1.5,0.5,2.9,1.4,4.2,2.6c1.3,1.2,2.4,2.7,3.3,4.6c0.9,1.9,1.3,4.2,1.3,6.9
		c0,3.9-0.9,7.3-2.6,10.1c-1.7,2.8-4,5.2-6.7,7.1c-2.8,1.9-5.9,3.3-9.4,4.2c-3.5,0.9-7,1.4-10.5,1.4c-5.4,0-10.2-0.8-14.6-2.4
		c-4.3-1.6-8-3.8-11-6.6c-3-2.8-5.3-6.1-6.9-9.9c-1.6-3.8-2.4-7.8-2.4-12.1c0-10.1,2.7-18.9,8.1-26.5c5.4-7.5,12.5-13.8,21.2-18.9
		c8.8-5.1,18.7-8.8,29.7-11.3c11.1-2.5,22.3-3.7,33.8-3.7c9.2,0,16.9,0.8,23.1,2.4c6.2,1.6,11.3,3.7,15.5,6.4
		c4.2,2.7,7.6,5.8,10.3,9.4c2.7,3.6,5.2,7.4,7.4,11.4l44.5,78.2c11.6-19.8,22.1-37.4,31.6-53.1c9.5-15.6,18.3-29.4,26.4-41.2
		c8.1-11.9,15.6-22,22.7-30.4c7-8.4,13.8-15.2,20.4-20.5c6.6-5.3,13.1-9.2,19.5-11.6c6.5-2.4,13.2-3.6,20.1-3.6
		c6,0,10.8,1.1,14.5,3.3c3.7,2.2,5.6,5.5,5.6,9.9c0,3.9-0.7,7.1-2.2,9.6C476.6,108.2,474.5,109.5,472,109.5z"/>
</g>
</svg>
