<!-- Generated by IcoMoon.io -->
<svg version="1.1" xmlns="http://www.w3.org/2000/svg" width="37" height="32" viewBox="0 0 37 32">
<title>logo</title>
<path d="M27.274 23.397c-0.098-0.123-0.222-0.222-0.363-0.295s-0.302-0.111-0.48-0.111c-0.185 0-0.351 0.037-0.498 0.117-0.148 0.074-0.265 0.178-0.363 0.302s-0.172 0.265-0.222 0.425-0.074 0.32-0.074 0.48c0 0.172 0.025 0.338 0.080 0.498 0.049 0.16 0.129 0.302 0.228 0.425s0.222 0.222 0.363 0.295c0.142 0.074 0.308 0.111 0.486 0.111 0.185 0 0.351-0.037 0.492-0.117 0.142-0.074 0.265-0.178 0.363-0.302 0.098-0.129 0.172-0.271 0.222-0.425 0.049-0.16 0.074-0.32 0.074-0.48 0-0.172-0.025-0.338-0.080-0.498-0.049-0.16-0.129-0.302-0.228-0.425z"></path>
<path d="M19.268 23.397c-0.098-0.123-0.222-0.222-0.363-0.295s-0.302-0.111-0.48-0.111c-0.185 0-0.351 0.037-0.498 0.117-0.148 0.074-0.265 0.178-0.363 0.302s-0.172 0.265-0.222 0.425c-0.049 0.16-0.074 0.32-0.074 0.48 0 0.172 0.025 0.338 0.080 0.498 0.049 0.16 0.129 0.302 0.228 0.425s0.222 0.222 0.363 0.295c0.142 0.074 0.308 0.111 0.486 0.111 0.185 0 0.351-0.037 0.492-0.117 0.142-0.074 0.265-0.178 0.363-0.302 0.098-0.129 0.172-0.271 0.222-0.425 0.049-0.16 0.074-0.32 0.074-0.48 0-0.172-0.025-0.338-0.080-0.498-0.049-0.16-0.129-0.302-0.228-0.425z"></path>
<path d="M27.649 0h-18.425l-9.212 15.957 9.212 15.957h18.425l9.212-15.957-9.212-15.957zM11.785 25.803c-0.117 0.111-0.246 0.209-0.394 0.289s-0.302 0.135-0.474 0.178c-0.166 0.043-0.332 0.062-0.492 0.062-0.283 0-0.542-0.062-0.775-0.178s-0.437-0.277-0.603-0.468c-0.172-0.191-0.302-0.406-0.394-0.652s-0.142-0.492-0.142-0.745c0-0.24 0.043-0.48 0.129-0.714s0.215-0.449 0.382-0.634c0.166-0.185 0.369-0.338 0.615-0.449 0.24-0.117 0.517-0.172 0.825-0.172 0.363 0 0.677 0.080 0.948 0.24 0.265 0.16 0.462 0.369 0.597 0.628l-0.591 0.406c-0.049-0.111-0.117-0.203-0.191-0.283-0.074-0.074-0.154-0.135-0.24-0.178s-0.172-0.080-0.271-0.098c-0.092-0.018-0.185-0.031-0.271-0.031-0.191 0-0.363 0.037-0.505 0.117s-0.265 0.178-0.357 0.302c-0.092 0.123-0.166 0.265-0.215 0.425s-0.074 0.314-0.074 0.474c0 0.172 0.031 0.345 0.086 0.505s0.135 0.302 0.24 0.425c0.105 0.123 0.228 0.222 0.369 0.295s0.302 0.111 0.474 0.111c0.092 0 0.185-0.012 0.277-0.031 0.098-0.025 0.191-0.055 0.277-0.105s0.166-0.111 0.24-0.185c0.074-0.074 0.135-0.166 0.178-0.277l0.628 0.363c-0.068 0.135-0.16 0.265-0.277 0.382zM15.902 26.295h-0.763v-1.692h-1.797v1.692h-0.769v-3.963h0.769v1.6h1.797v-1.6h0.763v3.963zM20.209 25.083c-0.098 0.24-0.228 0.449-0.4 0.634s-0.375 0.332-0.615 0.443c-0.24 0.111-0.498 0.166-0.775 0.166-0.289 0-0.554-0.055-0.788-0.172-0.234-0.111-0.437-0.265-0.609-0.449-0.166-0.185-0.302-0.4-0.394-0.646-0.092-0.24-0.142-0.486-0.142-0.745 0-0.265 0.049-0.517 0.148-0.757s0.234-0.455 0.406-0.64c0.172-0.185 0.375-0.332 0.615-0.443s0.498-0.166 0.775-0.166c0.289 0 0.548 0.062 0.782 0.178s0.437 0.271 0.603 0.462 0.295 0.406 0.388 0.646 0.142 0.486 0.142 0.738c0.012 0.258-0.037 0.511-0.135 0.751zM23.982 25.803c-0.117 0.111-0.246 0.209-0.394 0.289s-0.302 0.135-0.474 0.178c-0.166 0.043-0.332 0.062-0.492 0.062-0.283 0-0.542-0.062-0.775-0.178s-0.437-0.277-0.603-0.468c-0.172-0.191-0.302-0.406-0.394-0.652s-0.142-0.492-0.142-0.745c0-0.24 0.043-0.48 0.129-0.714s0.215-0.449 0.382-0.634c0.166-0.185 0.369-0.338 0.615-0.449 0.24-0.117 0.517-0.172 0.825-0.172 0.363 0 0.677 0.080 0.948 0.24 0.265 0.16 0.462 0.369 0.597 0.628l-0.591 0.406c-0.049-0.111-0.117-0.203-0.191-0.283-0.074-0.074-0.154-0.135-0.24-0.178s-0.172-0.080-0.271-0.098c-0.092-0.018-0.185-0.031-0.271-0.031-0.191 0-0.363 0.037-0.505 0.117s-0.265 0.178-0.357 0.302c-0.092 0.123-0.166 0.265-0.215 0.425s-0.074 0.314-0.074 0.474c0 0.172 0.031 0.345 0.086 0.505s0.135 0.302 0.24 0.425c0.105 0.123 0.228 0.222 0.369 0.295s0.302 0.111 0.474 0.111c0.092 0 0.185-0.012 0.277-0.031 0.098-0.025 0.191-0.055 0.277-0.105s0.166-0.111 0.24-0.185c0.074-0.074 0.135-0.166 0.178-0.277l0.628 0.363c-0.068 0.135-0.16 0.265-0.277 0.382zM28.215 25.083c-0.098 0.24-0.228 0.449-0.4 0.634s-0.375 0.332-0.615 0.443c-0.24 0.111-0.498 0.166-0.775 0.166-0.289 0-0.554-0.055-0.788-0.172-0.234-0.111-0.437-0.265-0.609-0.449-0.166-0.185-0.302-0.4-0.394-0.646-0.092-0.24-0.142-0.486-0.142-0.745 0-0.265 0.049-0.517 0.148-0.757s0.234-0.455 0.406-0.64c0.172-0.185 0.375-0.332 0.615-0.443s0.498-0.166 0.775-0.166c0.289 0 0.548 0.062 0.782 0.178s0.437 0.271 0.603 0.462c0.166 0.191 0.295 0.406 0.388 0.646s0.142 0.486 0.142 0.738c0.012 0.258-0.037 0.511-0.135 0.751zM29.046 6.738c-0.129 0-0.234-0.043-0.302-0.129s-0.135-0.178-0.203-0.283c-0.068-0.105-0.148-0.197-0.246-0.283s-0.24-0.129-0.425-0.129c-0.111 0-0.246 0.025-0.406 0.080s-0.326 0.135-0.492 0.24c-0.172 0.111-0.338 0.24-0.505 0.406-0.166 0.16-0.314 0.351-0.437 0.566s-0.222 0.462-0.289 0.738c-0.068 0.277-0.092 0.578-0.062 0.905 0.025 0.375 0.068 0.818 0.117 1.323s0.105 1.046 0.16 1.625c0.062 0.578 0.123 1.175 0.185 1.791 0.068 0.615 0.135 1.225 0.203 1.822s0.135 1.175 0.203 1.723c0.068 0.554 0.123 1.052 0.178 1.495 0.055 0.449 0.105 0.825 0.154 1.132s0.086 0.517 0.117 0.634c0.043 0.172 0.098 0.314 0.166 0.418s0.191 0.16 0.375 0.16c0.185 0 0.363-0.031 0.529-0.086s0.314-0.117 0.443-0.172l0.166 0.332c-0.123 0.080-0.283 0.166-0.474 0.265s-0.406 0.191-0.652 0.283c-0.246 0.092-0.517 0.166-0.806 0.222-0.295 0.062-0.609 0.092-0.948 0.092-0.474 0-0.855-0.055-1.132-0.16s-0.486-0.234-0.64-0.388c-0.148-0.154-0.246-0.314-0.302-0.486-0.049-0.172-0.092-0.326-0.117-0.462-0.062-0.308-0.129-0.671-0.197-1.108-0.068-0.431-0.135-0.892-0.203-1.391-0.068-0.492-0.129-1.003-0.191-1.526s-0.117-1.034-0.172-1.538c-0.049-0.498-0.098-0.972-0.142-1.415s-0.074-0.831-0.105-1.157c-0.209 0.295-0.4 0.578-0.572 0.849-0.178 0.271-0.345 0.554-0.511 0.837s-0.332 0.585-0.511 0.892c-0.172 0.314-0.357 0.652-0.542 1.015-0.191 0.363-0.4 0.769-0.622 1.206-0.228 0.437-0.474 0.923-0.738 1.465h-1.015l-3.729-6.443-0.135 2.166c-0.043 0.628-0.080 1.255-0.111 1.871-0.031 0.622-0.086 1.212-0.172 1.772-0.080 0.56-0.215 1.077-0.388 1.557-0.178 0.48-0.431 0.892-0.769 1.243-0.332 0.351-0.769 0.622-1.305 0.825-0.535 0.197-1.206 0.295-2.006 0.295-0.351 0-0.689-0.025-1.015-0.074s-0.609-0.123-0.862-0.209c-0.246-0.092-0.449-0.197-0.597-0.32s-0.222-0.258-0.222-0.4c0-0.111 0.018-0.215 0.049-0.326 0.037-0.111 0.086-0.215 0.154-0.308s0.154-0.166 0.252-0.222c0.098-0.055 0.215-0.086 0.338-0.086 0.074 0 0.142 0.031 0.203 0.098s0.117 0.148 0.178 0.246c0.062 0.098 0.135 0.203 0.215 0.32s0.185 0.222 0.314 0.32c0.129 0.098 0.283 0.178 0.462 0.246s0.406 0.098 0.671 0.098c0.529 0 0.978-0.080 1.342-0.24s0.665-0.388 0.898-0.689c0.234-0.302 0.412-0.658 0.542-1.089 0.123-0.425 0.215-0.905 0.277-1.446 0.025-0.302 0.055-0.591 0.080-0.868s0.055-0.554 0.080-0.831c0.025-0.277 0.055-0.554 0.080-0.837s0.049-0.585 0.080-0.905c0.037-0.462 0.068-0.898 0.092-1.317s0.049-0.806 0.068-1.163c0.018-0.357 0.031-0.683 0.043-0.972s0.018-0.535 0.025-0.745c-0.117-0.209-0.222-0.382-0.314-0.505-0.092-0.129-0.185-0.228-0.277-0.295-0.098-0.068-0.203-0.117-0.32-0.142s-0.258-0.037-0.425-0.037c-0.135 0-0.308 0.025-0.511 0.068s-0.412 0.111-0.634 0.191c-0.215 0.086-0.437 0.185-0.652 0.308s-0.412 0.265-0.578 0.425c-0.172 0.16-0.308 0.332-0.412 0.523s-0.16 0.4-0.16 0.622c0 0.191 0.031 0.345 0.086 0.455 0.062 0.117 0.129 0.197 0.209 0.258 0.080 0.055 0.16 0.092 0.24 0.111 0.080 0.012 0.135 0.025 0.172 0.025 0.172 0 0.314-0.025 0.425-0.074s0.209-0.105 0.302-0.16c0.092-0.055 0.172-0.111 0.252-0.16s0.172-0.074 0.277-0.074c0.080 0 0.172 0.018 0.265 0.049s0.178 0.086 0.258 0.16c0.080 0.074 0.148 0.166 0.203 0.283s0.080 0.258 0.080 0.425c0 0.24-0.055 0.449-0.16 0.622s-0.246 0.32-0.412 0.437c-0.172 0.117-0.363 0.203-0.578 0.258s-0.431 0.086-0.646 0.086c-0.332 0-0.628-0.049-0.898-0.148-0.265-0.098-0.492-0.234-0.677-0.406s-0.326-0.375-0.425-0.609c-0.098-0.234-0.148-0.48-0.148-0.745 0-0.622 0.166-1.163 0.498-1.631 0.332-0.462 0.769-0.849 1.305-1.163 0.542-0.314 1.151-0.542 1.828-0.695 0.683-0.154 1.372-0.228 2.080-0.228 0.566 0 1.040 0.049 1.422 0.148s0.695 0.228 0.954 0.394c0.258 0.166 0.468 0.357 0.634 0.578s0.32 0.455 0.455 0.702l2.738 4.812c0.714-1.218 1.36-2.302 1.945-3.268 0.585-0.96 1.126-1.809 1.625-2.535 0.498-0.732 0.96-1.354 1.397-1.871 0.431-0.517 0.849-0.935 1.255-1.262s0.806-0.566 1.2-0.714c0.4-0.148 0.812-0.222 1.237-0.222 0.369 0 0.665 0.068 0.892 0.203s0.345 0.338 0.345 0.609c0 0.24-0.043 0.437-0.135 0.591-0.105 0.148-0.234 0.228-0.388 0.228z"></path>
</svg>
