<?xml version="1.0" encoding="utf-8"?>
<!-- Generator: Adobe Illustrator 23.0.0, SVG Export Plug-In . SVG Version: 6.00 Build 0)  -->
<svg version="1.1" id="Capa_1" xmlns="http://www.w3.org/2000/svg" xmlns:xlink="http://www.w3.org/1999/xlink" x="0px" y="0px"
	 viewBox="0 0 37 32" style="enable-background:new 0 0 37 32;" xml:space="preserve">
<style type="text/css">
	.st0{fill:#754F44;}
</style>
<title>logo</title>
<path class="st0" d="M27.3,23.4c-0.1-0.1-0.2-0.2-0.4-0.3S26.6,23,26.4,23c-0.2,0-0.4,0-0.5,0.1c-0.1,0.1-0.3,0.2-0.4,0.3
	s-0.2,0.3-0.2,0.4s-0.1,0.3-0.1,0.5c0,0.2,0,0.3,0.1,0.5c0,0.2,0.1,0.3,0.2,0.4s0.2,0.2,0.4,0.3c0.1,0.1,0.3,0.1,0.5,0.1
	c0.2,0,0.4,0,0.5-0.1c0.1-0.1,0.3-0.2,0.4-0.3c0.1-0.1,0.2-0.3,0.2-0.4c0-0.2,0.1-0.3,0.1-0.5c0-0.2,0-0.3-0.1-0.5
	C27.5,23.7,27.4,23.5,27.3,23.4z"/>
<path class="st0" d="M19.3,23.4c-0.1-0.1-0.2-0.2-0.4-0.3S18.6,23,18.4,23c-0.2,0-0.4,0-0.5,0.1c-0.1,0.1-0.3,0.2-0.4,0.3
	s-0.2,0.3-0.2,0.4c0,0.2-0.1,0.3-0.1,0.5c0,0.2,0,0.3,0.1,0.5c0,0.2,0.1,0.3,0.2,0.4s0.2,0.2,0.4,0.3c0.1,0.1,0.3,0.1,0.5,0.1
	c0.2,0,0.4,0,0.5-0.1c0.1-0.1,0.3-0.2,0.4-0.3c0.1-0.1,0.2-0.3,0.2-0.4c0-0.2,0.1-0.3,0.1-0.5c0-0.2,0-0.3-0.1-0.5
	C19.4,23.7,19.4,23.5,19.3,23.4z"/>
<path class="st0" d="M27.6,0H9.2L0,16l9.2,16h18.4l9.2-16L27.6,0z M11.8,25.8c-0.1,0.1-0.2,0.2-0.4,0.3s-0.3,0.1-0.5,0.2
	c-0.2,0-0.3,0.1-0.5,0.1c-0.3,0-0.5-0.1-0.8-0.2S9.2,25.9,9,25.7c-0.2-0.2-0.3-0.4-0.4-0.7s-0.1-0.5-0.1-0.7c0-0.2,0-0.5,0.1-0.7
	s0.2-0.4,0.4-0.6c0.2-0.2,0.4-0.3,0.6-0.4c0.2-0.1,0.5-0.2,0.8-0.2c0.4,0,0.7,0.1,0.9,0.2c0.3,0.2,0.5,0.4,0.6,0.6l-0.6,0.4
	c0-0.1-0.1-0.2-0.2-0.3c-0.1-0.1-0.2-0.1-0.2-0.2s-0.2-0.1-0.3-0.1c-0.1,0-0.2,0-0.3,0c-0.2,0-0.4,0-0.5,0.1s-0.3,0.2-0.4,0.3
	c-0.1,0.1-0.2,0.3-0.2,0.4s-0.1,0.3-0.1,0.5c0,0.2,0,0.3,0.1,0.5s0.1,0.3,0.2,0.4s0.2,0.2,0.4,0.3s0.3,0.1,0.5,0.1
	c0.1,0,0.2,0,0.3,0c0.1,0,0.2-0.1,0.3-0.1s0.2-0.1,0.2-0.2c0.1-0.1,0.1-0.2,0.2-0.3l0.6,0.4C12,25.6,11.9,25.7,11.8,25.8L11.8,25.8z
	 M15.9,26.3h-0.8v-1.7h-1.8v1.7h-0.8v-4h0.8v1.6h1.8v-1.6h0.8V26.3z M20.2,25.1c-0.1,0.2-0.2,0.4-0.4,0.6s-0.4,0.3-0.6,0.4
	s-0.5,0.2-0.8,0.2c-0.3,0-0.6-0.1-0.8-0.2c-0.2-0.1-0.4-0.3-0.6-0.4c-0.2-0.2-0.3-0.4-0.4-0.6c-0.1-0.2-0.1-0.5-0.1-0.7
	c0-0.3,0-0.5,0.1-0.8s0.2-0.5,0.4-0.6s0.4-0.3,0.6-0.4s0.5-0.2,0.8-0.2c0.3,0,0.5,0.1,0.8,0.2s0.4,0.3,0.6,0.5s0.3,0.4,0.4,0.6
	s0.1,0.5,0.1,0.7C20.4,24.6,20.3,24.8,20.2,25.1L20.2,25.1z M24,25.8c-0.1,0.1-0.2,0.2-0.4,0.3s-0.3,0.1-0.5,0.2
	c-0.2,0-0.3,0.1-0.5,0.1c-0.3,0-0.5-0.1-0.8-0.2s-0.4-0.3-0.6-0.5c-0.2-0.2-0.3-0.4-0.4-0.7s-0.1-0.5-0.1-0.7c0-0.2,0-0.5,0.1-0.7
	s0.2-0.4,0.4-0.6c0.2-0.2,0.4-0.3,0.6-0.4c0.2-0.1,0.5-0.2,0.8-0.2c0.4,0,0.7,0.1,0.9,0.2c0.3,0.2,0.5,0.4,0.6,0.6l-0.6,0.4
	c0-0.1-0.1-0.2-0.2-0.3c-0.1-0.1-0.2-0.1-0.2-0.2S23,23.1,22.9,23c-0.1,0-0.2,0-0.3,0c-0.2,0-0.4,0-0.5,0.1s-0.3,0.2-0.4,0.3
	c-0.1,0.1-0.2,0.3-0.2,0.4s-0.1,0.3-0.1,0.5c0,0.2,0,0.3,0.1,0.5s0.1,0.3,0.2,0.4s0.2,0.2,0.4,0.3s0.3,0.1,0.5,0.1
	c0.1,0,0.2,0,0.3,0c0.1,0,0.2-0.1,0.3-0.1s0.2-0.1,0.2-0.2s0.1-0.2,0.2-0.3l0.6,0.4C24.2,25.6,24.1,25.7,24,25.8L24,25.8z
	 M28.2,25.1c-0.1,0.2-0.2,0.4-0.4,0.6s-0.4,0.3-0.6,0.4s-0.5,0.2-0.8,0.2c-0.3,0-0.6-0.1-0.8-0.2c-0.2-0.1-0.4-0.3-0.6-0.4
	c-0.2-0.2-0.3-0.4-0.4-0.6c-0.1-0.2-0.1-0.5-0.1-0.7c0-0.3,0-0.5,0.1-0.8s0.2-0.5,0.4-0.6s0.4-0.3,0.6-0.4s0.5-0.2,0.8-0.2
	c0.3,0,0.5,0.1,0.8,0.2s0.4,0.3,0.6,0.5s0.3,0.4,0.4,0.6s0.1,0.5,0.1,0.7C28.4,24.6,28.3,24.8,28.2,25.1L28.2,25.1z M29,6.7
	c-0.1,0-0.2,0-0.3-0.1s-0.1-0.2-0.2-0.3c-0.1-0.1-0.1-0.2-0.2-0.3s-0.2-0.1-0.4-0.1c-0.1,0-0.2,0-0.4,0.1S27.1,6.1,27,6.2
	c-0.2,0.1-0.3,0.2-0.5,0.4C26.3,6.8,26.2,7,26,7.2s-0.2,0.5-0.3,0.7c-0.1,0.3-0.1,0.6-0.1,0.9c0,0.4,0.1,0.8,0.1,1.3s0.1,1,0.2,1.6
	c0.1,0.6,0.1,1.2,0.2,1.8c0.1,0.6,0.1,1.2,0.2,1.8s0.1,1.2,0.2,1.7c0.1,0.6,0.1,1.1,0.2,1.5c0.1,0.4,0.1,0.8,0.2,1.1
	s0.1,0.5,0.1,0.6c0,0.2,0.1,0.3,0.2,0.4s0.2,0.2,0.4,0.2c0.2,0,0.4,0,0.5-0.1s0.3-0.1,0.4-0.2l0.2,0.3c-0.1,0.1-0.3,0.2-0.5,0.3
	s-0.4,0.2-0.7,0.3s-0.5,0.2-0.8,0.2c-0.3,0.1-0.6,0.1-0.9,0.1c-0.5,0-0.9-0.1-1.1-0.2s-0.5-0.2-0.6-0.4c-0.1-0.2-0.2-0.3-0.3-0.5
	c0-0.2-0.1-0.3-0.1-0.5c-0.1-0.3-0.1-0.7-0.2-1.1c-0.1-0.4-0.1-0.9-0.2-1.4c-0.1-0.5-0.1-1-0.2-1.5s-0.1-1-0.2-1.5
	c0-0.5-0.1-1-0.1-1.4s-0.1-0.8-0.1-1.2c-0.2,0.3-0.4,0.6-0.6,0.8c-0.2,0.3-0.3,0.6-0.5,0.8s-0.3,0.6-0.5,0.9c-0.2,0.3-0.4,0.7-0.5,1
	c-0.2,0.4-0.4,0.8-0.6,1.2c-0.2,0.4-0.5,0.9-0.7,1.5h-1l-3.7-6.4l-0.1,2.2c0,0.6-0.1,1.3-0.1,1.9c0,0.6-0.1,1.2-0.2,1.8
	c-0.1,0.6-0.2,1.1-0.4,1.6c-0.2,0.5-0.4,0.9-0.8,1.2c-0.3,0.4-0.8,0.6-1.3,0.8c-0.5,0.2-1.2,0.3-2,0.3c-0.4,0-0.7,0-1-0.1
	s-0.6-0.1-0.9-0.2c-0.2-0.1-0.4-0.2-0.6-0.3S6.8,21,6.8,20.8c0-0.1,0-0.2,0-0.3c0-0.1,0.1-0.2,0.2-0.3S7.1,20,7.2,20
	c0.1-0.1,0.2-0.1,0.3-0.1c0.1,0,0.1,0,0.2,0.1s0.1,0.1,0.2,0.2c0.1,0.1,0.1,0.2,0.2,0.3s0.2,0.2,0.3,0.3s0.3,0.2,0.5,0.2
	s0.4,0.1,0.7,0.1c0.5,0,1-0.1,1.3-0.2s0.7-0.4,0.9-0.7c0.2-0.3,0.4-0.7,0.5-1.1c0.1-0.4,0.2-0.9,0.3-1.4c0-0.3,0.1-0.6,0.1-0.9
	s0.1-0.6,0.1-0.8c0-0.3,0.1-0.6,0.1-0.8s0-0.6,0.1-0.9c0-0.5,0.1-0.9,0.1-1.3s0-0.8,0.1-1.2c0-0.4,0-0.7,0-1s0-0.5,0-0.7
	c-0.1-0.2-0.2-0.4-0.3-0.5c-0.1-0.1-0.2-0.2-0.3-0.3c-0.1-0.1-0.2-0.1-0.3-0.1s-0.3,0-0.4,0c-0.1,0-0.3,0-0.5,0.1S11,9.3,10.7,9.4
	c-0.2,0.1-0.4,0.2-0.7,0.3S9.7,10,9.5,10.1c-0.2,0.2-0.3,0.3-0.4,0.5S8.9,11,8.9,11.3c0,0.2,0,0.3,0.1,0.5c0.1,0.1,0.1,0.2,0.2,0.3
	c0.1,0.1,0.2,0.1,0.2,0.1c0.1,0,0.1,0,0.2,0c0.2,0,0.3,0,0.4-0.1s0.2-0.1,0.3-0.2c0.1-0.1,0.2-0.1,0.3-0.2s0.2-0.1,0.3-0.1
	c0.1,0,0.2,0,0.3,0s0.2,0.1,0.3,0.2c0.1,0.1,0.1,0.2,0.2,0.3s0.1,0.3,0.1,0.4c0,0.2-0.1,0.4-0.2,0.6s-0.2,0.3-0.4,0.4
	c-0.2,0.1-0.4,0.2-0.6,0.3S10.1,14,9.9,14c-0.3,0-0.6,0-0.9-0.1c-0.3-0.1-0.5-0.2-0.7-0.4S8,13,7.9,12.8c-0.1-0.2-0.1-0.5-0.1-0.7
	c0-0.6,0.2-1.2,0.5-1.6C8.6,10,9,9.6,9.6,9.3c0.5-0.3,1.2-0.5,1.8-0.7c0.7-0.2,1.4-0.2,2.1-0.2c0.6,0,1,0,1.4,0.1s0.7,0.2,1,0.4
	c0.3,0.2,0.5,0.4,0.6,0.6s0.3,0.5,0.5,0.7l2.7,4.8c0.7-1.2,1.4-2.3,1.9-3.3c0.6-1,1.1-1.8,1.6-2.5c0.5-0.7,1-1.4,1.4-1.9
	c0.4-0.5,0.8-0.9,1.3-1.3s0.8-0.6,1.2-0.7c0.4-0.1,0.8-0.2,1.2-0.2c0.4,0,0.7,0.1,0.9,0.2s0.3,0.3,0.3,0.6c0,0.2,0,0.4-0.1,0.6
	C29.3,6.7,29.2,6.7,29,6.7L29,6.7z"/>
</svg>
