<svg id="Capa_1" data-name="Capa 1" xmlns="http://www.w3.org/2000/svg" xmlns:xlink="http://www.w3.org/1999/xlink" viewBox="0 0 874 672.48"><defs><clipPath id="clip-path" transform="translate(227 -11.52)"><rect y="297" width="662" height="423" style="fill:none"/></clipPath></defs><title>Sin título-1</title><path d="M320.64,293.18a13.22,13.22,0,0,0-5.87-7.06c-4-2.6-6.37-7.65-9.44-11.64,1.8-2.25,3.92-4.44,6.78-4.76,8.73-1,16.95-5.2,26-4.06,1.33.16,1.91-1,2.71-1.9a23.15,23.15,0,0,1,13.18-7c4.8-.76,7.19-2.12,7.89-6.68.2-1.28.6-3.63,1.82-2.83,4.23,2.79,5.31-1,7.43-2.86.72-.62,2.25-1.52,2.51-1.29,3.52,3.21,6.46-.64,9.63-.6,4.23.06,5.31-2.44,6-5.82.6-2.91-.15-6,1.53-8.76,2.93-4.78,3.92-10.07,4.5-15.61.33-3.25-2.07-7.69,3.06-9.5.07,0,.05-.31.09-.47,1.16-5.3,2.24-10.69,3.09-16,1.14-7.13,3.28-14.44,1.67-21.88,6.57,4.48,9.85,11.87,15.25,17.32,8.64,8.71,10.15,20.19,13.12,31.14a58.35,58.35,0,0,1,1.73,22.57c-.42,3.5.47,7-2.82,9.69-.87.71.25,1.81.43,2.74.65,3.3.73,6.36-1.42,9.47-2.67,3.9,0,8.37-.35,12.41-.56,6.08,2.24,13.3-4.36,18-2.64-10.45-10.13-17.31-17.53-24.39-2.76-2.65-6-5.26-7.34-9.06-.75-2.19-2.31-2.61-3.81-3.78-3.89-3.06-6.79-5.08-11.69-1.21-2.06,1.63-6.14,1.24-8.56,3.35-2.11,1.84-4.7,2.23-7,3.35-4.54,2.26-10.4,2.44-13.37,7.36-1.32,2.19-2.57,2.95-5.23,2.26-3.23-.83-5.95.34-6.75,4-.34,1.51-.34,3-2.65,2.52-1.51-.32-2.45.74-3.09,2a3.27,3.27,0,0,1-4,2c-3.51-.63-5.88.57-5.64,4.64.1,1.66-1.14,2.27-2.11,3.13-.6.54-1.57,1-1,2q5.07,8.47,9.7,17.21c4,7.45,10.93,7.66,18.39,4.89,4.8-1.79,9.8-3.79,14.8-4.07s9.58-2.32,14.4-2.87c4.3-.5,8.23-6,13-1.23-.09.14-.15.39-.26.41-7.87,2-14.81,6.6-23.14,7.49a34.08,34.08,0,0,0-13.78,4.36c-5.19,3.18-11.54,1.5-16.4,5.07-.8.59-1.64-.35-1.95-1.06-2-4.72-7.52-6.59-9.29-11.48-.18-5.76-7.76-6.13-8.48-11.54A8.59,8.59,0,0,0,320.64,293.18Z" transform="translate(227 -11.52)" style="fill:#eaeaea"/><path d="M311.06,253.87c-.85-5.1,2.36-9.54,2.44-14.43a261.92,261.92,0,0,1,2.06-29.77c.59-4.56,1.24-10.16,3.54-13.06,2.64-3.32,7.95-6.55,12.88-6.71,8.57-.29,15.11-5.15,22.29-8.45,4.84-2.22,10-3,15-4.42,2.92-.84,6-1.5,8.47-3.05,3.81-2.37,8.32-2.77,12.12-5-.55,1.23-1.39,3,.41,3.36,6.74,1.38,9.16,4.78,6.09,11.31-.12.25.06.65.09,1a25,25,0,0,1-3.16,15.47c-.19.33-.76.43-1.07.59-1.46-1,.75-2.7-1.31-3.74-1.35,2.86-4,7-2.08,8.6,4.07,3.31.64,5.26-.79,5.84-2.9,1.18-3.49,3-3.08,6.34-4-2.85-7-3.66-8.31,1.67-.21.84-2.12,1.14-2.58,2-2.6,5.06-10.52.52-12.27,6.92-.32-.09-.63-.16-.94-.27-.94-.33-1.43-2.39-2.79-1-1.16,1.22-.07,2.4.52,3.6,1.35,2.78.2,4.18-2.62,5.14-3.27,1.12-6.33,2.85-9.55,4.15-1.95.78-2.82,1.71-1.5,3.69,2.11,3.18.2,2.91-2.25,3-4.89.09-9.7.76-12.05,6.07-1.15,2.59-2.32,1.36-3.7.14-1.12-1-2.59-3.43-4-1.47C319.53,256.16,315.11,253.69,311.06,253.87Z" transform="translate(227 -11.52)" style="fill:#f4f4f4"/><path d="M311.06,253.87c4.05-.18,8.47,2.29,11.84-2.47,1.39-2,2.86.49,4,1.47,1.38,1.22,2.55,2.45,3.7-.14,2.35-5.31,7.16-6,12.05-6.07,2.45,0,4.36.22,2.25-3-1.32-2-.45-2.91,1.5-3.69,3.22-1.3,6.28-3,9.55-4.15,2.82-1,4-2.36,2.62-5.14-.59-1.2-1.68-2.38-.52-3.6,1.36-1.42,1.85.64,2.79,1,.31.11.62.18.94.27,1.75-6.4,9.67-1.86,12.27-6.92.46-.9,2.37-1.2,2.58-2,1.34-5.33,4.35-4.52,8.31-1.67-.41-3.33.18-5.16,3.08-6.34,1.43-.58,4.86-2.53.79-5.84-1.92-1.57.73-5.74,2.08-8.6,2.06,1-.15,2.74,1.31,3.74.31-.16.88-.26,1.07-.59a25,25,0,0,0,3.16-15.47c0-.33-.21-.73-.09-1,3.07-6.53.65-9.93-6.09-11.31-1.8-.37-1-2.13-.41-3.36a58.63,58.63,0,0,1,13.4-4.53c1.61,7.44-.53,14.75-1.67,21.88-.85,5.28-1.93,10.67-3.09,16,0,.16,0,.45-.09.47-5.13,1.81-2.73,6.25-3.06,9.5-.58,5.54-1.57,10.83-4.5,15.61-1.68,2.74-.93,5.85-1.53,8.76-.69,3.38-1.77,5.88-6,5.82-3.17,0-6.11,3.81-9.63.6-.26-.23-1.79.67-2.51,1.29-2.12,1.84-3.2,5.65-7.43,2.86-1.22-.8-1.62,1.55-1.82,2.83-.7,4.56-3.09,5.92-7.89,6.68a23.15,23.15,0,0,0-13.18,7c-.8.88-1.38,2.06-2.71,1.9-9.05-1.14-17.27,3.1-26,4.06-2.86.32-5,2.51-6.78,4.76-.35-.35-1-.78-1-1C305.87,266.68,304.83,259,311.06,253.87Z" transform="translate(227 -11.52)" style="fill:#f1f1f1"/><path d="M395.36,300c-4.77-4.8-8.7.73-13,1.23-4.82.55-9.33,2.58-14.4,2.87s-10,2.28-14.8,4.07c-7.46,2.77-14.43,2.56-18.39-4.89q-4.65-8.75-9.7-17.21c-.58-1,.39-1.46,1-2,1-.86,2.21-1.47,2.11-3.13-.24-4.07,2.13-5.27,5.64-4.64a3.27,3.27,0,0,0,4-2c.64-1.28,1.58-2.34,3.09-2,2.31.49,2.31-1,2.65-2.52.8-3.69,3.52-4.86,6.75-4,2.66.69,3.91-.07,5.23-2.26,3-4.92,8.83-5.1,13.37-7.36,2.27-1.12,4.86-1.51,7-3.35,2.42-2.11,6.5-1.72,8.56-3.35,4.9-3.87,7.8-1.85,11.69,1.21,1.5,1.17,3.06,1.59,3.81,3.78,1.29,3.8,4.58,6.41,7.34,9.06,7.4,7.08,14.89,13.94,17.53,24.39-.15.29-.29.58-.43.87-2.7-1.62-3.58.33-4.46,2.28l-.87-.36c-4.17-3-8.06,1.74-12.17.45-.49,3.34-5.94,2.28-5.62,6.34C400,299.75,396.61,297.5,395.36,300Zm18.74-24.06c-1.12.91,1.35,2.6-.61,3.19a2.56,2.56,0,0,1-3.29-1.55c-1-2.38-3-3.86-3.79-6.68-1.86-7-5.22-8.19-12.54-9.23-4.37-.62-9.93,1.67-12.88-1.55-4.22-4.62-6.25-.9-10.33.82,2.8.68,4.57,1.58,6.21,1.39,2.44-.28,3.72.25,4.21,3-13.15-.89-24.77,1.73-33.82,11.81-1.61,1.8-3.92,4.08-2.85,5.82,1.71,2.78.85,6.82,5.33,8.49a10.18,10.18,0,0,1-7.15-.65,2,2,0,0,0-2.65.58c-.61,1,.57,1.36.88,2,.94,2.06,2.89,3.09,4.33,4.64,1.2,1.3-3.25,1.3-1.07,3.28,1.82,1.65,2.88-1.12,4.46-.76.47.1,1.17.3,1.3.63,1.25,3.42,3.19,2.16,5.38,1.07a3.31,3.31,0,0,1,3.79.32c3.33,3.36,3,.14,3.58-1.83.39-1.34.06-4.68,2.26-3.12,5.45,3.87,10.44,1.09,15.58.12,2.85-.53,4.9-2.84,6.77-4.68,1.44-1.42-1.87-1-2.26-2.16A1.33,1.33,0,0,1,386,289a9.22,9.22,0,0,1,3.89.4,12.4,12.4,0,0,1,6.07,3.51c1.82-3.72,6.5-2.7,9-5.48,1.81-2.05,3.87-3.68,7-4C415.33,283.08,416.52,278.51,414.1,275.91Z" transform="translate(227 -11.52)" style="fill:#dadada"/><path d="M401.25,297.35c-.32-4.06,5.13-3,5.62-6.34,4.11,1.29,8-3.44,12.17-.45-2.44,3.75-7,4-10.51,5.24C406.51,296.52,404,298.6,401.25,297.35Z" transform="translate(227 -11.52)" style="fill:#eaeaea"/><path d="M320.64,293.18a8.59,8.59,0,0,1,1.42,0c.72,5.41,8.3,5.78,8.48,11.54a63.22,63.22,0,0,0-5.46-3.95C322.45,299.13,319.39,297.29,320.64,293.18Z" transform="translate(227 -11.52)" style="fill:#f1f1f1"/><path d="M419.91,290.92c.88-1.95,1.76-3.9,4.46-2.28Z" transform="translate(227 -11.52)" style="fill:#eaeaea"/><path d="M414.1,275.91c2.42,2.6,1.23,7.17-2.18,7.53-3.09.32-5.15,1.95-7,4-2.47,2.78-7.15,1.76-9,5.48a12.4,12.4,0,0,0-6.07-3.51A9.22,9.22,0,0,0,386,289a1.33,1.33,0,0,0-1.09,1.85c.39,1.17,3.7.74,2.26,2.16-1.87,1.84-3.92,4.15-6.77,4.68-5.14,1-10.13,3.75-15.58-.12-2.2-1.56-1.87,1.78-2.26,3.12-.56,2-.25,5.19-3.58,1.83a3.31,3.31,0,0,0-3.79-.32c-2.19,1.09-4.13,2.35-5.38-1.07-.13-.33-.83-.53-1.3-.63-1.58-.36-2.64,2.41-4.46.76-2.18-2,2.27-2,1.07-3.28-1.44-1.55-3.39-2.58-4.33-4.64-.31-.68-1.49-1.06-.88-2a2,2,0,0,1,2.65-.58,10.18,10.18,0,0,0,7.15.65c-4.48-1.67-3.62-5.71-5.33-8.49-1.07-1.74,1.24-4,2.85-5.82,9.05-10.08,20.67-12.7,33.82-11.81-.49-2.71-1.77-3.24-4.21-3-1.64.19-3.41-.71-6.21-1.39,4.08-1.72,6.11-5.44,10.33-.82,2.95,3.22,8.51.93,12.88,1.55,7.32,1,10.68,2.26,12.54,9.23.75,2.82,2.82,4.3,3.79,6.68a2.56,2.56,0,0,0,3.29,1.55C415.45,278.51,413,276.82,414.1,275.91Z" transform="translate(227 -11.52)" style="fill:#d2d2d2"/><path d="M182.2,145.9a13.22,13.22,0,0,1,6.36-6.61c4.17-2.31,6.91-7.17,10.27-10.93-1.64-2.37-3.59-4.71-6.42-5.23-8.64-1.6-16.52-6.42-25.64-5.95-1.33.07-1.83-1.15-2.56-2.08a23.19,23.19,0,0,0-12.64-8c-4.73-1.1-7-2.63-7.38-7.23-.1-1.29-.33-3.67-1.61-2.95-4.42,2.47-5.22-1.41-7.2-3.4-.68-.67-2.14-1.67-2.41-1.46-3.75,2.94-6.4-1.12-9.56-1.3-4.22-.25-5.12-2.82-5.57-6.25-.38-2.94.6-6-.88-8.84-2.58-5-3.18-10.34-3.35-15.9-.1-3.26,2.61-7.52-2.37-9.69-.07,0,0-.31,0-.48-.78-5.37-1.47-10.82-1.92-16.15-.62-7.2-2.23-14.64-.08-21.94-6.88,4-10.69,11.11-16.47,16.16-9.25,8.06-11.59,19.4-15.35,30.11A58.3,58.3,0,0,0,74,80.17c.16,3.53-1,7,2.1,9.87.83.77-.37,1.79-.62,2.71-.89,3.23-1.19,6.28.72,9.54,2.39,4.08-.63,8.35-.55,12.4.12,6.1-3.2,13.1,3,18.25,3.39-10.23,11.36-16.53,19.25-23,3-2.44,6.42-4.81,8-8.5.9-2.14,2.5-2.44,4.08-3.5,4.1-2.77,7.14-4.57,11.74-.36,1.94,1.78,6,1.69,8.3,4,2,2,4.52,2.56,6.71,3.85,4.36,2.58,10.19,3.18,12.8,8.31,1.15,2.27,2.34,3.12,5.05,2.63,3.28-.59,5.91.78,6.44,4.51.22,1.53.11,3,2.45,2.71,1.54-.22,2.4.91,2.94,2.24a3.27,3.27,0,0,0,3.84,2.33c3.55-.38,5.83,1,5.29,5-.22,1.65,1,2.35,1.88,3.28.55.57,1.49,1.13.84,2.06q-5.67,8.08-10.93,16.46c-4.49,7.14-11.46,6.85-18.69,3.54-4.66-2.13-9.5-4.49-14.47-5.14s-9.38-3-14.15-3.9c-4.25-.81-7.77-6.62-12.87-2.17.07.15.11.39.23.43,7.7,2.53,14.29,7.65,22.53,9.15a34,34,0,0,1,13.42,5.34c4.95,3.55,11.4,2.34,16,6.25.76.65,1.66-.22,2-.92,2.36-4.55,8-6,10.11-10.77.6-5.73,8.17-5.55,9.29-10.89A9,9,0,0,1,182.2,145.9Z" transform="translate(227 -11.52)" style="fill:#eaeaea"/><path d="M194.61,107.39c1.21-5-1.67-9.68-1.38-14.56a263.07,263.07,0,0,0,.1-29.85c-.26-4.59-.5-10.22-2.58-13.28-2.4-3.5-7.45-7.11-12.36-7.63-8.52-.91-14.69-6.24-21.62-10-4.66-2.57-9.77-3.72-14.6-5.5-2.84-1.05-5.84-1.93-8.22-3.66-3.63-2.63-8.1-3.36-11.73-5.86.46,1.26,1.17,3.08-.65,3.31-6.82.89-9.48,4.11-6.89,10.85.1.26-.11.64-.17,1a25,25,0,0,0,2,15.67c.17.34.73.48,1,.66,1.53-.89-.56-2.74,1.57-3.64,1.15,3,3.48,7.31,1.45,8.73-4.3,3-1,5.2.37,5.89,2.81,1.39,3.26,3.25,2.61,6.54,4.15-2.55,7.21-3.14,8.16,2.27.15.85,2,1.29,2.43,2.22,2.23,5.24,10.46,1.29,11.74,7.79.32-.06.64-.11.95-.19,1-.26,1.61-2.29,2.85-.77,1.07,1.3-.1,2.4-.77,3.56-1.55,2.67-.51,4.15,2.23,5.31,3.19,1.36,6.11,3.31,9.23,4.83,1.88.92,2.68,1.91,1.23,3.79-2.34,3-.42,2.89,2,3.11,4.88.45,9.62,1.47,11.58,6.94,1,2.67,2.21,1.52,3.68.41,1.19-.9,2.84-3.24,4.08-1.18C186,109.06,190.59,106.91,194.61,107.39Z" transform="translate(227 -11.52)" style="fill:#f4f4f4"/><path d="M194.61,107.39c-4-.48-8.61,1.67-11.63-3.32-1.24-2.06-2.89.28-4.08,1.18-1.47,1.11-2.72,2.26-3.68-.41-2-5.47-6.7-6.49-11.58-6.94-2.44-.22-4.36-.08-2-3.11,1.45-1.88.65-2.87-1.23-3.79-3.12-1.52-6-3.47-9.23-4.83-2.74-1.16-3.78-2.64-2.23-5.31.67-1.16,1.84-2.26.77-3.56-1.24-1.52-1.88.51-2.85.77-.31.08-.63.13-.95.19-1.28-6.5-9.51-2.55-11.74-7.79-.39-.93-2.28-1.37-2.43-2.22-.95-5.41-4-4.82-8.16-2.27.65-3.29.2-5.15-2.61-6.54-1.39-.69-4.67-2.88-.37-5.89,2-1.42-.3-5.77-1.45-8.73-2.13.9,0,2.75-1.57,3.64-.3-.18-.86-.32-1-.66a25,25,0,0,1-2-15.67c.06-.32.27-.7.17-1-2.59-6.74.07-10,6.89-10.85,1.82-.23,1.11-2.05.65-3.31a58.09,58.09,0,0,0-13-5.49c-2.15,7.3-.54,14.74.08,21.94.45,5.33,1.14,10.78,1.92,16.15,0,.17,0,.45,0,.48,5,2.17,2.27,6.43,2.37,9.69.17,5.56.77,10.92,3.35,15.9,1.48,2.86.5,5.9.88,8.84.45,3.43,1.35,6,5.57,6.25,3.16.18,5.81,4.24,9.56,1.3.27-.21,1.73.79,2.41,1.46,2,2,2.78,5.87,7.2,3.4,1.28-.72,1.51,1.66,1.61,2.95.37,4.6,2.65,6.13,7.38,7.23a23.19,23.19,0,0,1,12.64,8c.73.93,1.23,2.15,2.56,2.08,9.12-.47,17,4.35,25.64,5.95,2.83.52,4.78,2.86,6.42,5.23.37-.32,1.09-.7,1-1C198.85,120.54,200.45,113,194.61,107.39Z" transform="translate(227 -11.52)" style="fill:#f1f1f1"/><path d="M101.5,144.21c.61-4-4.9-3.37-5.15-6.74-4.19,1-7.72-4-12.1-1.33l-.9.29c-.73-2-1.46-4-4.27-2.59-.13-.3-.25-.6-.37-.9,3.39-10.23,11.36-16.53,19.25-23,3-2.44,6.42-4.81,8-8.5.9-2.14,2.5-2.44,4.08-3.5,4.1-2.77,7.14-4.57,11.74-.36,1.94,1.78,6,1.69,8.3,4,2,2,4.52,2.56,6.71,3.85,4.36,2.58,10.19,3.18,12.8,8.31,1.15,2.27,2.34,3.12,5.05,2.63,3.28-.59,5.91.78,6.44,4.51.22,1.53.11,3,2.45,2.71,1.54-.22,2.4.91,2.94,2.24a3.27,3.27,0,0,0,3.84,2.33c3.55-.38,5.83,1,5.29,5-.22,1.65,1,2.35,1.88,3.28.55.57,1.49,1.13.84,2.06q-5.67,8.08-10.93,16.46c-4.49,7.14-11.46,6.85-18.69,3.54-4.66-2.13-9.5-4.49-14.47-5.14s-9.38-3-14.15-3.9c-4.25-.81-7.77-6.62-12.87-2.17C106.11,144.69,102.6,146.7,101.5,144.21Zm-9.64-14.66c3.07.55,5,2.33,6.66,4.51,2.25,2.95,7,2.27,8.54,6.11a12.4,12.4,0,0,1,6.31-3.06,9.23,9.23,0,0,1,3.91-.12,1.33,1.33,0,0,1,1,1.93c-.48,1.14-3.75.46-2.41,2,1.73,2,3.61,4.42,6.41,5.16,5.06,1.34,9.83,4.48,15.54,1,2.32-1.4,1.74,1.91,2,3.28.42,2-.12,5.19,3.44,2.08a3.33,3.33,0,0,1,3.8-.05c2.11,1.25,4,2.65,5.45-.66.15-.33.86-.48,1.34-.55,1.6-.24,2.45,2.6,4.4,1.09,2.31-1.82-2.13-2.14-.83-3.35,1.54-1.44,3.57-2.33,4.65-4.31.36-.66,1.56-1,1-2a2,2,0,0,0-2.61-.77,10.17,10.17,0,0,1-7.17.14c4.59-1.35,4-5.44,5.93-8.09,1.19-1.65-.94-4.09-2.42-6-8.29-10.71-19.7-14.16-32.87-14.24.68-2.66,2-3.09,4.41-2.64,1.63.31,3.45-.46,6.3-.93-3.95-2-5.71-5.87-10.25-1.58-3.17,3-8.55.32-13,.62-7.37.51-10.81,1.47-13.17,8.29-1,2.76-3.13,4.09-4.27,6.39a2.57,2.57,0,0,1-3.39,1.31c-1.92-.73.67-2.24-.38-3.23C87.64,124.31,88.49,129,91.86,129.55Z" transform="translate(227 -11.52)" style="fill:#dadada"/><path d="M101.5,144.21c.61-4-4.9-3.37-5.15-6.74-4.19,1-7.72-4-12.1-1.33,2.16,3.92,6.65,4.48,10.1,6C96.32,143,98.68,145.25,101.5,144.21Z" transform="translate(227 -11.52)" style="fill:#eaeaea"/><path d="M182.2,145.9a9,9,0,0,0-1.42-.06c-1.12,5.34-8.69,5.16-9.29,10.89a64.16,64.16,0,0,1,5.72-3.54C180,151.71,183.15,150.1,182.2,145.9Z" transform="translate(227 -11.52)" style="fill:#f1f1f1"/><path d="M83.35,136.43c-.73-2-1.46-4-4.27-2.59Z" transform="translate(227 -11.52)" style="fill:#eaeaea"/><path d="M90.24,121.89c-2.6,2.42-1.75,7.06,1.62,7.66,3.07.55,5,2.33,6.66,4.51,2.25,2.95,7,2.27,8.54,6.11a12.4,12.4,0,0,1,6.31-3.06,9.23,9.23,0,0,1,3.91-.12,1.33,1.33,0,0,1,1,1.93c-.48,1.14-3.75.46-2.41,2,1.73,2,3.61,4.42,6.41,5.16,5.06,1.34,9.83,4.48,15.54,1,2.32-1.4,1.74,1.91,2,3.28.42,2-.12,5.19,3.44,2.08a3.33,3.33,0,0,1,3.8-.05c2.11,1.25,4,2.65,5.45-.66.15-.33.86-.48,1.34-.55,1.6-.24,2.45,2.6,4.4,1.09,2.31-1.82-2.13-2.14-.83-3.35,1.54-1.44,3.57-2.33,4.65-4.31.36-.66,1.56-1,1-2a2,2,0,0,0-2.61-.77,10.17,10.17,0,0,1-7.17.14c4.59-1.35,4-5.44,5.93-8.09,1.19-1.65-.94-4.09-2.42-6-8.29-10.71-19.7-14.16-32.87-14.24.68-2.66,2-3.09,4.41-2.64,1.63.31,3.45-.46,6.3-.93-3.95-2-5.71-5.87-10.25-1.58-3.17,3-8.55.32-13,.62-7.37.51-10.81,1.47-13.17,8.29-1,2.76-3.13,4.09-4.27,6.39a2.57,2.57,0,0,1-3.39,1.31C88.7,124.39,91.29,122.88,90.24,121.89Z" transform="translate(227 -11.52)" style="fill:#d2d2d2"/><path d="M179,436c7.06-3.92,12.12-10.71,20.23-13.41,2.59-.86,4.78-1.9,7.65-1.85,3.08.05,3.33-3.77,5.78-5.25,3.44-2.07,7.61-3.65,9.27-8.15.84-2.27,3-3.71,5.58-4.47,4.34-1.27,7-5.21,10.74-7.58,5-3.17,10.73-3.78,15.86-6.18,1.63-.76,3.18.53,4.32,1.85,3.87,4.49,8.61,8.22,11.48,13.61a10.49,10.49,0,0,0,4.42,4.58c8,4,12.38,10.79,16,18.65,1.34,2.92,4,5.42,5.57,8.47A7.16,7.16,0,0,1,297,440c-5.44-1.42-6.16-7-9.16-10.57-3.52-4.16-6.48-8.79-10.32-14.1a19.71,19.71,0,0,0,3.84,13.93c3.47,5.13,8.1,10,8.48,16.82.12,2.05,2.27,5.08-1.47,5.61-3.54.5-7,5-10.81.7a4.11,4.11,0,0,0-5.81-.76c-1.82,1.5.35,2.92,1.43,4,2.45,2.44.66,3.56-1.4,4.19a8.36,8.36,0,0,1-4.44,0c-2.27-.65-4.55-.75-5.91,1.08-1.49,2,2.11,2.58,2,4.47-4.89-.05-7-.18-8.06-2.32-1.44-2.84-3.38-1.59-4.38-.7-1.79,1.61.52,2.42,1.45,3.33.71.7,1.75,1.23,1.12,2.38a2,2,0,0,1-1.61.84c-3.5-.6-7.05-2.4-10.23,1-.21.22-1.5-.44-2.19-.85-1.56-.95-3-2-4.57-3-1-1.9-2.25-2.5-3.74-.49-1.64,2.23-3.21,1.54-5.07.22a9.2,9.2,0,0,1-3.87-6c-.27-1.39-.95-3.65-2.79-2.23-5.42,4.15-9.2,3.1-12-2.89-.11-.24-.53-.39-.84-.48-2.57-.78-3.42-2.54-3.82-5.16-.52-3.34-2.93-5.11-6.19-5.54-1,3.82,2.72,4.56,3.67,7.16-2.27-1.39-6.54.79-6.85-2.45-.34-3.58-3.55-6.48-2-10.4.73-1.82-.94-3.32-2.18-4.07-1.59-.95-2,1.08-2.77,2.06-.93,1.26-2.23,1.3-3.58,1.29Z" transform="translate(227 -11.52)" style="fill:#efefef"/><path d="M235,466c1.52,1,3,2.07,4.57,3,.69.41,2,1.07,2.19.85,3.18-3.36,6.73-1.56,10.23-1a2,2,0,0,0,1.61-.84c.63-1.15-.41-1.68-1.12-2.38-.93-.91-3.24-1.72-1.45-3.33,1-.89,2.94-2.14,4.38.7,1.08,2.14,3.17,2.27,8.06,2.32.07-1.89-3.53-2.46-2-4.47,1.36-1.83,3.64-1.73,5.91-1.08a8.36,8.36,0,0,0,4.44,0c2.06-.63,3.85-1.75,1.4-4.19-1.08-1.08-3.25-2.5-1.43-4a4.11,4.11,0,0,1,5.81.76c3.84,4.34,7.27-.2,10.81-.7,3.74-.53,1.59-3.56,1.47-5.61-.38-6.8-5-11.69-8.48-16.82a19.71,19.71,0,0,1-3.84-13.93c3.84,5.31,6.8,9.94,10.32,14.1,3,3.56,3.72,9.15,9.16,10.57,4,5.26,8.37,10.2,12.17,15.65,2.06,3,.63,6.27,3.42,9.13a67.13,67.13,0,0,1,13.18,19.65c1.34,3,1.21,5.61-1.71,7.63-.35-2.66-2.43-1.91-4.06-2.06,3.77-4,3.58-5.79-1-9,0-2.26-1.6-3.57-3-5,0-1.35,0-2.72-1.3-3.56-4.44-2.86-5.88-7.91-9-12.41-.65,2.67-2.44,4.18-4.15,5.57-2.69,2.2-5.7,2.53-8.26-.38-.68-.78-.6-2.6-2.29-1.43a2,2,0,0,0-.4,3.08c1.43,1.75,1.11,2.42-.87,3.66s-2.81,1.23-3.83-.71c-1.11-2.11-2.36-1.52-4-.41s-2.29,2.77-3.29,4.26c-.84,1.24-1.83,2.54-3.62,2.08s-1.87-2-2-3.59c-.13-1.88.51-3.9-.72-5.89-1.56,1.44-3,4.43-4.33.19-.59-1.89-1.69-1.07-2.6-.22-1.71,1.61-.69,2.1.85,3.16,2.12,1.46,6.42,2.28,3.41,6.8-.19.29-.66,6.2,4,6.17.74,0,1.3.33,1.21,1.18a1.58,1.58,0,0,1-2.2,1.37c-5.41-1.92-10.69-.13-16,.71-.28-2,3.7-1.87,1.77-4-1.2-1.31-3-.41-4.62.1-3.35,1-5.77,2.67-7,6.12a5.65,5.65,0,0,1-2.66,2.82c-2.75,1.36-5.56,2.46-8.27,4-6,3.44-9.69,9-15.41,12.88a36,36,0,0,0,.46-4c0-.91-.95-1.89-1.57-1.31-1.49,1.41-4.71,3.2-4.6,3.51,1.64,4.56-3.63,6.43-3.68,10.16-3.39-6.64-7.87-12.73-10.05-20,2-1.14,4.07-.66,6.23-.64,2.56,0,7.25.92,5.15-4.74-.28-.76-.54-1.78.53-2.09,1.24-.37,1.56.86,2.2,1.58,1,1.09,2.26,3.89,3.38,1.8.86-1.6,5.13-2.73,2.17-6-.76-.83-1.84-2-.75-3.74,3.08.85,6.13,2.61,9.52,1,.44-.21,1.55.5,2.06,1.05,1.25,1.37,1.69,3.94,4.35,3.12a3.31,3.31,0,0,0,2.06-2.65c.64-3.29-2.95-2.56-4-4.23-.16-.25-.56-.34-.85-.5v-2c1.64-1.66,1.13-2.6-1-3h-3c.05-2.3,1.92-3.36,3.29-4.72S235.45,468.3,235,466Zm48-4.13c-.44-1.84-1-3.64-3.49-1.82-1,.74-1.7,1.75-3.36,1.59-3.53-.34-2.27,2.06-1.31,3.32s2.85,2.59,4.74,1.57C281.29,465.61,282.83,464.26,283,461.87Zm-24.79,7.05c.71-.07,1.23-.15,1-.85-.08-.26-.46-.63-.67-.61a3.59,3.59,0,0,0-1.1.53Zm19.42-11.19c-.28-.12-.62-.4-.82-.32s-.26.51-.38.79c.28.12.62.39.81.32S277.5,458,277.62,457.73Z" transform="translate(227 -11.52)" style="fill:#eaeaea"/><path d="M211,516c.05-3.73,5.32-5.6,3.68-10.16-.11-.31,3.11-2.1,4.6-3.51.62-.58,1.57.4,1.57,1.31a36,36,0,0,1-.46,4c5.72-3.86,9.46-9.44,15.41-12.88,2.71-1.57,5.52-2.67,8.27-4a5.65,5.65,0,0,0,2.66-2.82c1.21-3.45,3.63-5.1,7-6.12,1.65-.51,3.42-1.41,4.62-.1,1.93,2.12-2.05,2-1.77,4,5.3-.84,10.58-2.63,16-.71a1.58,1.58,0,0,0,2.2-1.37c.09-.85-.47-1.19-1.21-1.18-4.64,0-4.17-5.88-4-6.17,3-4.52-1.29-5.34-3.41-6.8-1.54-1.06-2.56-1.55-.85-3.16.91-.85,2-1.67,2.6.22,1.35,4.24,2.77,1.25,4.33-.19,1.23,2,.59,4,.72,5.89.11,1.55.15,3.12,2,3.59s2.78-.84,3.62-2.08c1-1.49,1.64-3.15,3.29-4.26s2.91-1.7,4,.41c1,1.94,1.88,1.92,3.83.71s2.3-1.91.87-3.66a2,2,0,0,1,.4-3.08c1.69-1.17,1.61.65,2.29,1.43,2.56,2.91,5.57,2.58,8.26.38,1.71-1.39,3.5-2.9,4.15-5.57,3.13,4.5,4.57,9.55,9,12.41,1.31.84,1.31,2.21,1.3,3.56-4.52-3.33-8.94,1.64-14.05.36,1.67-1.6,3-2.75,4.17-4,.72-.77,2.16-1.55,1.17-2.8-.79-1-2.11-.49-3.21-.07-1.78.68-2.73,3-5.09,2.53-1.45,0-2.89,0-3,2-3.49.9-7.67.89-8,6a2.05,2.05,0,0,1-2,1c-5.09-2-4.41,2.84-6,5-1.66,1.65-6.2-2.4-6,3,0,1,0,2,0,3a9.76,9.76,0,0,1-2.77-1c-2.43-1.8-3.75-2.41-4.87,1.53-.66,2.34-2.94,4.43-5.89,5.55A18,18,0,0,0,253,503h0a8.76,8.76,0,0,0-5.65,1.36c-1.64,1.06-2.57,3.39-4.67,3.47-6,.25-8.26,4.21-9.68,9.17h0c-3.32,1.13-6.76,2.09-8,6l-1,0c-3.62-.14-3.85,2.43-4,5C214.61,525.79,213,520.75,211,516Z" transform="translate(227 -11.52)" style="fill:#e4e4e4"/><path d="M289.94,521.83,286.06,524,284,524a4,4,0,0,0-2.9,1.65c-1.91,2-4.76,1.42-6.84,1.19-2.64-.29-4.11-.49-6.21,2.34L267,532c-1.1,1.1-2.09,2.4-3.95,2-1-3.29-2.51-1.29-3.23-.06-1.56,2.65-3.84,3.43-6.56,4.54-2.38,1-5.72-.11-7.39,2.9-.45.82-2.24.82-2.48-.28-1-4.48-4.09-1.88-6.34-2.11h0c-1.19-1.86,5.9-5.09-1-6l-.42-.23.42.23a2.81,2.81,0,0,1-3,3l0-2c-.18-3.94,1.68-6.77,5.28-7.94,2.65-.85,4-2,3.77-4.87-.12-1.31-.09-3.12,1.71-3,5.11.25,9.43-1.45,14-3.59,4-1.84,9.41-.73,11-6.6.1-.38.72-.66,1.14-.9,3.19-1.88,5.13-4.37,4.55-8.36-.31-2.18,1.84-2.59,3.14-3.32,1.73-1,2,.78,2.71,1.89s1.39,3.91,3.2,3.14c4.55-1.95,7.38,1.58,11.81,2.75-7.23.16-.47,6.83-4.74,8.2-1.11-1.27-.11-3.73-2.52-3.87-.29,0-.84.57-.9.94-.3,1.79.23,3.67,1.85,4.23,2,.71,2.08,4.19,5,3.32,0,1.31,0,2.63,0,3.94-.3,0-.6.09-.9.11C291.64,520,290.21,519.89,289.94,521.83Z" transform="translate(227 -11.52)" style="fill:#cecece"/><path d="M294,516c-2.91.87-2.95-2.61-5-3.32-1.62-.56-2.15-2.44-1.85-4.23.06-.37.61-1,.9-.94,2.41.14,1.41,2.6,2.52,3.87,4.27-1.37-2.49-8,4.74-8.2-4.43-1.17-7.26-4.7-11.81-2.75-1.81.77-2.38-1.88-3.2-3.14s-1-2.85-2.71-1.89c-1.3.73-3.45,1.14-3.14,3.32.58,4-1.36,6.48-4.55,8.36-.42.24-1,.52-1.14.9-1.58,5.87-7,4.76-11,6.6-4.61,2.14-8.93,3.84-14,3.59-1.8-.09-1.83,1.72-1.71,3,.25,2.87-1.12,4-3.77,4.87-3.6,1.17-5.46,4-5.28,7.94-2,.11-2.48-2-3.85-2.64-1.6-.72-4.28-2.7-4.14,1.62a3.26,3.26,0,0,1-3-1.93q1-4,2-8.06l1,0c5.09,1.1,7-.35,8-6h0c5.3-1.72,9.75-5,14.44-7.82,2.54-1.55,6.08-2,5.56-6.18h0c2.2-1.17,3.7,2.27,6.23.68,4.21-2.65,7.24-7.06,12.49-8.19.9-.2,1.53-1.63,2.28-2.49,1-.67,2.72-.73,2.56-2.35-.12-1.27-1.37-1.58-2.54-1.66-.23-5.4,4.31-1.35,6-3h4l1.26,1.51c2.94-4.19,6-2.05,9-.14.09.05.3-.1.46-.15,1.67-.47,3,0,3.67,1.63.77,1.84,2.22,2.36,4,2.15,2.49-.3,4.48,1,6.57,2,0,.67,0,1.33,0,2-1.2.1-2.59.41-2.52,1.77.09,1.7,1.67,1.3,2.68,1A4,4,0,0,1,312,498v1c-2.58.9-5.13,1.82-2,5-.06,1.24-.6,2.83-1.72,2.6-4.69-1-2.95,2.41-3.25,4.43h0C300.54,510.87,297.39,513.69,294,516Z" transform="translate(227 -11.52)" style="fill:#d3d3d3"/><path d="M233,480c.29.16.69.25.85.5,1.08,1.67,4.67.94,4,4.23a3.31,3.31,0,0,1-2.06,2.65c-2.66.82-3.1-1.75-4.35-3.12-.51-.55-1.62-1.26-2.06-1.05-3.39,1.6-6.44-.16-9.52-1-1.09,1.73,0,2.91.75,3.74,3,3.25-1.31,4.38-2.17,6-1.12,2.09-2.42-.71-3.38-1.8-.64-.72-1-1.95-2.2-1.58-1.07.31-.81,1.33-.53,2.09,2.1,5.66-2.59,4.76-5.15,4.74-2.16,0-4.23-.5-6.23.64l-1-1c.23-2.19-.71-3.24-3-3l-1-3c.83-1.48-.57-.75-1-1a2.11,2.11,0,0,1-1-2h3l3,1c.18,3.25,3.33,3.17,5.2,4.47.62.43,1.36-.69,1.61-1.5.84-2.82-2-3.49-3.15-5.13-.95-1.39-2.4.4-3.66.16-.23-2.65-2-.63-3-1-1.37-.33-2.64-1.23-.46-1.77s4.56-.64,6.72-1.47c1-.4,2.49-.66,2.25-2.19-.17-1.06-1.24-1.48-2.3-1.54-1.85-.1-3.91-1.18-3.7-2.63.38-2.52-.63-4-2-5.68-1-1.25-.31-2.51.9-3.4,1.9-1.38,3.67-4.33,2-5.21-2.34-1.28-5.36-4-8.4-2-3.31,2.2-4.62,1.51-5.13-2.17a3.21,3.21,0,0,0-1-2.16c-4.6-2.69-3.55-7-2.29-10.51.95-2.64.27-4.26-.69-6.26,1.35,0,2.65,0,3.58-1.29.72-1,1.18-3,2.77-2.06,1.24.75,2.91,2.25,2.18,4.07-1.58,3.92,1.63,6.82,2,10.4.31,3.24,4.58,1.06,6.85,2.45-.95-2.6-4.71-3.34-3.67-7.16,3.26.43,5.67,2.2,6.19,5.54.4,2.62,1.25,4.38,3.82,5.16.31.09.73.24.84.48,2.8,6,6.58,7,12,2.89,1.84-1.42,2.52.84,2.79,2.23a9.2,9.2,0,0,0,3.87,6c1.86,1.32,3.43,2,5.07-.22,1.49-2,2.72-1.41,3.74.49.45,2.3-1.46,3-2.71,4.28S229.05,472.7,229,475c-3.4-.28-6.65,1.93-10.22.27-1.4-.65-2.24,1.16-2.36,2.5a1,1,0,0,0,1.71.89c2.26-2.73,3.85-.17,5.46.68C226.69,481,229.72,481.79,233,480Zm-24-4c.49.86.93,1.83,2.19,1.55.19,0,.44-.53.4-.76-.25-1.44-1.39-1.68-2.59-1.79-.41-.58-1.12-1.1-1.45-.28C207.11,475.85,208.24,475.86,209,476Zm.78-5c1.22-.16,3,.33,3-1.66-.09-2.26-2.18-2.8-3.9-3.11s-2.76.93-2.73,2.67C206.17,471.49,208.24,470.84,209.78,471Zm-17.93-17.95c-.44-1.1-.63-2.54-2.18-2.84a1.2,1.2,0,0,0-1.48,1.41,3,3,0,0,0,2.74,2.92C191.76,454.64,191.82,453.81,191.85,453.06Zm22.53,29.21c.28.12.62.4.82.32s.26-.51.38-.79c-.28-.12-.62-.39-.81-.32S214.5,482,214.38,482.27Zm3-13c.28.12.62.4.82.32s.26-.51.38-.79c-.28-.12-.62-.39-.81-.32S217.5,469,217.38,469.27Zm5.87-.63c.12-.28.39-.62.31-.82s-.51-.26-.78-.38c-.12.28-.39.62-.31.82S223,468.52,223.25,468.64Zm-18.67-5.92-.83-.35c-.12.27-.39.61-.31.81s.51.26.78.38Zm-1.85-7.34c-.12.28-.4.62-.32.82s.51.26.79.38c.12-.28.39-.62.32-.81S203,455.5,202.73,455.38Z" transform="translate(227 -11.52)" style="fill:#ededed"/><path d="M183,437c1,2,1.64,3.62.69,6.26-1.26,3.47-2.31,7.82,2.29,10.51a3.21,3.21,0,0,1,1,2.16c.51,3.68,1.82,4.37,5.13,2.17,3-2,6.06.73,8.4,2,1.62.88-.15,3.83-2,5.21-1.21.89-1.89,2.15-.9,3.4,1.35,1.72,2.36,3.16,2,5.68-.21,1.45,1.85,2.53,3.7,2.63,1.06.06,2.13.48,2.3,1.54.24,1.53-1.24,1.79-2.25,2.19-2.16.83-4.52.93-6.72,1.47s-.91,1.44.46,1.77v2h-3c-4.33-7.5-8.56-15.07-13-22.49-3.31-5.49-6.84-10.86-10.43-16.17-1.75-2.59-2.08-4,1.38-5.64,2.62-1.24,5.88-2.4,7.12-5.69Z" transform="translate(227 -11.52)" style="fill:#eaeaea"/><path d="M263,534c1.86.4,2.85-.9,3.95-2a5.69,5.69,0,0,0,2.33,4.73,50.7,50.7,0,0,0-14.58,9.4c-2.93,2.61-7.51,2.54-9.53,6.44-.3.59-1.63.27-2.25-.36-4-4-9.1-7-11.92-12.22l1-1h5c1.35,2.74,4,6,6.19,5.51,4.62-1,9.84-.7,13.78-4.34C259.1,538.21,263.2,538.25,263,534Z" transform="translate(227 -11.52)" style="fill:#dadada"/><path d="M305,511c.3-2-1.44-5.4,3.25-4.43,1.12.23,1.66-1.36,1.72-2.6,4.2-.25,3.36-2.52,2-5,0-.33,0-.67,0-1q.33-3.33-3-3c0-.67,0-1.33,0-2,2.76-.08,6.15.43,3.42-4.24-.35-.6.35-1.82.57-2.76h4c.21,1.93,1.93,2.73,3,4,1.63.15,3.71-.6,4.06,2.06.26,3.86-1.59,6.67-4.68,8.65a32.37,32.37,0,0,0-9.47,9C308.53,511.68,306.66,510.65,305,511Z" transform="translate(227 -11.52)" style="fill:#ddd"/><path d="M294,516c3.38-2.31,6.53-5.13,11-5-3.37,3.36-4.67,9.3-11.06,8.91C294,518.63,294,517.31,294,516Z" transform="translate(227 -11.52)" style="fill:#ddd"/><path d="M232,539l-1,1c-2.39-2-5.24-3.61-6-7-.14-4.32,2.54-2.34,4.14-1.62,1.37.61,1.85,2.75,3.85,2.64,0,.66,0,1.32,0,2C232.67,537,232.34,538,232,539Z" transform="translate(227 -11.52)" style="fill:#dcdcdc"/><path d="M284,524l2.06,0c-.11,3.24-1.49,5.63-4.69,6.65-1.35.43-2.28,1-2.4,2.57-.2,2.93-2.27,2-4,1.74a1.1,1.1,0,0,1-.85.45c.89-1,2-1.86,1.83-3.44-.16-2,.63-3,2.81-3.06C281.89,528.86,283.63,527.09,284,524Z" transform="translate(227 -11.52)" style="fill:#dddddc"/><path d="M224,523q-1,4-2,8.06a3.13,3.13,0,0,1-2-3C220.15,525.43,220.38,522.86,224,523Z" transform="translate(227 -11.52)" style="fill:#dbdbdb"/><path d="M289.94,521.83c.27-1.94,1.7-1.86,3.13-1.78C292.81,522,291.44,522.05,289.94,521.83Z" transform="translate(227 -11.52)" style="fill:#ddd"/><path d="M197,492c2.25-.23,3.19.82,3,3A6.23,6.23,0,0,1,197,492Z" transform="translate(227 -11.52)" style="fill:#eaeaea"/><path d="M195,488c.42.25,1.82-.48,1,1Z" transform="translate(227 -11.52)" style="fill:#efefef"/><path d="M317,486h-4c-3.19-6.45-3.19-6.45-9.52-2.52a11.76,11.76,0,0,1-1.35.6c-2.31,1-3.37,1.12-4.4-2.12-1.23-3.88,2-6.55,1.26-9.95,2.36.5,3.31-1.85,5.09-2.53,1.1-.42,2.42-.93,3.21.07,1,1.25-.45,2-1.17,2.8-1.2,1.26-2.5,2.41-4.17,4,5.11,1.28,9.53-3.69,14.05-.36,1.4,1.43,3,2.74,3,5C315.35,481.47,319.19,485,317,486Z" transform="translate(227 -11.52)" style="fill:#dcdcdc"/><path d="M233,480c-3.28,1.79-6.31,1-9.41-.66-1.61-.85-3.2-3.41-5.46-.68a1,1,0,0,1-1.71-.89c.12-1.34,1-3.15,2.36-2.5,3.57,1.66,6.82-.55,10.22-.27h3c0,1.1-.18,2.28,1,3Z" transform="translate(227 -11.52)" style="fill:#efefef"/><path d="M283,461.87c-.16,2.39-1.7,3.74-3.42,4.66-1.89,1-3.68-.18-4.74-1.57s-2.22-3.66,1.31-3.32c1.66.16,2.34-.85,3.36-1.59C282,458.23,282.55,460,283,461.87Z" transform="translate(227 -11.52)" style="fill:#ededed"/><path d="M317,486c2.2-1.05-1.64-4.53,2-5,4.58,3.21,4.77,5,1,9C318.92,488.73,317.2,487.93,317,486Z" transform="translate(227 -11.52)" style="fill:#e4e4e4"/><path d="M233,478c-1.18-.72-1-1.9-1-3C234.13,475.4,234.64,476.34,233,478Z" transform="translate(227 -11.52)" style="fill:#ededed"/><path d="M258.2,468.92l-.77-.93a3.59,3.59,0,0,1,1.1-.53c.21,0,.59.35.67.61C259.43,468.77,258.91,468.85,258.2,468.92Z" transform="translate(227 -11.52)" style="fill:#efefef"/><path d="M277.62,457.73c-.12.28-.18.7-.39.79s-.53-.2-.81-.32c.12-.28.18-.71.38-.79S277.34,457.61,277.62,457.73Z" transform="translate(227 -11.52)" style="fill:#efefef"/><path d="M299,472c.72,3.4-2.49,6.07-1.26,9.95,1,3.24,2.09,3.14,4.4,2.12a11.76,11.76,0,0,0,1.35-.6c6.33-3.93,6.33-3.93,9.52,2.52-.22.94-.92,2.16-.57,2.76,2.73,4.67-.66,4.16-3.42,4.24-2.09-1-4.08-2.3-6.57-2-1.82.21-3.27-.31-4-2.15-.7-1.67-2-2.1-3.67-1.63-.16,0-.37.2-.46.15-3-1.91-6.07-4.05-9,.14L284,486l2-5a2.05,2.05,0,0,0,2-1c3.65,2.07,6.55,2.79,6.42-3.13,0-.92,1.62-1.57,1.59-2.87C296.1,472,297.54,472,299,472Z" transform="translate(227 -11.52)" style="fill:#d7d7d7"/><path d="M253,503c.52,4.22-3,4.63-5.56,6.18-4.69,2.86-9.14,6.1-14.44,7.82,1.42-5,3.67-8.92,9.68-9.17,2.1-.08,3-2.41,4.67-3.47A8.76,8.76,0,0,1,253,503Z" transform="translate(227 -11.52)" style="fill:#dbdbdb"/><path d="M274,493c-.75.86-1.38,2.29-2.28,2.49-5.25,1.13-8.28,5.54-12.49,8.19-2.53,1.59-4-1.85-6.23-.68a18,18,0,0,1,7.47-4.88c2.95-1.12,5.23-3.21,5.89-5.55,1.12-3.94,2.44-3.33,4.87-1.53a9.76,9.76,0,0,0,2.77,1Z" transform="translate(227 -11.52)" style="fill:#dbdbdb"/><path d="M296,474c0,1.3-1.61,1.95-1.59,2.87.13,5.92-2.77,5.2-6.42,3.13C288.33,474.89,292.51,474.9,296,474Z" transform="translate(227 -11.52)" style="fill:#dbdbdb"/><path d="M233,517c-1,5.63-2.92,7.08-8,6C226.24,519.09,229.68,518.13,233,517Z" transform="translate(227 -11.52)" style="fill:#dbdbdb"/><path d="M286,481l-2,5h-4C281.59,483.83,280.91,479,286,481Z" transform="translate(227 -11.52)" style="fill:#dbdbdb"/><path d="M274,493v-1c0-1,0-2,0-3,1.17.08,2.42.39,2.54,1.66C276.72,492.27,275,492.33,274,493Z" transform="translate(227 -11.52)" style="fill:#d7d7d7"/><path d="M263,534c.2,4.24-3.9,4.2-6,6.16-3.94,3.64-9.16,3.34-13.78,4.34-2.15.47-4.84-2.77-6.19-5.51,2.25.23,5.35-2.37,6.34,2.11.24,1.1,2,1.1,2.48.28,1.67-3,5-1.93,7.39-2.9,2.72-1.11,5-1.89,6.56-4.54C260.49,532.72,262,530.72,263,534Z" transform="translate(227 -11.52)" style="fill:#d2d2d2"/><path d="M272.14,529.86c-1.17-1.42-2.67-.78-4.09-.67,2.1-2.83,3.57-2.63,6.21-2.34,2.08.23,4.93.82,6.84-1.19A4,4,0,0,1,284,524c-.37,3.08-2.11,4.85-5.19,4.94-2.18.06-3,1-2.81,3.06C274.59,531.5,273.87,529.77,272.14,529.86Z" transform="translate(227 -11.52)" style="fill:#dadada"/><path d="M232,539c.33-1,.66-2,1-3a2.81,2.81,0,0,0,3-3h0c6.9.91-.19,4.14,1,6Z" transform="translate(227 -11.52)" style="fill:#d2d2d2"/><path d="M236,533l-.42-.23.42.23Z" transform="translate(227 -11.52)" style="fill:#d2d2d2"/><path d="M312,499c1.35,2.48,2.19,4.75-2,5C306.88,500.82,309.43,499.9,312,499Z" transform="translate(227 -11.52)" style="fill:#d7d7d7"/><path d="M309,495q3.33-.33,3,3a4,4,0,0,0-2.84-.23c-1,.3-2.59.7-2.68-1C306.41,495.41,307.8,495.1,309,495Z" transform="translate(227 -11.52)" style="fill:#d7d7d7"/><path d="M200,485c1.26.24,2.71-1.55,3.66-.16,1.12,1.64,4,2.31,3.15,5.13-.25.81-1,1.93-1.61,1.5-1.87-1.3-5-1.22-5.2-4.47Z" transform="translate(227 -11.52)" style="fill:#eaeaea"/><path d="M209.78,471c-1.54-.17-3.61.48-3.67-2.1,0-1.74.92-3,2.73-2.67s3.81.85,3.9,3.11C212.81,471.34,211,470.85,209.78,471Z" transform="translate(227 -11.52)" style="fill:#eaeaea"/><path d="M191.85,453.06c0,.75-.09,1.58-.92,1.49a3,3,0,0,1-2.74-2.92,1.2,1.2,0,0,1,1.48-1.41C191.22,450.52,191.41,452,191.85,453.06Z" transform="translate(227 -11.52)" style="fill:#efefef"/><path d="M200,485v2l-3-1v-2C198,484.37,199.77,482.35,200,485Z" transform="translate(227 -11.52)" style="fill:#efefef"/><path d="M209,475c1.2.11,2.34.35,2.59,1.79,0,.23-.21.72-.4.76-1.26.28-1.7-.69-2.19-1.55Z" transform="translate(227 -11.52)" style="fill:#efefef"/><path d="M214.38,482.27c.12-.28.19-.71.39-.79s.53.2.81.32c-.12.28-.18.71-.38.79S214.66,482.39,214.38,482.27Z" transform="translate(227 -11.52)" style="fill:#eaeaea"/><path d="M209,475v1c-.76-.14-1.89-.15-1.45-1.28C207.88,473.9,208.59,474.42,209,475Z" transform="translate(227 -11.52)" style="fill:#eaeaea"/><path d="M217.38,469.27c.12-.28.19-.71.39-.79s.53.2.81.32c-.12.28-.18.71-.38.79S217.66,469.39,217.38,469.27Z" transform="translate(227 -11.52)" style="fill:#efefef"/><path d="M223.25,468.64c-.28-.12-.71-.18-.78-.38s.19-.54.31-.82c.27.12.71.18.78.38S223.37,468.36,223.25,468.64Z" transform="translate(227 -11.52)" style="fill:#efefef"/><path d="M204.58,462.73l-.36.83c-.27-.12-.71-.18-.78-.38s.19-.54.31-.81C204,462.48,204.3,462.6,204.58,462.73Z" transform="translate(227 -11.52)" style="fill:#efefef"/><path d="M202.73,455.38c.28.12.71.19.79.39s-.2.53-.32.81c-.28-.12-.71-.18-.79-.38S202.61,455.66,202.73,455.38Z" transform="translate(227 -11.52)" style="fill:#eaeaea"/><g style="clip-path:url(#clip-path)"><path d="M573,661c-4-2-2-3-9-8.13-10.52-7.74-20.23-15.57-29-24.59a2.89,2.89,0,0,1-1-3.09l-1.06-1.79c-1.78-.69-2.59-1.87-2.19-3.63a.78.78,0,0,1-.44-1l-4.25-.42-.33-8.13c-10,5.53-13.25,14.76-16.44,24-.82,2.36-1.53,4.76-2.24,7.16-1.49,5.07-5.64,3.84-9.89,4.49-2.55.39-3.18,5.51-9.37,5-7.12-.54-13.95-2-20.92-2.93a4.05,4.05,0,0,1-2.39-1.31c-.89-1.14-.06-2.2,1-2.92,3.09-2.2,6.25-4.33,9.45-6.53-1.95-2.59-4.93-2.27-7.5-2.85-1.5,1.37-2.36,3.48-5.63,3.61,1.91-3.87,3.21-7.67,7.77-9.5-.81-4.08,2.57-7.13,3.69-10.73,1.65-5.3-.49-8.56-3.65-12.2-3.37-3.87-8.18-7.47-3.46-13.24,1-1.22.58-3.26-1.8-3.66-1.94-.32-4.55-.72-4.94,1.7-.88,5.51-6.11,5.91-10.26,7.65-2.08,3.46-2.48,7.82-6.76,10.09-3.41,5.6-9.41,8.71-15,12.07-2.85,1.72-3.46-.36-2.79-2.55.52-1.72,1.86-3.6-1.16-4.4a4.43,4.43,0,0,0-5.11,2c-1.87,2.89-4.45,5.38-4.92,9-.31,2.5-.74,5.37-3.66,7.09-2.22-7.87-7.5-10.92-16.32-9.48-4,.67-7.65.17-9.55-3.44-1.34-2.53-3.7-2.77-6.18-3.15-6.3.9-12.71,3.16-18.64-1.12-6.78,2.12-11.86-2-16.55-4.74-6.6-3.85-16-3-20.58-9.88l-3-1.55c-3.87.52-5.58-2.48-8.29-3.92-3.82-2-8.14-5.6-10.23,2.28-1.72,6.54-10.21,6.34-15.47,9.3-3.63,2-6.22-2.69-9-4.76-3.06-2.27-4.74-5.88-8.76-7.22-4.64-2.25-10.51-.86-14.83-4.05-7.58-.45-13.57-5.45-21.47-5.57-5.56-.08-7.81,1.11-6.73,6.13l-.06,2c5.21,7.11,8.63-.07,12.6-1.5,1-.36,1.48-2.42,3.31-1.33,7.68,4.59,16.41,6.28,25.28,7.81,5.19.9,5.07,6.17,7.81,9.16,3,3.32,3.41,7.67,10.22,4.33a7,7,0,0,1,9.49,4.51c1.32,6.15,5,9.43,11.22,11.11a6.92,6.92,0,0,1,1.84,1.18c2.5,1.64,7.2,3.08,4.63,6.32-2.11,2.65-5.27-.71-7.75-2-10-5.1-20.67-5-31.57-3.21-.91.15-2.26.19-2.8-.28-5.6-4.83-13.21-1.88-19.45-4.15-1.37-.49-3.13-.39-3.9,1.16s-.39,3.11,1.41,4.1c3.71,2,7.76,4,12,3.85,7.64-.23,15,1.6,22.59,1.53l.08.06c4.12,6.53-.9,7.1-7.35,7.1,4.55,2,8.94-.26,12.33,3.41l-9.65.6c.39.49.58,1,.85,1,2.42.35,5.29-.13,6.38,2.66a1.66,1.66,0,0,1-.9,2.35c-3,1-7.09,1.39-8.53-.71-3.78-5.48-8.67-5.29-14.64-4.57-2.42.29-5.27-1.4-7.74-2.52-7.81-3.56-15.53-7.28-23.29-10.93-.22-.1-.64-.07-.7-.2-5.06-11.47-13.83-4.85-21.65-3.74-8.85,1.25-18,5.69-26.4-1.4-1.73-1.46-2.55-.62-4,.93-2.45,2.58-4.07,5.56-6.22,8.24-1.07,1.34-.2,4.77-4,3.77-2.66-.69-3.16-2.63-3.39-4.78-.09-.88-.79-1.76-.71-2.6.23-2.72,2.93-6.74-1.73-7.32-3.23-.41-3.48,4.26-4.95,6.75-2.51,4.21-1.17,10.07-6.89,12.88-1.38,8.73-8.8,4.62-14,5.28-3.59,1.26-6.06-2.28-9.47-1.8-3.71,1.52-7.19.52-10.65-.77a5.34,5.34,0,0,1-.62,1.93c-1.8,2-4.43,4-7,2.86-3.22-1.44.52-4,.12-6.06l-.26-.23a6.74,6.74,0,0,1-6-4.4l-7.09,2.48c-.93-4.84,2.51-7,5.67-9.33-1.16-4.48,4.44-4,5.94-6.58-.33-1.87.67-4.2-2.23-5.18-2.44-.83-2.68-2.52-2-4.39s2.7-2.25,4.77-2.63c2.85-.52,6.77,1.78,8.39-2.32-2.57-.12-5-.46-6.27-2.87-3.34-4.69-1.28-9.08,4.8-9.7,4.35-.44,9.18.74,12-3.66a1.62,1.62,0,0,1,1.35-.39c6,4.07,15.06-1.08,20.26,5.38,6.21,1.65,10.22-2.53,15-4.6,6.8-1.88,8.68-6.82,9.78-12.38.68-3.47-4-1.07-4.84-3.89-.44-1.53-3.27,1-4,2.32-5.37,9.13-12.65,10.93-24.35,8.52a56.51,56.51,0,0,1-17.44-7l-10.55-.79a25.61,25.61,0,0,0-8.63,12.5c-.84,2.81-4,2.12-6.29,2.77C82.13,604.23,82,616.09,89,623.65l-24.6-5.34c1.49-1.92,3.15-.86,4.4-1.28,2.68-.9,7,4,8-1.12.94-4.65,1.6-10.19-4.94-12.8-7.19-2.86-13.46-7.7-21.84-8.09-2.14-.1-3.18-2-4.63-3.28-3-2.57-5.49-3.36-8,1-2.61,4.52-16.67,5.15-20.22,1.31a4.83,4.83,0,0,1-.51-.5c-2.26-3.5-5.3-6.62-10.06-5.86-4.54.72-3.47,5.39-5.09,8.92-5-4-5.2-9.3-6.38-13.77-2.85-10.74-8.22-20.88-9.39-32-4-1.32-3.28-6.41-7.53-7.51h0l-3.31-5.61c-2-1.14-5.45-4.62-2.93,1.48.41,1,.74,2,1.37,3.78-3.79-.54-4.7-2.79-5.81-4.82-1.75-4-4.45-7.14-9.24-8.43-3.15.64-1.55,3.88-3.46,5.31-3.08-2.11-1.47-5.57-3.21-7.95L-50,528.5c0,2-.57,3.6-3.29,3.39-4.73-.37-2-4.32-3.6-6.2L-60,521.6c.66,5.06-4,9.75-1.33,14.95,5-.13,9.2,1.32,12.22,5.07,3.61,4.5,7.26,9,10.89,13.46,1.44,1.82,1.39,3.9,1.29,6l1.46,4.07,3.33,5.48c1.85,2,2.64,4.75.21,5.94s-5.28-.19-7-2.59c-.75-1-1.19-3-3-2.41-1.22.4-3,2.21-2.75,2.94,1,3.14-2,5.93-1.26,8.42,1.58,5.09-3.2,5-5.62,6-4.14,1.56-5.32-1.54-6-4.56a15.06,15.06,0,0,0-1-2.55c-7.75-.28-7.37-7-10.59-10.82-2.23-1.54-1-7.61-7.36-4.16-1.28.69-4-3.16-5.1-5.37-1.17-2.38,2.22-2.47,3.41-3.7s4-1.24,3.85-4.74c-3.5,4.22-7.27,1.39-10.92,1.47-2.21,3.68-5.22,3.89-9.49,2.62-7.38-2.19-13.37-6.19-19.73-9.94-12.45-7.34-25.59-13.53-41.12-13.57l12.47,5.64,18.69,5.16c1.77.59,2.95,1.29,1.86,2.4,1.09-1.11-.09-1.81-1.87-2.4-1,1.3-1,2.43.73,3.24-.49,1.69-1,3.38-1.48,5.08,8.71,1.71,14.13,8.47,22,11.56,4.14,1.62,7.78,3.24,12,.6a3.9,3.9,0,0,1,5.33.71c1.92,2,6.46,3,5.33,5.92-1.32,3.45-5.61,2.18-8.7,1.66-1.91-.32-3.46-1.09-3.67,1.49,4,2.21,5.9,7.44,11.92,6.88,9.72-6.06,11.69,4.43,17.41,6.82,5.28,2.21,1.91,5.77-.29,8.5-.67.84-2.36,1-3.2,1.74-2,1.86-7.3,4,.47,5.51,3.17.63,2,3.71,2.22,5.87h0c-1.25.11-2.46.3-3,1.51l.69,1.36C-60.95,619-56.21,626-48.54,630.57c3.44,1.23,4.4,3.42,2.86,6.39-2.09,4-2.24,7.31,3.9,8.32-5.26,5.68-11.48,5.66-18.06,4.35l-8.35,5.6c.69,3.56-1.79,4.09-4.84,4.07a1.57,1.57,0,0,0-.5.56c-.87,3.91-5.8,4.42-7.74,7.43,28.62,4.91,57.56,7.65,86.55,9.84,28,2.11,56.05,3.61,84.07,5.43,1.58.1,3.68-.69,4.52,1.44H427.06c5.73-3.3,12.43-2,18.54-2.49,24-2,48.16-2,72-4.73,16.55-1.9,39.3-10.15,55.41-14.78" transform="translate(227 -11.52)" style="fill:#754f44"/><path d="M182.61,543.64c-4.93,1.06-9.72,2-14.56-.72-3.14-1.79-6.18-.41-9.11,1.33a5.21,5.21,0,0,1-6.27-.65,2.46,2.46,0,0,1-.79-3.11c1.17-2.12,3.34-1.68,5.28-1.19,1.11.29,2,.31,2.65-.52,1-1.26-.27-2-.9-2.94-2.41-3.55-5.87-2.72-9.28-1.81-3.86,1-3.77,3-1.56,5.51.88,1,.15,2.15-.69,3.08-2.67,2.91-1.91,4.92,2,6.09,2.3.68,4.78,1.59,2.68,4.19-1.54,1.9-4.11,1.84-6,.27-1.68-1.38-3.2-2.69-6.55-2.68,1.85,3.67,5.26,7.78-2.44,8.12a1.87,1.87,0,0,0-1.19,1.44c.36,2.37.74,5.39-3,4.62-4.48-.92-.45-3.71.25-5.55-4.25-1.17-5.58,1.56-7.56,3-1.81,1.37-3.28,3.18-2.18,5.36,1.33,2.64,3.51.16,5.28.26,8.6.46,16.36-1.93,24.54-7.55-.56,8.08,1.84,14.24,7.87,19.69-6.18.89-11.23-.22-14.35-3.19s5.13-3.3,3.35-7.11c-7.55-3.19-13.33,11.1-22.44,1.23,1.1,5.68.74,9.83-5.73,11-2.79.5-1.91,2.81-2.15,4.51l-10.55-.79c4.53-3.25,1.3-8.77,4.5-12.4,7.71-4.73,10.15-16.39,5.42-25.91-.45-2.28-.89-4.56-1.34-6.84,5.16-2.32,10.55-4.27,15-7.74a12.56,12.56,0,0,1,3.62.29c3.3,1.33,7.21.13,8-1.71,1.27-3-3.11-3.8-5.36-4.36-6.78-1.68-6.56-6-5.69-10.64.93-4.91,5.14-4.79,9.34-4.43,13.85,7,28.53,12.95,37.36,25.75C181.29,539.45,183.53,541,182.61,543.64Z" transform="translate(227 -11.52)" style="fill:#ffc48b"/><path d="M517.78,509.43c2.24-3.25,2.07-7.78,6.54-9.84,3.2.63,6.34.44,6.72-3.09.32-3,.36-6.54-4.94-6.31l-.69-.72c.34-1,.74-1.88,2-2.12,2.29-.91,4.55-1.85,6.86-2.71,13.47-5,22-16.3,34.7-22.26l7.15,1.58c-2.67,4.37-1.34,6.55,4.3,7.08,5.37.5,10.33-1.2,15.5-1.67,2.22-.21,3.36-1.45,2.85-3.15-1.55-5.12-6.14-9.08-7.08-14.46.85-3.07,1.95-6.1,2.52-9.22,1-5.71,5.1-8.47,10.84-10.09,7.84-2.2,15.72-1.1,23.24.48a32.93,32.93,0,0,0,18.35-1.38c-.56,3-2.62,5.31-4.94,7.32-5.29,4.58-2.47,5.79,2.95,6.08-2.92,4.43-6.72,7.88-12.46,9.23-2.23-1.63-6.26-.24-7.48-3.58,1.49-.05,3-.08,4.46-.15,1.66-.08,3.67.48,4.46-1.47a3.42,3.42,0,0,0-1.15-4.27,4.66,4.66,0,0,0-5.5-.41,42.27,42.27,0,0,0-3.42,2.56c-1.47-3.21-4.05-4.81-8-4.45-.21-2.46,5.17-2.54,3.25-5.3s-5.08-.45-7.66-.26c-3.5.26-5.23,2.16-6,5.23-1.11,4.65-2.1,9.33-4.87,13.54-3.29,5,.9,3.27,3.44,2.94-.66,3.72,1.1,5.9,5.29,5.37,4-.52,5,2,6.63,4.14-3.79,7.83-12.51,9.22-19.93,12.3-.08-.48-.15-1-.23-1.44.77-2.06,5.36-3.18,2.43-6-1.63-1.58-4.37-.77-6.2.52-1.65,1.17-4.57,2.15-3.81,4.42.68,2,3.65.28,5.34,1.23-3.33,3.5-8.61,6.16-12.1,3.08-5.1-4.52-9.55-3.18-14.73-1.81-.88-1.93-2.59-.75-4-.85-.25-3.44-2.44-4-4.88-2-7.09,5.83-15.89,10.11-20.68,18.06l-.26.28-.78,1.08c-4.18,3.88-8.27,7.82-12.56,11.58C521.88,509.84,520.17,511.94,517.78,509.43Z" transform="translate(227 -11.52)" style="fill:#ffc48b"/><path d="M569.74,525.27a18.92,18.92,0,0,1-2.47-2.52c-1.41-2.08-6.75-5.31-9.2-5.38.73-3.42,5.17-6.25,2-10.29,2.09-1.59,6.18-2.53,2.46-6l2.47-.41,1.36-.14-.79-1c-.32-2.62.15-5.62-1.12-7.79-2.66-4.51-.12-7.79,2-11.36,5.18-1.37,9.63-2.71,14.73,1.81,3.49,3.08,8.77.42,12.1-3.08l2.24-.16c.08.48.15,1,.23,1.44-1.17.85-2.28,1.78-3.53,2.52-4.75,2.83-9.43,5.31-7.79,11.93.5,2,.51,5.48-2.21,7.5-2.92-1.66-7-3.28-7.25,1.23C574.54,511.15,570.17,517.8,569.74,525.27Z" transform="translate(227 -11.52)" style="fill:#99594a"/><path d="M-86.91,463.77c1.28.63,2.54,1.78,3.83,1.8,5.13.07,8.27,1.48,9.46,6.59.51,2.19,4.07,3.8,6.24,5.67a38.16,38.16,0,0,0,2.57,25.68c-2.83-3-3-7.33-7.44-9.16-2.33,7.15-.21,10.55,9.19,15.06.13,2.56.27,5.12.4,7.67-2.37,2.58-4.89-.45-7.31.16,0-3-3.26-5.1-4.88-4.46-3.51,1.38-3-2-4.78-2.24,2.42-3.68,1.87-6.69-1.08-10.31-4.5-5.52-7.78-11.84-13.13-16.87,5-.12,10.08-.67,14.68,1.93,1.86,1,3.78.68,5.79,0,1.36-.48,3.09-.22,2.78-2.28-.24-1.54-1-2.62-2.87-2.53-4,.21-7.67-1-12.72-2.1,5.35-2.73,4.34-5.34,1.57-8C-86.58,468.51-88.08,466.52-86.91,463.77Z" transform="translate(227 -11.52)" style="fill:#99594a"/><path d="M-70,517.24c2.42-.61,4.94,2.42,7.31-.16,5.55-.73,1.69,3.07,2.7,4.52.66,5.06-4,9.75-1.33,14.95l.07-.11c-3.18,7.27-1.22,14.81-1.49,22.23l-1.9,3.57c-1.85,4,2.73,6.39,3.23,9.81l.12-.1c-3,1.71-4.43-5.94-7.9-1-2.23-1.54-1-7.61-7.36-4.16-1.28.69-4-3.16-5.1-5.37-1.17-2.38,2.22-2.47,3.41-3.7s4-1.24,3.85-4.74c-3.5,4.22-7.27,1.39-10.92,1.47-.79-9.31.18-10.24,9.7-9.32,2.76-6.55-2.63-12.93-.49-19.46l2.37,2.28c.36,6.22,4.23,12,3,18.44a1.72,1.72,0,0,0,1.46,2c1.24.24,2.06-.45,2.06-1.4,0-3.79,2.28-7.28.92-11.34C-68.3,529.71-67.34,523.18-70,517.24Z" transform="translate(227 -11.52)" style="fill:#ffc48b"/><path d="M-63.06,509.41c-9.4-4.51-11.52-7.91-9.19-15.06,4.43,1.83,4.61,6.13,7.44,9.16a38.16,38.16,0,0,1-2.57-25.68c4.32-.11,6.63,2.63,9.1,5.15,2.61,4.73,7.51,5.32,12.57,5.61,9.75,2,12.63,9.51,16.26,16.41-2.6,2.19-1.13,5-1.47,7.55a2.53,2.53,0,0,0-1.44-.17c-6.88-6.16-13.79-12.26-20.16-18.9-2.25-2.34-7.56-5.66-10.48-2.55s.45,6.93,4.43,9.05c.17,2.95,2.51,5.64,1.83,8.79-3.34.18-1.64-4.26-4.83-3.44C-64,506-62.4,508.09-63.06,509.41Z" transform="translate(227 -11.52)" style="fill:#ffc48b"/><path d="M139.65,452.71c-.06-9.27,4.82-13.26,15-12.35a8.94,8.94,0,0,1,6,2.69c5.28,5.77.14,11.77,0,17.62-.08,4.15-5.29,5.13-9.3,5.69C144.47,467.33,139.71,461.65,139.65,452.71Z" transform="translate(227 -11.52)" style="fill:#ffc48b"/><path d="M491.53,528.22c3.47,1.07,2.5,4.2,3.31,6.35,1.08,2.84,1,5.79-4,2.95-3.2-1.8-5,0-6.14,2.61-2.76,6.44-3.14,13.67-8.2,19.37-1.4,1.57-.61,3.16.87,4.83,2.16,2.43,1.67,5.22-.93,7.26-4.14,3.25-3.36-1.56-4.74-2.62-2.14-1.64-3.77-.5-5.48.3-2.18,1-3.85,3-6.7,2.73,3.34-8,6.72-16,10-24,2.43-6,8.13-9.15,13.47-12.41A28.68,28.68,0,0,0,491.53,528.22Z" transform="translate(227 -11.52)" style="fill:#ffc48b"/><path d="M-193.76,346.73c-.15,1,0,2.17-1.46,2.61-2.35.4-2.7,2.11-3.08,3.8-9.16,3.91-12.6,2.59-21.19-8.12,0-2.48-.29-5,.16-7.41,1-5.56,12.27-12.46,16.36-9.42,3.59,2.66,8.94,6.15,7,12.08C-196.9,342.93-196.58,345.16-193.76,346.73Z" transform="translate(227 -11.52)" style="fill:#754f44"/><path d="M-196.65,486.76c2.27,1.23,3.24,3.37,4.43,5.29,2.66,4.31,5.69,7.81,12,7.47,4.69-.25,1.84,2.37,1.56,4-2.93,1-4.11-2.31-6.69-2.24-1.69.05-4.77.28-3.35,2,3.79,4.52.1,8.65.3,12.9-2.88-2.45-7-.71-10.12-2.49,0-5-2.56-8.65-7.16-11.28-1.41-2.35,1.52-4.34.67-6.64C-203.11,492.06-197.14,491.45-196.65,486.76Z" transform="translate(227 -11.52)" style="fill:#754f44"/><path d="M615.58,442.41c3.94-.36,6.52,1.24,8,4.45l-.18,1.8c-.21.94.06,1.6,1.24,1.76l.09.18c1.22,3.34,5.25,1.95,7.48,3.58-3.36,1.27-6,2.79-6.63,6.62-.78,4.74-7,4.33-9.87,7.27-1.58-2.17-2.62-4.66-6.63-4.14-4.19.53-6-1.65-5.29-5.37Zm3,20.62c1.62-3.68,4.68-5.77,2.27-8.94a2.81,2.81,0,0,0-4-.2C614.6,456.63,615.76,459.34,618.61,463Z" transform="translate(227 -11.52)" style="fill:#99594a"/><path d="M-193.76,346.73c-2.82-1.57-3.14-3.8-2.25-6.46,2-5.93-3.37-9.42-7-12.08-4.09-3-15.33,3.86-16.36,9.42-.45,2.41-.13,4.93-.16,7.41-4.1-1.5-8.53-3.36-7.3-8.06,1.44-5.51,6.28-10.26,11.85-11.11,5.21-.8,11.37-2.71,17.15,1.51C-188.95,333.81-187.67,337.48-193.76,346.73Z" transform="translate(227 -11.52)" style="fill:#ffc48b"/><path d="M-3.13,524.1c0,1.38,0,2.75,0,4.13-5.47-.82-11.32,2-16.53-1.41-2.43-2.73-3.65-6.39-8.61-7-2.47-.31-2.74-3-2.53-5.13l6.94-1.5C-13.56,511.58-7,515.82-3.13,524.1Z" transform="translate(227 -11.52)" style="fill:#ffc48b"/><path d="M-81,581.49c9.72-6.06,11.69,4.43,17.41,6.82,5.28,2.21,1.91,5.77-.29,8.5-.67.84-2.36,1-3.2,1.74-2,1.86-7.3,4,.47,5.51,3.17.63,2,3.72,2.22,5.88-1.25.1-2.46.29-3,1.5a1.8,1.8,0,0,1-1.51-1.91c0-1.53-.4-2.88-2.29-3.39-1-3.37-2.71-6.54-1.19-10.34.83-2,.49-3.88-3.48-4.94A7.47,7.47,0,0,1-81,581.49Z" transform="translate(227 -11.52)" style="fill:#ffc48b"/><path d="M621.88,531c4.61,2.46,3.06,5.81,1,8.6-3.06,4.08-7.65,6.19-13.15,4.66-3.33-.93-6.34-2.8-9.46-4.29-1.17-.55-2.05-1.39-1.63-2.71,1.07-3.29,12.86-10.57,16.84-10.25,2.87.23,6.26.1,6.44,4-1.88,1-4.4.77-5.84,2.66-1.25,1.63-3.25,2.95-2.44,5.29a2.06,2.06,0,0,0,2.33,1.25c2.38-.18,3.34-2,4.17-3.49C621.05,534.91,621.31,532.86,621.88,531Z" transform="translate(227 -11.52)" style="fill:#ffc48b"/><path d="M58.93,518.7c0,1.32,0,2.63,0,3.94-8.35-1.88-15-5.82-19.67-12.48-2.27-3.24-4.55-1.34-6.57.55-4.14-7.33-3.08-9.44,4.88-9.68l-.14-.13c-1.95,2.14.49,2.52,1.69,3.4,5.63.32,5.12,7.79,11.72,8-2.77-3.41-3.85-6.56-1.34-9.94C53.26,507.55,53.57,514.29,58.93,518.7Z" transform="translate(227 -11.52)" style="fill:#99594a"/><path d="M591.7,451.76c.94,5.38,5.53,9.34,7.08,14.46.51,1.7-.63,2.94-2.85,3.15-5.17.47-10.13,2.17-15.5,1.67-5.64-.53-7-2.71-4.3-7.08a6.79,6.79,0,0,0,4.42-1.48c1.39.89,2.72,2.38,4.2,2.51,1.91.18,4.61,2.26,6-.66,1.07-2.34-.79-3.85-2.77-5a12.1,12.1,0,0,0-2.85-.83C586.17,455.37,590.73,455,591.7,451.76Z" transform="translate(227 -11.52)" style="fill:#99594a"/><path d="M569,462.38c-12.73,6-21.23,17.23-34.7,22.26-2.31.86-4.57,1.8-6.86,2.71a18.44,18.44,0,0,1,8.71-8.09,63.68,63.68,0,0,0,17-12.09C557.33,463.09,562.14,459.84,569,462.38Z" transform="translate(227 -11.52)" style="fill:#99594a"/><path d="M56.8,527.54c-2.3-1.76-3.84-5.84-7.66-.89-1.85,2.38-3.1-.4-3.53-2-.54-2,.49-4.82-3.61-4.41-4.1-2.39-7.54-5.3-9.26-9.55,2-1.89,4.3-3.79,6.57-.55C44,516.82,50.63,520.76,59,522.64A4.44,4.44,0,0,1,56.8,527.54Z" transform="translate(227 -11.52)" style="fill:#ffc48b"/><path d="M46.84,492.78c2.71,1.66-.31,3.2-.14,4.8-1.37,1.37.3,3.6-1.32,4.68-3.43-1.07-2.5-6.59-7.77-5.34-2-3.92-3.27-7.86-.12-11.83l4.75-.53-.07-.07C42.29,487.91,41.57,491.7,46.84,492.78Z" transform="translate(227 -11.52)" style="fill:#ffc48b"/><path d="M13.26,505.09a6.92,6.92,0,0,1,.93,2.49c-.14,3.11.16,6.5-3.52,8.33a5.56,5.56,0,0,1-6.26-.75c-3.12-2.54-2.66-5.57-1.36-8.68C6.88,508.56,10.06,506.75,13.26,505.09Z" transform="translate(227 -11.52)" style="fill:#ffc48b"/><path d="M40.44,522.92l-.09,3.26c-8,.17-14.91,5.33-23.42,3.6-3-.61-5.92-.65-8.14-2.79C19.78,528.41,29.86,524.12,40.44,522.92Z" transform="translate(227 -11.52)" style="fill:#ffc48b"/><path d="M113.48,531.38c-3.14-3.39-6-1.65-9,.3-5.12,3.35-10.75,1.7-16.23,1.08-.24,0-.33-1.19-.49-1.81,8.94,1.32,16.48-2.21,24.06-5.58C113.07,527.22,114.37,529.06,113.48,531.38Z" transform="translate(227 -11.52)" style="fill:#ffc48b"/><path d="M37.61,496.92c5.27-1.25,4.34,4.27,7.77,5.34,1.62-1.08-.05-3.31,1.32-4.68,1.87,1.16,3.07,2.63,2.85,4.79-2.51,3.38-1.43,6.53,1.34,9.94-6.6-.22-6.09-7.69-11.72-8-.12-1.31,0-2.74-1.69-3.4l.14.13C37.62,499.66,37.62,498.29,37.61,496.92Z" transform="translate(227 -11.52)" style="fill:#ffc48b"/><path d="M575.49,552.51l-2-4.11-.3-4.67c1.8-.23,3.1-1,3.46-2.7l3.44-.64c.93,2.05,5,1,5,4C581,546.2,577.32,548.49,575.49,552.51Z" transform="translate(227 -11.52)" style="fill:#99594a"/><path d="M-196.65,486.76c-.49,4.69-6.46,5.3-8.32,9-1.54-1.55-.71-3.42-.73-5.13,0-2.08-1.23-4.87,1.92-5.84C-201.19,484-198.33,484.13-196.65,486.76Z" transform="translate(227 -11.52)" style="fill:#ffc48b"/><path d="M-206.93,510.16c-.29-.44-.57-.88-.85-1.32,1.89-1.85,1.88-4.2,2.14-6.48,4.6,2.63,7.15,6.3,7.16,11.28l-4.09-.09-.11-.4C-203.82,511.83-204.64,510.16-206.93,510.16Z" transform="translate(227 -11.52)" style="fill:#754f44"/><path d="M42.24,484.56l-4.75.53c-3.23-3.57,1.46-10.1-4.7-11.76C35,477,40.53,479.4,42.24,484.56Z" transform="translate(227 -11.52)" style="fill:#ffc48b"/><path d="M585.08,458.51a12.1,12.1,0,0,1,2.85.83c2,1.14,3.84,2.65,2.77,5-1.34,2.92-4,.84-6,.66-1.48-.13-2.81-1.62-4.2-2.51l2.1-2.51c1.12-.14,2.29-.21,2.61-1.48Z" transform="translate(227 -11.52)" style="fill:#99594a"/><path d="M13.26,505.09c-3.2,1.66-6.38,3.47-10.21,1.39,0-.48.05-1,.08-1.42L4,503.74C8.05,498.87,10.91,500.58,13.26,505.09Z" transform="translate(227 -11.52)" style="fill:#99594a"/><path d="M112.07,495.3c-5,.05-11.1,1.12-7.59-6.65C107.6,490.33,110.56,492.14,112.07,495.3Z" transform="translate(227 -11.52)" style="fill:#99594a"/><path d="M82.51,528.29c-7,.18-11.51-4.77-17.45-6.77C72.31,520.8,77.83,523.66,82.51,528.29Z" transform="translate(227 -11.52)" style="fill:#ffc48b"/><path d="M-79.6,517.18c8.13.87,6.58,6,5.9,10.76l-2.37-2.28C-76.67,522.64-79.73,520.45-79.6,517.18Z" transform="translate(227 -11.52)" style="fill:#99594a"/><path d="M353.18,609.1c-4.67-6.05-14.36-8.82-14.48-17.82V580.51c-7.1,3.4-2.26,7.42-2.22,10.94-.64,2-1,4.19-3.65,5.08-2.14,5.36-7.52,1.4-10.95,3.05,4.62,6.93,14,6,20.58,9.88,4.69,2.73,9.77,6.86,16.55,4.74C357,612.52,354.7,611.07,353.18,609.1Z" transform="translate(227 -11.52)" style="fill:#99594a"/><path d="M-158.65,532.23l0,.06h.08Z" transform="translate(227 -11.52)" style="fill:#ffc48b"/><path d="M-85.9,565.54a3.9,3.9,0,0,0-5.33-.71c-4.21,2.64-7.85,1-12-.6-7.87-3.09-13.29-9.85-22-11.56-8.1,3.23-12.57-3.52-18.48-5.86-2.73-1.08-2.21-5.17.55-7.63q-6.24-2.8-12.47-5.64l.11.14c-1.34.07-2.64.05-3.11-1.39l-4.66.06,1.6-1.47c-2.75-3.62-8.31-3.49-11.27-6.82a3,3,0,0,1-2.5-2.68l.1.14c-.28-4.72-1.85-8.91-6.06-12-.45-2.52,3.44-3.42,2.79-6-2.93,1-4.11-2.31-6.69-2.24-1.69.05-4.77.28-3.35,2,3.79,4.52.1,8.65.3,12.9,5.29,1,6.24,5.18,7.16,8.79,1.12,4.4,3.37,6.67,8.5,6.23-1,1.87-1.89,3.07,1.32,4.59,12.73,6,25.07,12.76,37.75,18.89a122.36,122.36,0,0,1,24.22,15.16c5,4.1,10.07,5.71,16.47,4.82.21-2.58,1.76-1.81,3.67-1.49,3.09.52,7.38,1.79,8.7-1.66C-79.44,568.5-84,567.5-85.9,565.54Z" transform="translate(227 -11.52)" style="fill:#ffc48b"/><path d="M-198.3,353.14c.38-1.69.73-3.4,3.08-3.8C-195.93,350.81-195.4,353.09-198.3,353.14Z" transform="translate(227 -11.52)" style="fill:#ffc48b"/><path d="M585.26,458.49c-.32,1.27-1.49,1.34-2.61,1.48C583.13,458.92,583.62,457.89,585.26,458.49Z" transform="translate(227 -11.52)" style="fill:#6c3825"/><path d="M-71.22,606.14c1.89.51,2.25,1.86,2.29,3.39l-1.33-.71Z" transform="translate(227 -11.52)" style="fill:#754f44"/><path d="M644.58,445c.36-1.08,1.34-1.33,2.42-1.46Z" transform="translate(227 -11.52)" style="fill:#ae7244"/><path d="M4,503.74l-.87,1.32Z" transform="translate(227 -11.52)" style="fill:#ae7244"/><path d="M267.13,593.71c6.53-7.51,7.81-7.57,12.31.32,2,3.57,3.33,4.05,7.11,1.36,4.25-3,9.52-5,14.33-7.38,3.68-1.86,6.73-4,6.21-8.47-.42-3.53,3.09-4.06,5.62-4.74,1.26-.34,5.39.3,2.81,2.6-7.9,7.05-2.39,12.08,2.22,17.53.7.82.78,2.06,1.15,3.1-3.87.52-5.58-2.48-8.29-3.92-3.82-2-8.14-5.6-10.23,2.28-1.72,6.54-10.21,6.34-15.47,9.3-3.63,2-6.22-2.69-9-4.76C272.83,598.66,271.15,595.05,267.13,593.71Z" transform="translate(227 -11.52)" style="fill:#99594a"/><path d="M160.63,598.81c.21.12.42.24.64.35,5.34,2.51-3.74,3.59-.74,5.58,2.29,1.53,5.67,2.08,7.32,4,1.29,1.45-1.15,3.29-3.14,3.67a72.65,72.65,0,0,1-8.13.68c-.19-.62-.37-1.24-.56-1.87-6.84,2.25-14.69,1.17-21,5.07-1.61.17-2.33.82-1.48,2.28l0,0h-5.93c-4-3.31-8.18-6.3-14.16-3.81-2.57-.12-5-.46-6.27-2.87a28.58,28.58,0,0,1,16.31-.63c2.15.56,5.32,1.56,6.29-.33,3.28-6.34,10.12-5.74,15.83-7.41C151.82,605.06,155.83,600.88,160.63,598.81Z" transform="translate(227 -11.52)" style="fill:#ffc48b"/><path d="M145.61,603.41c-5.71,1.67-12.55,1.07-15.83,7.41-1,1.89-4.14.89-6.29.33a28.58,28.58,0,0,0-16.31.63c-3.34-4.69-1.28-9.08,4.8-9.7,4.35-.44,9.18.74,12-3.66a1.62,1.62,0,0,1,1.35-.39C131.36,602.1,140.41,597,145.61,603.41Z" transform="translate(227 -11.52)" style="fill:#99594a"/><path d="M-59.84,649.63c-2.52-9.35,8.57-12.21,11.3-19.06,3.44,1.23,4.4,3.42,2.86,6.39-2.09,4-2.24,7.31,3.9,8.32C-47,651-53.26,650.94-59.84,649.63Z" transform="translate(227 -11.52)" style="fill:#99594a"/><path d="M104.49,629.17c2.72.81,6.85.87,2.51,4.84-2,1.77-1.16,5.36-4.72,6.27-2.82-.47-3.3-2.48-3.73-4.53C97.39,631.27,103,631.71,104.49,629.17Z" transform="translate(227 -11.52)" style="fill:#ffc48b"/><path d="M224,592.18c-2.37,1.3.85,5.82-3.61,5.57-3.55-.21-3.05-3.7-4.21-5.8-.66-1.19-1.17-2.45-1.92-4,4.22-1.48,6.68,1.66,9.8,2.3Z" transform="translate(227 -11.52)" style="fill:#ffc48b"/><path d="M89.92,635.86c-2.48,0-3-2-3.34-3.61-.62-3.22,2.31-4.26,5-4.86,2.24-.5,2,1.39,2.2,2.65C94.21,632.8,93.48,635,89.92,635.86Z" transform="translate(227 -11.52)" style="fill:#6c3825"/><path d="M568.48,653.9c0,.06-.05.12-.09.18l.22-.1Z" transform="translate(227 -11.52)" style="fill:#754f44"/><path d="M97,626.73c2.36,1.28,1.51,2.59,0,3.9C94.8,629.35,95,628.05,97,626.73Z" transform="translate(227 -11.52)" style="fill:#754f44"/><path d="M60.38,615.73c-1.26,0-2.42-.2-3.05-1.36-1.25,0-2.41-.21-3-1.36-1.26,0-2.43-.21-3.11-1.31a3.47,3.47,0,0,1-3.06-1.36l-2.06-.67c.15-.17.41-.52.45-.5.61.3,1.2.65,1.8,1a3.28,3.28,0,0,1,3,1.38,3.25,3.25,0,0,1,3,1.4c1.24.05,2.39.26,3,1.37a3.22,3.22,0,0,1,3,1.38l.67.63Z" transform="translate(227 -11.52)" style="fill:#754f44"/><path d="M89.92,635.86c-2.48,0-3-2-3.34-3.61-.62-3.22,2.31-4.26,5-4.86,2.24-.5,2,1.39,2.2,2.65C94.21,632.79,93.48,635,89.92,635.86Z" transform="translate(227 -11.52)" style="fill:#754f44"/><path d="M329.5,652.73l-.54-.8.9.47Z" transform="translate(227 -11.52)" style="fill:#754f44"/><path d="M171.8,554.08c5,1.08,9.08,3.84,13.24,6.34,1.08.64,2,2.06,1,2.86-4.27,3.26-5.18,8.05-7.47,12.22a4.34,4.34,0,0,1-5.16,1.9c-2.88-.75-4.92-2.52-4.93-5.32,0-4.31-.09-8.56-1.94-12.63C164.27,554.5,167.9,554.18,171.8,554.08Z" transform="translate(227 -11.52)" style="fill:#ffc48b"/><path d="M206.63,611.54c-4.37-2.65-1.54-7.94-5-10.93,3.25-1.39,6.15-4.11,10.32-2.39C211.77,603.26,206.47,606.52,206.63,611.54Z" transform="translate(227 -11.52)" style="fill:#ffc48b"/><path d="M192.75,593.86c-5.62,1.09-11.14-2.39-16.83-.31-.86.32-2.2.05-2.26-1.09a3.12,3.12,0,0,1,.94-2.42c3.41-2.56,14.9-.09,18.18,3.8Z" transform="translate(227 -11.52)" style="fill:#754f44"/><path d="M186.73,597.83c4.24.88,8.14-.48,12.1-1.46-.37,2.33-3.41,2.53-4.35,4.4-4,2.57-8.41,1.09-12.67,1.07C178.49,595.59,186.72,600.79,186.73,597.83Z" transform="translate(227 -11.52)" style="fill:#ffc48b"/><path d="M305.81,627.45a6.92,6.92,0,0,0-1.84-1.18c-6.25-1.68-9.9-5-11.22-11.11a7,7,0,0,0-9.49-4.51c-6.81,3.34-7.2-1-10.22-4.33-2.74-3-2.62-8.26-7.81-9.16-8.87-1.53-17.6-3.22-25.28-7.81-1.83-1.09-2.3,1-3.31,1.33-4,1.43-7.39,8.61-12.6,1.5-2.37,1.3.85,5.82-3.61,5.57-3.55-.21-3.05-3.7-4.21-5.8-.66-1.19-1.17-2.45-1.92-4,4.22-1.48,6.68,1.66,9.8,2.3-1.08-5,1.17-6.2,6.73-6.12,7.9.12,13.89,5.12,21.47,5.57,3.15-3.17,4.8-6.83,4.52-11.12-9.63-11.27-11.81-11.77-25.21-6.38-4.62,1.86-9.08,3-12.24-2.46-1.92-3.3-5.63-4.74-9.71-3.76-8.92,2.14-13.18-2.21-16.7-8.6-2.72-5-4.5-10.61-10.35-13.7-4.93,1.06-9.72,2-14.56-.72-3.14-1.79-6.18-.41-9.11,1.33a5.21,5.21,0,0,1-6.27-.65,2.46,2.46,0,0,1-.79-3.11c1.17-2.12,3.34-1.68,5.28-1.19,1.11.29,2,.31,2.65-.52,1-1.26-.27-2-.9-2.94-2.41-3.55-5.87-2.72-9.28-1.81-3.86,1-3.77,3-1.56,5.51.88,1,.15,2.15-.69,3.08-2.67,2.91-1.91,4.92,2,6.09,2.3.68,4.78,1.59,2.68,4.19-1.54,1.9-4.11,1.84-6,.27-1.68-1.38-3.2-2.69-6.55-2.68,1.85,3.67,5.26,7.78-2.44,8.12a1.87,1.87,0,0,0-1.19,1.44c.36,2.37.74,5.39-3,4.62-4.48-.92-.45-3.71.25-5.55-4.25-1.17-5.58,1.56-7.56,3-1.81,1.37-3.28,3.18-2.18,5.36,1.33,2.64,3.51.16,5.28.26,8.6.46,16.36-1.93,24.54-7.55-.56,8.08,1.84,14.24,7.87,19.69-6.18.89-11.23-.22-14.35-3.19s5.13-3.3,3.35-7.11c-7.55-3.19-13.33,11.1-22.44,1.23,1.1,5.68.74,9.83-5.73,11-2.79.5-1.91,2.81-2.15,4.51a56.51,56.51,0,0,0,17.44,7c11.7,2.41,19,.61,24.35-8.52.78-1.34,3.61-3.85,4-2.32.82,2.82,5.52.42,4.84,3.89-1.1,5.56-3,10.5-9.78,12.38.21.12.42.24.64.35,5.34,2.51-3.74,3.59-.74,5.58,2.29,1.53,5.67,2.08,7.32,4,1.29,1.45-1.15,3.29-3.14,3.67a72.65,72.65,0,0,1-8.13.68c1.6,5.26-2.07,8.06-10.4,7.94-1-1.77,3.1-2.05,1.51-3.58a4.63,4.63,0,0,0-4.09-.45c-3,1.9-5.8-.66-8.61.17-.13.78-.27,1.55-1.49,1.4l0,0c-2,1.8-3.95,2.17-5.93,0-4-3.31-8.18-6.3-14.16-3.81-1.62,4.1-5.54,1.8-8.39,2.32-2.07.38-4,.66-4.77,2.63s-.47,3.56,2,4.39c2.9,1,1.9,3.31,2.23,5.18,2.72.81,6.85.87,2.51,4.84-2,1.77-1.16,5.36-4.72,6.27L100,642.6a6.74,6.74,0,0,0,6,4.4l.82-.5c-.19.24-.38.48-.56.73.4,2.09-3.34,4.62-.12,6.06,2.61,1.17,5.24-.82,7-2.86a5.15,5.15,0,0,0,.61-1.93c-4.55-2.7-.73-6.17-2.09-11,6.49,5.81,13.23,1.19,18.91,3.8l3.5-.87c-1.73-4.84,3.11-6.36,5.68-9a2.43,2.43,0,0,1,3.32.09c1.46,1.45-.81,2.18-1.27,3.29.51,4.63-3.38,8-4.32,12.21,4.11,3.83,6.68-2.31,10.37-1.29,5.72-2.81,4.38-8.67,6.89-12.88,1.47-2.49,1.72-7.16,4.95-6.75,4.66.58,2,4.6,1.73,7.32-.08.84.62,1.72.71,2.6.23,2.15.73,4.09,3.39,4.78,3.82,1,2.95-2.43,4-3.77,2.15-2.68,3.77-5.66,6.22-8.24,1.47-1.55,2.29-2.39,4-.93,8.38,7.09,17.55,2.65,26.4,1.4,7.82-1.11,16.59-7.73,21.65,3.74.06.13.48.1.7.2,7.76,3.65,15.48,7.37,23.29,10.93,2.47,1.12,5.32,2.81,7.74,2.52,6-.72,10.86-.91,14.64,4.57,1.44,2.1,5.55,1.73,8.53.71a1.66,1.66,0,0,0,.9-2.35c-1.09-2.79-4-2.31-6.38-2.66-.27,0-.46-.52-.85-1l9.65-.6c-3.39-3.67-7.78-1.44-12.33-3.41,6.45,0,11.47-.57,7.35-7.1l-.08-.06c-7.57.07-14.95-1.76-22.59-1.53-4.23.12-8.28-1.82-12-3.85-1.8-1-2.22-2.45-1.41-4.1s2.53-1.65,3.9-1.16c6.24,2.27,13.85-.68,19.45,4.15.54.47,1.89.43,2.8.28,10.9-1.83,21.54-1.89,31.57,3.21,2.48,1.26,5.64,4.62,7.75,2C313,630.53,308.31,629.09,305.81,627.45ZM243.7,574.8c2.88.59,5.12,2.2,5.18,5.32.05,2.39-1.23,4.74-4.16,4.5-3.34-.27-5-2.49-4.76-5.72C240.11,576.77,240.05,574.75,243.7,574.8ZM117.31,618.24c3-.28,3,1.66,1.12,2.19a12.52,12.52,0,0,0-4.46,2.35C112.88,619.85,114.32,618.52,117.31,618.24Zm2.53,12.28a3.72,3.72,0,0,0-.08.67c.15,3.36-1.58,5.49-5.21,6.35-1.1.26-2,0-2.29-1-.71-3-.49-5.81,3-7.47.3-3.11,2.78-4.76,5.46-3.53C124.11,627,121.52,629,119.84,630.52Zm48.61-58.44c0-4.31-.09-8.56-1.94-12.63-2.24-5,1.39-5.27,5.29-5.37,5,1.08,9.08,3.84,13.24,6.34,1.08.64,2,2.06,1,2.86-4.27,3.26-5.18,8.05-7.47,12.22a4.34,4.34,0,0,1-5.16,1.9C170.5,576.65,168.46,574.88,168.45,572.08Zm11.11,44.08c8.91,1,17.19,4.65,26.32,5.08C196.54,622.16,187.23,622.36,179.56,616.16Zm27.07-4.62c-5.25,4-10.42,3.22-15.73,0-3-1.83-5.54-4.75-9.74-4.19-1.59.21-6.2-1.92-3.24,2.93.83,1.36-1.57,1.12-2.61,1.25-1.9.23-2.56-1-3.12-2.32s-1-2.55,1.15-3.13a25,25,0,0,0,8.46-4.22c-3.31-6.25,4.92-1.05,4.93-4,.07-3.69,4.87-1.61,6-4-5.62,1.09-11.14-2.39-16.83-.31-.86.32-2.2.05-2.26-1.09a3.12,3.12,0,0,1,.94-2.42c3.41-2.56,14.9-.09,18.18,3.8,5.26-.46,10.05-2.25,14.72-4.31,1.22-.53,2.37-1.13,3.06.27.57,1.15-.12,2.06-1.52,2.58-3.43,1.28-6.81,2.66-10.21,4-.37,2.33-3.41,2.53-4.35,4.4l7.17-.16c3.26-1.39,6.16-4.11,10.33-2.39C211.77,603.26,206.47,606.52,206.63,611.54Zm17.31-10.06,14.39,12.83C230.75,614.07,225.7,609.9,223.94,601.48ZM247,617.72c-2.66-.23-7.59,1.3-8.6-3.38,9.17-3.43,16.67,2.52,25.07,3.92C258,621.43,252.42,618.18,247,617.72Zm15.62-3.13c-3.63.55-5.71-1.81-8.57-3.06.66-.76.77-1,.93-1a10.4,10.4,0,0,1,8.67,2.58C263.81,613.16,263.11,614.52,262.66,614.59Z" transform="translate(227 -11.52)" style="fill:#99594a"/><path d="M119.84,630.52,115.31,629c.3-3.12,2.78-4.77,5.46-3.54C124.11,627,121.52,629,119.84,630.52Z" transform="translate(227 -11.52)" style="fill:#ffc48b"/><path d="M114,622.78c-1.09-2.93.35-4.26,3.34-4.54s3,1.66,1.12,2.19A12.52,12.52,0,0,0,114,622.78Z" transform="translate(227 -11.52)" style="fill:#ffc48b"/><path d="M105.93,647l.82-.5c-.19.24-.38.48-.56.73Z" transform="translate(227 -11.52)" style="fill:#351c1c"/><path d="M516.84,509.19c-3.63,2-5.16,5.44-7.48,8.34-1.9,2.85-3.88,5.66-5.68,8.56-1,1.56-2.62,3.06-3.84,1.47-.71-.94-3.36-2.12-1.64-4.49a67.7,67.7,0,0,1,14.66-15.26C515.35,506,516.34,506.8,516.84,509.19Z" transform="translate(227 -11.52)" style="fill:#ffc48b"/><path d="M585.62,532.79a4.29,4.29,0,0,0-2-.89c-4.35-1.19-5.16-3.44-4.71-7.63.69-6.43,5.16-12.33,3.16-19.06-4.62,4.85-3.86,11.43-6.76,16.77-.87,1.6.09,7.59-5.57,3.29a18.92,18.92,0,0,1-2.47-2.52c-1.41-2.08-6.75-5.31-9.2-5.38a25.37,25.37,0,0,0-8.69,9.58c-.61,1.18-1.5,2.75-3.11,2.14s-1-2.28-.79-3.59c-3.1-.39-2.41,1.7-2.25,3.06,1.25,10.86-4.68,20.29-7.7,30.23-2.09,6.9-6.82,7.67-12.67,3.46-.38,3.48,2,8.14-1.85,10.19-7,3.71-9,9.95-12,15.78l.49.43c14.07-3.75,24-14.47,38.58-19.38-1.46,4.21-1.69,7.05,3.27,7.26h0l1.63,1.24c0,2.32-2.12,3-3.86,3.46-7.1,2-7.61,6.1-4.62,11.37,1.8-.73,3.81-1.2,5.36-2.23,6.39-4.3,12.36-6.73,20.56-2.38,5.22,2.77,10.79.45,13.63-5a18.31,18.31,0,0,0-4.6-22.39c-2.58-2.25-5.23-4.35-4-8.07l-2-4.11c-.85,1.41.61,3.9-2.17,4.34-2.21.35-2.7-1.49-3.35-2.88a5.7,5.7,0,0,0-3.24-3.38c-.69,6.29,2.82,9.86,11.39,11.6-7.89,2.17-11.39,5.28-11.07,11.86.18,3.72-4.91,1.44-7.56,2.09a20.44,20.44,0,0,1,1.32,2.36c.75,1.85,1.78,4.2-.53,5.3s-2.78-2-4.51-2.65h0l-1.76-1.12h0c0-2.81,2.47-3.4,4.69-4.21-3.19-8.05-4.13-8.38-12-4.36-1.3.67-2.77,1.07-4.08,1.71-1.07.53-2.1,1.63-3.31.68-1.37-1.07-.74-2.47-.11-3.74l5.56-11c-5-5.81,1.07-10.08,2.13-16.32,2.45,6.29-1.27,10.9-.61,15.77,2.78.12-1,4.68,2.65,3.55,3.89-1.21,1.16-4.69,1.84-7.07a40.38,40.38,0,0,1,4.42-20.74c2.17-4.16,5-5.66,7.91-.37,1.47-.1,3.1.14,4.37-.36,5.78-2.29,6.12.78,5.87,4.58,8.3-2.46,9.67-1.48,8.78,6.37.92,2.06,4.94,1,5,4,3.13-1.25,7.08-2.14,7.51-5.68C593.1,534.6,587.62,535.13,585.62,532.79Zm-39.2,4.86c-.13-.16-.37-.33-.36-.48s.27-.29.43-.43c.13.16.37.32.36.47S546.57,537.5,546.42,537.65Z" transform="translate(227 -11.52)" style="fill:#ffc48b"/><path d="M507.74,589.78l-.69.57.62-.63Z" transform="translate(227 -11.52)" style="fill:#ae7244"/><path d="M509.49,588.65l-1.75,1.13-.07-.06,1.34-1.5Z" transform="translate(227 -11.52)" style="fill:#ae7244"/><path d="M-61.38,572.05c4.57,1.31,8.13,2.21,9.72-4,1.5-5.86,6.6-1.11,10.08-1.25,3.15,1.3,5.46,4.27,9.48,3.82,1.85,2,2.64,4.75.21,5.94s-5.28-.19-7-2.59c-.75-1-1.19-3-3-2.41-1.22.4-3,2.21-2.75,2.94,1,3.14-2,5.93-1.26,8.42,1.58,5.09-3.2,5-5.62,6-4.14,1.56-5.32-1.54-6-4.56a15.06,15.06,0,0,0-1-2.55c2.93-1.58,1.16-3.22.13-4.9s-3.62-2.47-2.82-4.91Z" transform="translate(227 -11.52)" style="fill:#ffc48b"/><path d="M536.69,495.89a1.54,1.54,0,0,1-.79,1.08Z" transform="translate(227 -11.52)" style="fill:#6c3825"/><path d="M564.77,546.47c-.69,6.3,2.82,9.87,11.39,11.61-7.89,2.17-11.39,5.28-11.07,11.86.18,3.72-4.91,1.44-7.55,2.09a1.62,1.62,0,0,1-.8-.32c-3.19-8.05-4.13-8.38-12-4.36-1.3.67-2.77,1.07-4.08,1.71-1.07.53-2.1,1.63-3.31.68-1.37-1.07-.74-2.47-.11-3.74l5.56-11,1.52-.55c2.78.12-1,4.68,2.65,3.55,3.89-1.21,1.16-4.69,1.84-7.07,3.77-2.52,2.1-6.6,3.32-9.82,2.22.31.47,3.53,3,3.18,2-.27,1.15-2.08,1.44-3.27,1-3.91,2-7.83,4.57-11.2,1.47-.1,3.1.14,4.37-.36,5.78-2.29,6.12.78,5.87,4.57a2.76,2.76,0,0,1-1.05.92c-3,3-6.7,5.76-5.72,10.54A1.37,1.37,0,0,1,564.77,546.47Z" transform="translate(227 -11.52)" style="fill:#99594a"/><path d="M120,499.42a14.52,14.52,0,0,0-7.89-4.12c-5,.05-11.1,1.12-7.59-6.65-3.44-4.88-9-8-12.39-13.18-2.29-3.49-7.33-2.77-9.27.92-2.11,4-2.19,8.8,3.55,10.9A12.43,12.43,0,0,1,93.3,493a23.29,23.29,0,0,0,8.11,7.94c5.11-3.41,6.59,3.3,10.56,3.05a20,20,0,0,0,9.12,11.8q-2.27-5.83-4.51-11.67Z" transform="translate(227 -11.52)" style="fill:#ffc48b"/><path d="M121.31,515.93l-.22-.15.1.26Z" transform="translate(227 -11.52)" style="fill:#ffc48b"/><path d="M139,526.92c-6.78-1.69-6.56-6-5.69-10.64.93-4.91,5.14-4.79,9.34-4.43-8.39-2.92-15.41-7.86-22.69-12.43l-3.38,4.69q2.25,5.83,4.51,11.67A20,20,0,0,1,112,504c-4,.25-5.45-6.46-10.56-3.05,2.4,2.54,5.48,4.79,7,7.69,2.8,5.2,7.37,10.37,3.38,16.76,1.24,1.84,2.54,3.68,1.65,6,.19,5.5,2.9,6.85,8,3.74a17,17,0,0,1,11.27-2.42,12.56,12.56,0,0,1,3.62.29c3.3,1.33,7.21.13,8-1.71C145.63,528.31,141.25,527.48,139,526.92Z" transform="translate(227 -11.52)" style="fill:#99594a"/><path d="M71.15,547.33c-3.29,2.37-6.64,4.28-10.59,1-1-6.58-4.8-9.82-13.07-7.75,5.06-4,9.93-1.72,14.66-1.31l7.82,2.5C68.29,544,70.28,545.55,71.15,547.33Z" transform="translate(227 -11.52)" style="fill:#ffc48b"/><path d="M72.26,537.85l-1-1.18c-1.8-6-5.43-7.84-11-5.36-1.15.51-2.22,1.23-3.38.45-1.93-1.3-.54-2.8-.08-4.22-2.3-1.76-3.84-5.84-7.66-.89-1.85,2.38-3.1-.4-3.53-2-.54-2,.49-4.82-3.61-4.41l-1.56,2.66-.09,3.26c1.45,10.94,9.85,11,19.09,9.94a22.41,22.41,0,0,1,4.44.36c-.57.93-1.15,1.85-1.73,2.78l7.82,2.5,2.32-.23,10.72.55c1.79-.48,4.44.14,4.38-2.74C82.52,537.41,78.08,532,72.26,537.85Z" transform="translate(227 -11.52)" style="fill:#99594a"/><path d="M-70.59,483c-.24-1.54-1-2.62-2.87-2.53-4,.21-7.67-1-12.72-2.1,5.35-2.73,4.34-5.34,1.57-8-2-1.88-3.47-3.87-2.3-6.62-.32-.83-.63-1.66-.94-2.48l-.84-1c-.43-1.36-.53-2.9-2.41-3.45l-.1-.1,0-.58-.57-.26-.65.93.65-.93-5-13.66c-1.69-6-4.77-11.12-11.34-13.93-4.21-3.16-6.17-7.35-7.57-12-1.62-5.42-4-10.61-10.9-12.51h0a1.1,1.1,0,0,1,0,.18l-1.65-1.46.09.21-1.43-1c-2.08-.33-4.06-2.13-6.27-.32q-.69-.07-1.35-.21c-6.72-7.72-14-14.06-26-8.2-1.3-3.35-5.73-2.88-7.88-5.2l-6.62-2.11a9.05,9.05,0,0,1-.93.93,9.05,9.05,0,0,0,.93-.93c-2-2.06-4-4-5.8-6.22-2.15-2.67-4.2-5.22-8.53-3.88h0c-6.3.86-8.79,3.48-5.5,9.1.76,1.3.71,3,1,4.47a19.81,19.81,0,0,0,3.44.83,19.81,19.81,0,0,1-3.44-.83c4.18,6.15,10.67,3.88,16.6,3.67,2.47.69,5.68-1.12,7.49,1.79a4.15,4.15,0,0,0,.56-.35,4.15,4.15,0,0,1-.56.35c3.13,2.36,6.15,5,10.83,3.79l1.76,1.8c1.65,5.82,6.91,6.54,12,5.75a53.4,53.4,0,0,1,11.84-.21l1.52,1.36c2.53,10.68,9.55,18.79,18.39,25.85h0l4.37,6.52c-3.73,9.66,1.61,16.22,9.34,22,.77,3.09,1,6.39,2.44,9.23,2.1,4.24.8,9.81,6.1,12.79,5-.12,10.08-.67,14.68,1.93,1.86,1,3.78.68,5.79,0C-72,484.78-70.28,485-70.59,483Zm-110.57-92.67c-.42,0-.89,0-1.36-.05.47,0,.94,0,1.36.05a2.9,2.9,0,0,1,1.07.26A2.9,2.9,0,0,0-181.16,390.31Zm-.85-3.12a3.33,3.33,0,0,1-1-.88,3.33,3.33,0,0,0,1,.88,2.72,2.72,0,0,0,2.92-.33A2.72,2.72,0,0,1-182,387.19Zm69,42.12s0,.06,0,.09S-113,429.33-113,429.31Zm0,.29a3.27,3.27,0,0,0,.1.71,1.09,1.09,0,0,1,0,.36,1.09,1.09,0,0,0,0-.36A3.27,3.27,0,0,1-113,429.6Zm-2.2,2.1a5,5,0,0,1,2.15-.58.66.66,0,0,0,.09-.19.88.88,0,0,1-.09.2A4.85,4.85,0,0,0-115.24,431.7Z" transform="translate(227 -11.52)" style="fill:#ffc48b"/><path d="M618.61,463c-2.85-3.69-4-6.4-1.75-9.14a2.81,2.81,0,0,1,4,.2C623.29,457.26,620.23,459.35,618.61,463Z" transform="translate(227 -11.52)" style="fill:#ffc48b"/><path d="M354.52,500a4.22,4.22,0,0,0-5-3.16c-4.74.68-6.29,4-7.27,7.67a2.53,2.53,0,0,0,0,.67c-.81,3.15-3.28,5.82-3.21,9.22a279.48,279.48,0,0,0-20.31,30.5c-3,.79-4,3.38-5.38,5.41-3.74,5.67-7.64,11.2-12.84,15.9-5.15,2.74-8.67,6.9-11.53,11.41-2.73,4.31-6.42,5.65-11.8,5.4-7.18-.34-13.54-3.19-20.36-4.52.28,4.29-1.37,8-4.52,11.12,4.32,3.19,10.19,1.8,14.83,4.05,6.53-7.51,7.81-7.57,12.31.32,2,3.57,3.33,4.05,7.11,1.36,4.25-3,9.52-5,14.33-7.38,3.68-1.86,6.73-4,6.21-8.47-.42-3.53,3.09-4.06,5.62-4.74,1.26-.34,5.39.3,2.81,2.6-7.9,7.05-2.39,12.08,2.22,17.53.7.82.78,2.06,1.15,3.1l3,1.55c3.43-1.65,8.81,2.31,10.95-3.05-3.14.1-6.35.56-9.1-1.39-1.36-.53-1.59-1.33-.74-2.4,0-1,0-2.08-.05-3.12-1.84-.73-2.53-1.7-2.65-2.75a3.54,3.54,0,0,1,0-.46,3.54,3.54,0,0,0,0,.46c.12,1,.81,2,2.65,2.75a99.76,99.76,0,0,0,2.93-13.79c1.27-7.9-.44-16.41,4.77-23.67,5.47-10.33,12.45-20.11,15.48-31.34,1-3.76,1.2-6.85,5.88-9.13S355.74,504.3,354.52,500Zm-37.09,68.14a2.18,2.18,0,0,0-.78-.34,2.35,2.35,0,0,1,.78.33Zm1.78-20a6.28,6.28,0,0,1-.51-2.33A6.28,6.28,0,0,0,319.21,548.2Zm-1.14,16.67a2,2,0,0,0-.25-.89A2,2,0,0,1,318.07,564.87Zm-.15.75a12.43,12.43,0,0,1-1.59,2A12.43,12.43,0,0,0,317.92,565.62ZM313,567.84a3.57,3.57,0,0,1-.91-.21A3.57,3.57,0,0,0,313,567.84Zm-7.35,1.62-.46-.12Zm19.09-19a3.69,3.69,0,0,1,.24,1A3.69,3.69,0,0,0,324.71,550.46Z" transform="translate(227 -11.52)" style="fill:#ffc48b"/><path d="M623.39,448.66l1.24,1.76C623.45,450.26,623.18,449.6,623.39,448.66Z" transform="translate(227 -11.52)" style="fill:#ae7244"/><path d="M37.48,500.9c1.73.66,1.57,2.09,1.69,3.4C38,503.42,35.53,503,37.48,500.9Z" transform="translate(227 -11.52)" style="fill:#ffc48b"/><path d="M69.74,574.52a84.6,84.6,0,0,0,27.33,2.78c4.37,3.29,3.89,6-1.25,8.09-6.65,2.74-12.93,6.42-20.48,7-1.69.12-4.39.56-4.92-.9-2.62-7.28-9.13-5.81-15-5.82-1.82,0-4,0-4.65-1.63-2.31-5.48-6.92-4.8-11.72-3.9-.39-9,2.2-10.81,14.32-10-.8,3.06-5.38,3.41-5.79,7.22a19.25,19.25,0,0,1,15.21,2c4.52,2.54,7.06.45,6.5-4.33Z" transform="translate(227 -11.52)" style="fill:#ffc48b"/><path d="M17.63,550.13c6.19.63,12.83,7.87,10.45,12.93-2.73,5.81-3.63,9.38,4.61,11.34,2.64.63,1.79,5.87,6.35,5.7-3.2,3-9.45,1.17-11.68,6.08-.57,1.26-3.53.57-3.68-.6-.56-4.36-5.37-7.69-3.37-12.68,1.5-3.74,1.18-7.21-4.43-8.19-2,1.49-1.31,3.6-.83,5,2.22,6.52-3.37,8.5-7.87,9.81-2.91.85-6-1.74-5.95-5.44.06-4.52.08-9,.11-13.55,3.59,2.68,2.56,8.12,7.47,10,5.6,1.78,4.23-1.16,3.22-3.85.23-7.27.26-7.25,5.46-14C18,552.08,17.6,551,17.63,550.13Z" transform="translate(227 -11.52)" style="fill:#ffc48b"/><path d="M536.91,524.17c-2.84.43-3.55,4.56-7.3,3.55.44-2.13,3.43-2.76,3.3-5.33-5,1.39-9,5.19-14.56,4.51-.75-4.34-1.93-1.49-3-.12-9.85,12.08-16.32,25.64-21.19,39.83-.9,2.64-2.2,4.93-5,5.21s-1.37-2.92-2.66-4.17c-1.38,2.85-2.86,5.67-4.11,8.57-.91,2.1-2,4.81.51,6.18,2.07,1.13,4.16-.93,5.85-2.23s3.81-1.85,4.88-3c5.39-5.66,14.38-7.67,17.81-15.57,1.7-3.92,4-8.57,9.26-11.49.43,4.62-2.67,7.75-3.38,11.25,1.53.87,2.06-.08,2.83-.58,1-.69,1.81.16,2.64.59,6.32-11.74,3.34-27,17.1-35.92C538.58,525.58,537.43,525.46,536.91,524.17ZM513,550.5c-.37,1.9-2,3.11-4.07,3.53-1.54.3-2.4-.41-2.33-1.84.11-2.14,1.94-2.85,3.39-3.77C511.41,549.16,513.33,549,513,550.5Zm11.54-10.75c-2.55,1.06-1.75,4.14-4.64,5.2-3.21-3.63.3-6,2.11-8.59.65-.91,1.73-.33,2.29.57S526.13,539.11,524.58,539.75Z" transform="translate(227 -11.52)" style="fill:#ffc48b"/><path d="M113.75,568.88c0-2.07-.36-4.63-2.12-5.5-5.84-2.89-3.41-7.69-4.06-11.79l-1.7-2.62-.07-.05c-1.18,0-2.24-.27-2.75-1.39l-2.93.43c-4.83,2.83-2,8.9-6.31,12,3.38,3.79,3.14,8.15,2,12.45a4.57,4.57,0,0,0,1.21,4.92c4.37,3.3,3.89,6-1.25,8.1-6.65,2.74-12.93,6.42-20.48,7-1.69.12-4.39.56-4.92-.9-2.62-7.28-9.13-5.81-15-5.82-1.82,0-4,0-4.65-1.63-2.31-5.48-6.92-4.8-11.72-3.9h0c-3.2,3-9.45,1.17-11.68,6.08-.57,1.26-3.53.57-3.68-.6-.56-4.36-5.37-7.69-3.37-12.68,1.5-3.74,1.18-7.21-4.43-8.19-2,1.49-1.31,3.6-.84,5,2.23,6.52-3.36,8.5-7.86,9.81-2.91.85-6-1.74-5.95-5.44.07-4.52.08-9,.11-13.55a122.14,122.14,0,0,0-10.54-21c-1-1.56-2.74-3.34-1.17-4.93,1.8-1.82,3.32,1.27,5.26,1,6.7-3.43,9.18,1.16,12,5.08,1.11,1.64,2.43,3,4.81,3l-.06-.46.07-.17-.07.17a41.37,41.37,0,0,0,22.86,5.7L33,546.05c-2.64-3.17-8.64.68-10.52-4.08l8.47-.37C20.83,534,8.55,531.73-3.17,528.23c-5.47-.82-11.32,2-16.52-1.41-1.1.38-2.18.85-3.3,1.14,1.12-.29,2.2-.76,3.29-1.14-2.43-2.73-3.65-6.39-8.61-7-2.47-.31-2.74-3-2.53-5.13l6.94-1.5c-3.09-2-4.22-5.17-5.55-8.18-2.6,2.19-1.13,5-1.47,7.55a2.62,2.62,0,0,0-1.44-.18c-6.88-6.15-13.79-12.25-20.16-18.89-2.25-2.34-7.56-5.66-10.48-2.55s.45,6.93,4.43,9.05l3,.25.15-1.76c-1.08-.31-2.46-.36-2.42-1.81a1.18,1.18,0,0,1,.84-.76c1.61-.11,1.72,1.13,2.13,2.08,2.58.49,4.16,1.84,4.48,4.25l5.39,5.48c2.61,0,3.18,1.55,3.33,3.44L-43.37,513h0q-.57.13-1.14.33A1.24,1.24,0,0,0-43,514.49l-.2.11c4.36,2.63,10,4,11.11,9.69l5.83,3.76c.35,1.42.7,2.83,1,4.24,10,1.4,15.74,11.2,11,18.56,1.17,11.11,6.54,21.25,9.39,32,1.18,4.47,1.38,9.8,6.38,13.77,1.62-3.53.55-8.2,5.09-8.92,4.76-.76,7.8,2.36,10.06,5.86a4.83,4.83,0,0,0,.51.5c3.55,3.84,17.61,3.21,20.22-1.31,2.5-4.36,5-3.57,8-1C46.86,593,47.9,594.92,50,595c8.38.39,14.65,5.23,21.84,8.09,6.54,2.61,5.88,8.15,4.94,12.8-1,5.09-5.35.22-8,1.12-1.25.42-2.91-.64-4.4,1.28L89,623.65c-7-7.56-6.86-19.42,5.27-22.79,2.33-.65,5.45,0,6.29-2.77a25.61,25.61,0,0,1,8.63-12.5c4.53-3.25,1.3-8.77,4.5-12.4,0-.7.09-1.4.13-2.09ZM11.93,540.71a.56.56,0,0,1,.2.83l-1.3-.19Z" transform="translate(227 -11.52)" style="fill:#99594a"/><path d="M557.63,477.55c-7.09,5.83-15.89,10.11-20.68,18.06l-.26.28a1.54,1.54,0,0,1-.79,1.08c-4.17,3.88-8.26,7.82-12.55,11.58-1.47,1.29-3.18,3.39-5.56.88,2.23-3.25,2.06-7.78,6.52-9.84l-2.07-5.5a6,6,0,0,0,3.86-3.9l-.69-.72c-1.74,1.24-3.47,2.48-3.59,4.71-4.17,4.61-8.72,8.47-15.78,9.49-5,.72-7.72,4.56-8.43,8.62-1,5.71-3.59,10.77-6.08,15.93,3.47,1.07,2.5,4.2,3.31,6.35,1.08,2.84,1,5.79-4,2.95-3.2-1.8-5,0-6.14,2.61-2.76,6.44-3.14,13.67-8.2,19.37-1.4,1.57-.61,3.16.87,4.83,2.16,2.43,1.67,5.22-.93,7.26-4.14,3.25-3.36-1.56-4.74-2.62-2.14-1.64-3.77-.5-5.48.3-2.18,1-3.85,3-6.7,2.73-3.41,7.15-5.4,14.88-10.87,21.17h0c-4.23.76-8.72.76-12.36,3.31-21.19,2.15-39,12.65-58.63,18.84,2.48.38,4.84.62,6.18,3.15,1.9,3.61,5.51,4.11,9.55,3.44,8.82-1.44,14.1,1.61,16.32,9.48,2.92-1.72,3.35-4.59,3.66-7.09.47-3.66,3.05-6.15,4.92-9a4.43,4.43,0,0,1,5.11-2c3,.8,1.68,2.68,1.16,4.4-.67,2.19-.06,4.27,2.79,2.55,5.59-3.36,11.59-6.47,15-12.07,4.28-2.27,4.68-6.63,6.76-10.09,4.15-1.74,9.38-2.14,10.26-7.65.39-2.42,3-2,4.94-1.7,2.38.4,2.8,2.44,1.8,3.66-4.72,5.77.09,9.37,3.46,13.24,3.16,3.64,5.3,6.9,3.65,12.2-1.12,3.6-4.5,6.65-3.69,10.73-.71,2-1.43,3.93-2.14,5.89,2.57.58,5.55.26,7.5,2.85-3.2,2.2-6.36,4.33-9.45,6.53-1,.72-1.85,1.78-1,2.92a4.05,4.05,0,0,0,2.39,1.31c7,.95,13.8,2.39,20.92,2.93,6.19.48,6.82-4.64,9.37-5,4.25-.65,8.4.58,9.89-4.49.71-2.4,1.42-4.8,2.24-7.16,3.19-9.26,6.47-18.49,16.44-24a2.71,2.71,0,0,1,1.2-.11c-1.41-6.38,2.21-10,8.13-12.79,3.15-1.52,7.64-1,9.44-4.71-3-5.27-2.48-9.32,4.62-11.37,1.74-.51,3.89-1.14,3.86-3.46l-1.63-1.24c-5-.21-4.73-3-3.27-7.26-14.63,4.91-24.51,15.63-38.58,19.38l-1.75,1.13-.69.57.62-.63,1.34-1.5c3-5.83,5-12.07,12-15.78,3.88-2.05,1.47-6.71,1.85-10.2a2.45,2.45,0,0,0-.1-.85c-.83-.43-1.59-1.28-2.64-.59-.77.5-1.3,1.45-2.83.58.71-3.5,3.81-6.63,3.38-11.25-5.26,2.92-7.56,7.57-9.26,11.49-3.43,7.9-12.42,9.91-17.81,15.57-1.07,1.13-3.33,1.81-4.88,3s-3.78,3.36-5.85,2.23c-2.48-1.37-1.42-4.08-.51-6.18,1.25-2.9,2.73-5.72,4.11-8.57.16-1.22.33-2.45.49-3.68-2.57-1.34-1.95-2.3.46-3a2.59,2.59,0,0,0,.6-1.07c-.1-3.44-1.71-7.49,4.26-8.47l.08,0c.17-1.86,1.19-2.76,3.35-2.37.63-.36,1.5-.57,1.87-1.08,6.89-9.56,8.66-22,20.26-28.92h0c1.23-.41,1.19-2.87,3.4-1.71l0,0c-1.08-1.56.53-2,1.42-2.71,5.08,1.29,11.66-2.79,15.35-9.52,5.16,1.25,7.82-4.91,13.28-3.77-.79,2.63-2.9,4-4.69,5.55-2.82,2.43,2.41,4.71.05,7.07,2,1.41,3.17-.51,4.7-1-.31-1.72,1.41-2.48,2.17-3.7-.59-1.26-3.92-1.54-1.3-4,2.33-2.2,4-5,5.94-7.51l-4.47-2.33-9.68,3.94a8.25,8.25,0,0,0-4.8-3.58,8.25,8.25,0,0,1,4.8,3.58l9.68-3.94c-.14-1.25-.28-2.5-.43-3.75.75-4.81,7.72-6,8-11.09l1.2-1C562.26,476.07,560.07,475.55,557.63,477.55Zm-47.26,41.73a2.48,2.48,0,0,0,2.56.45A2.48,2.48,0,0,1,510.37,519.28Zm-1-1.75h0c-1.9,2.85-3.88,5.66-5.68,8.56-1,1.56-2.62,3.06-3.84,1.47-.71-.94-3.36-2.12-1.64-4.49a67.7,67.7,0,0,1,14.66-15.26c2.49-1.83,3.48-1,4,1.38C513.21,511.15,511.68,514.63,509.36,517.53ZM538.05,505s0,0,0,0,0,0,0,0Z" transform="translate(227 -11.52)" style="fill:#99594a"/><path d="M570.31,534.92c.93,4.75-1.45,8.06-5.72,10.53C563.61,540.68,567.33,538,570.31,534.92Z" transform="translate(227 -11.52)" style="fill:#ffc48b"/></g></svg>