<?xml version="1.0" encoding="utf-8"?>
<!-- Generator: Adobe Illustrator 23.0.0, SVG Export Plug-In . SVG Version: 6.00 Build 0)  -->
<svg version="1.1" id="Capa_1" xmlns="http://www.w3.org/2000/svg" xmlns:xlink="http://www.w3.org/1999/xlink" x="0px" y="0px"
	 viewBox="0 0 125 157" style="enable-background:new 0 0 125 157;" xml:space="preserve">
<style type="text/css">
	.st0{fill:#EFEFEF;}
	.st1{fill:#EAEAEA;}
	.st2{fill:#E4E4E4;}
	.st3{fill:#CECECE;}
	.st4{fill:#D3D3D3;}
	.st5{fill:#EDEDED;}
	.st6{fill:#DADADA;}
	.st7{fill:#DDDDDD;}
	.st8{fill:#DCDCDC;}
	.st9{fill:#DDDDDC;}
	.st10{fill:#DBDBDB;}
	.st11{fill:#D7D7D7;}
	.st12{fill:#D2D2D2;}
</style>
<g>
	<path class="st0" d="M10,55.5c5-2.8,8.6-7.6,14.4-9.5c1.8-0.6,3.4-1.4,5.4-1.3c2.2,0,2.4-2.7,4.1-3.7c2.4-1.5,5.4-2.6,6.6-5.8
		c0.6-1.6,2.1-2.6,4-3.2c3.1-0.9,5-3.7,7.6-5.4c3.6-2.3,7.6-2.7,11.3-4.4c1.2-0.5,2.3,0.4,3.1,1.3c2.8,3.2,6.1,5.8,8.2,9.7
		c0.7,1.3,1.7,2.5,3.1,3.3c5.7,2.8,8.8,7.7,11.4,13.3c1,2.1,2.8,3.9,4,6c0.5,0.9,0.8,1.7,0.8,2.6c-3.9-1-4.4-5-6.5-7.5
		c-2.5-3-4.6-6.3-7.3-10c-0.3,4.3,0.8,7,2.7,9.9c2.5,3.6,5.8,7.1,6,12c0.1,1.5,1.6,3.6-1.1,4c-2.5,0.4-5,3.6-7.7,0.5
		c-1.2-1.4-3-1.5-4.1-0.5c-1.3,1.1,0.2,2.1,1,2.8c1.7,1.7,0.5,2.5-1,3c-1,0.3-2.2,0.3-3.2,0c-1.6-0.5-3.2-0.5-4.2,0.8
		c-1.1,1.4,1.5,1.8,1.5,3.2c-3.5,0-5-0.1-5.7-1.7c-1-2-2.4-1.1-3.1-0.5c-1.3,1.1,0.4,1.7,1,2.4c0.5,0.5,1.2,0.9,0.8,1.7
		c-0.2,0.3-0.8,0.7-1.1,0.6c-2.5-0.4-5-1.7-7.3,0.7c-0.1,0.2-1.1-0.3-1.6-0.6c-1.1-0.7-2.2-1.4-3.3-2.1c-0.7-1.4-1.6-1.8-2.7-0.3
		c-1.2,1.6-2.3,1.1-3.6,0.2c-1.5-1.1-2.4-2.5-2.7-4.3c-0.2-1-0.7-2.6-2-1.6c-3.9,3-6.5,2.2-8.5-2.1c-0.1-0.2-0.4-0.3-0.6-0.3
		c-1.8-0.5-2.4-1.8-2.7-3.7c-0.4-2.4-2.1-3.6-4.4-3.9c-0.7,2.7,1.9,3.2,2.6,5.1c-1.6-1-4.6,0.6-4.9-1.7c-0.2-2.5-2.5-4.6-1.4-7.4
		c0.5-1.3-0.7-2.4-1.6-2.9c-1.1-0.7-1.5,0.8-2,1.5c-0.7,0.9-1.6,0.9-2.5,0.9C11.9,56,11,55.7,10,55.5z"/>
	<path class="st1" d="M49.9,76.8c1.1,0.7,2.1,1.5,3.3,2.1c0.5,0.3,1.4,0.8,1.6,0.6c2.3-2.4,4.8-1.1,7.3-0.7c0.4,0.1,1-0.3,1.1-0.6
		c0.4-0.8-0.3-1.2-0.8-1.7c-0.7-0.6-2.3-1.2-1-2.4c0.7-0.6,2.1-1.5,3.1,0.5c0.8,1.5,2.3,1.6,5.7,1.7c0-1.3-2.5-1.8-1.5-3.2
		c1-1.3,2.6-1.2,4.2-0.8c1,0.3,2.2,0.3,3.2,0c1.5-0.4,2.7-1.2,1-3c-0.8-0.8-2.3-1.8-1-2.8c1.1-0.9,2.9-0.9,4.1,0.5
		c2.7,3.1,5.2-0.1,7.7-0.5c2.7-0.4,1.1-2.5,1.1-4c-0.3-4.8-3.6-8.3-6-12c-2-2.9-3.1-5.6-2.7-9.9c2.7,3.8,4.8,7.1,7.3,10
		c2.1,2.5,2.6,6.5,6.5,7.5c2.8,3.7,6,7.3,8.7,11.1c1.5,2.1,0.4,4.5,2.4,6.5c3.9,4,7,8.8,9.4,14c0.9,2.1,0.9,4-1.2,5.4
		c-0.3-1.9-1.7-1.4-2.9-1.5c2.7-2.9,2.5-4.1-0.7-6.4c0-1.6-1.1-2.5-2.1-3.6c0-1,0-1.9-0.9-2.5c-3.2-2-4.2-5.6-6.4-8.8
		c-0.5,1.9-1.7,3-2.9,4c-1.9,1.6-4.1,1.8-5.9-0.3c-0.5-0.6-0.4-1.8-1.6-1c-0.8,0.5-0.9,1.5-0.3,2.2c1,1.2,0.8,1.7-0.6,2.6
		c-1.4,0.9-2,0.9-2.7-0.5c-0.8-1.5-1.7-1.1-2.9-0.3c-1.2,0.8-1.6,2-2.3,3c-0.6,0.9-1.3,1.8-2.6,1.5c-1.3-0.3-1.3-1.5-1.4-2.6
		c-0.1-1.3,0.4-2.8-0.5-4.2c-1.1,1-2.1,3.2-3.1,0.1c-0.4-1.3-1.2-0.8-1.9-0.2c-1.2,1.1-0.5,1.5,0.6,2.2c1.5,1,4.6,1.6,2.4,4.8
		c-0.1,0.2-0.5,4.4,2.8,4.4c0.5,0,0.9,0.2,0.9,0.8c-0.1,1-0.9,1.2-1.6,1c-3.8-1.4-7.6-0.1-11.4,0.5c-0.2-1.4,2.6-1.3,1.3-2.8
		c-0.9-0.9-2.1-0.3-3.3,0.1c-2.4,0.7-4.1,1.9-5,4.4c-0.3,0.8-1.1,1.6-1.9,2c-2,1-3.9,1.7-5.9,2.9c-4.2,2.4-6.9,6.4-11,9.2
		c0.1-1,0.3-1.9,0.3-2.8c0-0.6-0.7-1.3-1.1-0.9c-1.1,1-3.4,2.3-3.3,2.5c1.2,3.2-2.6,4.6-2.6,7.2c-2.4-4.7-5.6-9.1-7.2-14.2
		c1.4-0.8,2.9-0.5,4.4-0.5c1.8,0,5.2,0.7,3.7-3.4c-0.2-0.5-0.4-1.3,0.4-1.5c0.9-0.3,1.1,0.6,1.6,1.1c0.7,0.8,1.6,2.8,2.4,1.3
		c0.6-1.1,3.6-1.9,1.5-4.3c-0.5-0.6-1.3-1.4-0.5-2.7c2.2,0.6,4.4,1.9,6.8,0.7c0.3-0.1,1.1,0.4,1.5,0.7c0.9,1,1.2,2.8,3.1,2.2
		c0.8-0.2,1.3-1,1.5-1.9c0.5-2.3-2.1-1.8-2.9-3c-0.1-0.2-0.4-0.2-0.6-0.4c0-0.5,0-0.9,0-1.4c1.2-1.2,0.8-1.8-0.7-2.1
		c-0.7,0-1.4,0-2.1,0c0-1.6,1.4-2.4,2.3-3.4C48.8,79,50.2,78.5,49.9,76.8z M84,73.9c-0.3-1.3-0.7-2.6-2.5-1.3
		c-0.7,0.5-1.2,1.2-2.4,1.1c-2.5-0.2-1.6,1.5-0.9,2.4c0.8,1,2,1.8,3.4,1.1C82.8,76.6,83.9,75.6,84,73.9z M66.4,78.9
		c0.5,0,0.9-0.1,0.7-0.6c-0.1-0.2-0.3-0.4-0.5-0.4c-0.3,0-0.5,0.2-0.8,0.4C66,78.5,66.2,78.7,66.4,78.9z M80.2,71
		c-0.2-0.1-0.4-0.3-0.6-0.2c-0.1,0.1-0.2,0.4-0.3,0.6c0.2,0.1,0.4,0.3,0.6,0.2C80,71.5,80.1,71.2,80.2,71z"/>
	<path class="st2" d="M32.8,112.4c0-2.7,3.8-4,2.6-7.2c-0.1-0.2,2.2-1.5,3.3-2.5c0.4-0.4,1.1,0.3,1.1,0.9c0,0.9-0.2,1.8-0.3,2.8
		c4.1-2.7,6.7-6.7,11-9.2c1.9-1.1,3.9-1.9,5.9-2.9c0.8-0.4,1.6-1.2,1.9-2c0.9-2.5,2.6-3.6,5-4.4c1.2-0.4,2.4-1,3.3-0.1
		c1.4,1.5-1.5,1.4-1.3,2.8c3.8-0.6,7.5-1.9,11.4-0.5c0.6,0.2,1.5,0,1.6-1c0.1-0.6-0.3-0.8-0.9-0.8c-3.3,0-3-4.2-2.8-4.4
		c2.1-3.2-0.9-3.8-2.4-4.8c-1.1-0.8-1.8-1.1-0.6-2.2c0.6-0.6,1.4-1.2,1.9,0.2c1,3,2,0.9,3.1-0.1c0.9,1.4,0.4,2.9,0.5,4.2
		c0.1,1.1,0.1,2.2,1.4,2.6c1.3,0.3,2-0.6,2.6-1.5c0.7-1.1,1.2-2.2,2.3-3c1.2-0.8,2.1-1.2,2.9,0.3c0.7,1.4,1.3,1.4,2.7,0.5
		c1.4-0.9,1.6-1.4,0.6-2.6c-0.6-0.7-0.5-1.6,0.3-2.2c1.2-0.8,1.1,0.5,1.6,1c1.8,2.1,4,1.8,5.9,0.3c1.2-1,2.5-2.1,2.9-4
		c2.2,3.2,3.3,6.8,6.4,8.8c0.9,0.6,0.9,1.6,0.9,2.5c-3.2-2.4-6.4,1.2-10,0.3c1.2-1.1,2.1-2,3-2.9c0.5-0.5,1.5-1.1,0.8-2
		c-0.6-0.7-1.5-0.3-2.3,0c-1.3,0.5-1.9,2.2-3.6,1.8c-1,0-2.1,0-2.1,1.4c-2.5,0.6-5.5,0.6-5.7,4.3c-0.3,0.6-0.8,0.7-1.4,0.7
		c-3.6-1.4-3.1,2-4.3,3.6c-1.2,1.2-4.4-1.7-4.2,2.1c0,0.7,0,1.4,0,2.1c-0.7-0.2-1.4-0.3-2-0.7c-1.7-1.3-2.7-1.7-3.5,1.1
		c-0.5,1.7-2.1,3.1-4.2,3.9c-1.9,0.7-3.9,1.8-5.3,3.5h0c-1.4-0.1-2.8,0.2-4,1c-1.2,0.8-1.8,2.4-3.3,2.5c-4.3,0.2-5.9,3-6.9,6.5l0,0
		c-2.4,0.8-4.8,1.5-5.7,4.3c-0.2,0-0.5,0-0.7,0c-2.6-0.1-2.7,1.7-2.9,3.6C35.4,119.4,34.2,115.8,32.8,112.4z"/>
	<path class="st3" d="M88.9,116.6c-0.9,0.5-1.8,1-2.8,1.6c-0.5,0-1,0-1.5,0c-0.9,0-1.5,0.5-2.1,1.2c-1.4,1.4-3.4,1-4.9,0.8
		c-1.9-0.2-2.9-0.3-4.4,1.7c-0.3,0.7-0.5,1.3-0.8,2c-0.8,0.8-1.5,1.7-2.8,1.4c-0.7-2.3-1.8-0.9-2.3,0c-1.1,1.9-2.7,2.4-4.7,3.2
		c-1.7,0.7-4.1-0.1-5.2,2.1c-0.3,0.6-1.6,0.6-1.8-0.2c-0.7-3.2-2.9-1.3-4.5-1.5c0,0,0,0,0,0c-0.8-1.3,4.2-3.6-0.7-4.3
		c-0.1-0.1-0.2-0.1-0.3-0.2c0.1,0.1,0.2,0.1,0.3,0.2c-0.1,1.4-0.8,2.1-2.1,2.1c0-0.5,0-0.9,0-1.4c-0.1-2.8,1.2-4.8,3.8-5.6
		c1.9-0.6,2.9-1.4,2.7-3.5c-0.1-0.9-0.1-2.2,1.2-2.2c3.6,0.2,6.7-1,10-2.6c2.8-1.3,6.7-0.5,7.8-4.7c0.1-0.3,0.5-0.5,0.8-0.6
		c2.3-1.3,3.6-3.1,3.2-5.9c-0.2-1.6,1.3-1.8,2.2-2.4c1.2-0.7,1.4,0.6,1.9,1.3c0.6,0.9,1,2.8,2.3,2.2c3.2-1.4,5.3,1.1,8.4,2
		c-5.1,0.1-0.3,4.9-3.4,5.8c-0.8-0.9-0.1-2.6-1.8-2.8c-0.2,0-0.6,0.4-0.6,0.7c-0.2,1.3,0.2,2.6,1.3,3c1.4,0.5,1.5,3,3.6,2.4
		c0,0.9,0,1.9,0,2.8c-0.2,0-0.4,0.1-0.6,0.1C90.1,115.2,89.1,115.2,88.9,116.6z"/>
	<path class="st4" d="M91.8,112.4c-2.1,0.6-2.1-1.9-3.6-2.4c-1.2-0.4-1.5-1.7-1.3-3c0-0.3,0.4-0.7,0.6-0.7c1.7,0.1,1,1.9,1.8,2.8
		c3-1-1.8-5.7,3.4-5.8c-3.1-0.8-5.2-3.3-8.4-2c-1.3,0.6-1.7-1.3-2.3-2.2c-0.5-0.8-0.7-2-1.9-1.3c-0.9,0.5-2.5,0.8-2.2,2.4
		c0.4,2.8-1,4.6-3.2,5.9c-0.3,0.2-0.7,0.4-0.8,0.6c-1.1,4.2-5,3.4-7.8,4.7c-3.3,1.5-6.4,2.7-10,2.6c-1.3-0.1-1.3,1.2-1.2,2.2
		c0.2,2-0.8,2.9-2.7,3.5c-2.6,0.8-3.9,2.8-3.8,5.6c-1.4,0.1-1.8-1.4-2.7-1.9c-1.1-0.5-3-1.9-2.9,1.2c-1,0-1.7-0.5-2.2-1.4
		c0.5-1.9,1-3.8,1.4-5.7c0.2,0,0.5,0,0.7,0c3.6,0.8,5-0.3,5.7-4.3c0,0,0,0,0,0c3.8-1.2,6.9-3.5,10.3-5.6c1.8-1.1,4.3-1.4,4-4.4
		c0,0,0,0,0,0c1.6-0.8,2.6,1.6,4.4,0.5c3-1.9,5.1-5,8.9-5.8c0.6-0.1,1.1-1.2,1.6-1.8c0.7-0.5,1.9-0.5,1.8-1.7
		c-0.1-0.9-1-1.1-1.8-1.2c-0.2-3.8,3.1-1,4.2-2.1c1,0,1.9,0,2.9,0c0.3,0.4,0.6,0.7,0.9,1.1c2.1-3,4.2-1.5,6.4-0.1
		c0.1,0,0.2-0.1,0.3-0.1c1.2-0.3,2.1,0,2.6,1.2c0.5,1.3,1.6,1.7,2.9,1.5c1.8-0.2,3.2,0.7,4.7,1.4c0,0.5,0,0.9,0,1.4
		c-0.9,0.1-1.8,0.3-1.8,1.3c0.1,1.2,1.2,0.9,1.9,0.7c0.7-0.2,1.4-0.1,2,0.2c0,0.2,0,0.5,0,0.7c-1.8,0.6-3.6,1.3-1.4,3.6
		c0,0.9-0.4,2-1.2,1.8c-3.3-0.7-2.1,1.7-2.3,3.2c0,0,0,0,0,0C96.5,108.8,94.2,110.8,91.8,112.4z"/>
	<path class="st5" d="M48.4,86.8c0.2,0.1,0.5,0.2,0.6,0.4c0.8,1.2,3.3,0.7,2.9,3c-0.2,0.9-0.7,1.6-1.5,1.9c-1.9,0.6-2.2-1.2-3.1-2.2
		c-0.4-0.4-1.2-0.9-1.5-0.7c-2.4,1.1-4.6-0.1-6.8-0.7c-0.8,1.2,0,2.1,0.5,2.7c2.1,2.3-0.9,3.1-1.5,4.3c-0.8,1.5-1.7-0.5-2.4-1.3
		c-0.5-0.5-0.7-1.4-1.6-1.1c-0.8,0.2-0.6,0.9-0.4,1.5c1.5,4-1.8,3.4-3.7,3.4c-1.5,0-3-0.4-4.4,0.5c-0.2-0.2-0.5-0.5-0.7-0.7
		c0.2-1.6-0.5-2.3-2.1-2.1c-0.2-0.7-0.5-1.4-0.7-2.1c0.6-1.1-0.4-0.5-0.7-0.7c-0.6-0.3-0.7-0.8-0.7-1.4c0.7,0,1.4,0,2.1,0
		c0.7,0.2,1.4,0.5,2.1,0.7c0.1,2.3,2.4,2.3,3.7,3.2c0.4,0.3,1-0.5,1.1-1.1c0.6-2-1.4-2.5-2.2-3.6c-0.7-1-1.7,0.3-2.6,0.1
		c-0.2-1.9-1.4-0.4-2.1-0.7c-1-0.2-1.9-0.9-0.3-1.3c1.6-0.4,3.2-0.5,4.8-1.1c0.7-0.3,1.8-0.5,1.6-1.6c-0.1-0.8-0.9-1.1-1.6-1.1
		c-1.3-0.1-2.8-0.8-2.6-1.9c0.3-1.8-0.4-2.8-1.4-4c-0.7-0.9-0.2-1.8,0.6-2.4c1.4-1,2.6-3.1,1.5-3.7c-1.7-0.9-3.8-2.9-6-1.4
		c-2.4,1.6-3.3,1.1-3.6-1.5c-0.1-0.5-0.3-1.3-0.7-1.5c-3.3-1.9-2.5-5-1.6-7.5c0.7-1.9,0.2-3-0.5-4.4c1,0,1.9,0,2.5-0.9
		c0.5-0.7,0.8-2.1,2-1.5c0.9,0.5,2.1,1.6,1.6,2.9c-1.1,2.8,1.2,4.9,1.4,7.4c0.2,2.3,3.3,0.8,4.9,1.7c-0.7-1.9-3.3-2.4-2.6-5.1
		c2.3,0.3,4,1.6,4.4,3.9c0.3,1.9,0.9,3.1,2.7,3.7c0.2,0.1,0.5,0.2,0.6,0.3c2,4.3,4.7,5,8.5,2.1c1.3-1,1.8,0.6,2,1.6
		c0.4,1.8,1.2,3.2,2.7,4.3c1.3,0.9,2.4,1.4,3.6-0.2c1.1-1.4,1.9-1,2.7,0.3c0.3,1.6-1,2.2-1.9,3c-1,1-2.3,1.7-2.3,3.4
		c-2.4-0.2-4.7,1.4-7.3,0.2c-1-0.5-1.6,0.8-1.7,1.8c-0.1,0.8,0.9,1,1.2,0.6c1.6-1.9,2.7-0.1,3.9,0.5C43.9,87.5,46.1,88.1,48.4,86.8z
		 M31.4,84c0.3,0.6,0.7,1.3,1.6,1.1c0.1,0,0.3-0.4,0.3-0.5c-0.2-1-1-1.2-1.8-1.3c-0.3-0.4-0.8-0.8-1-0.2C30,83.8,30.8,83.9,31.4,84z
		 M31.9,80.4c0.9-0.1,2.2,0.2,2.1-1.2c-0.1-1.6-1.5-2-2.8-2.2c-1.3-0.2-2,0.7-1.9,1.9C29.4,80.7,30.8,80.3,31.9,80.4z M19.2,67.6
		c-0.3-0.8-0.4-1.8-1.5-2c-0.7-0.1-1.1,0.3-1.1,1c0.1,1.1,0.8,1.9,2,2.1C19.1,68.8,19.1,68.2,19.2,67.6z M35.2,88.4
		c0.2,0.1,0.4,0.3,0.6,0.2c0.1-0.1,0.2-0.4,0.3-0.6c-0.2-0.1-0.4-0.3-0.6-0.2C35.3,87.9,35.3,88.2,35.2,88.4z M37.3,79.2
		c0.2,0.1,0.4,0.3,0.6,0.2c0.1-0.1,0.2-0.4,0.3-0.6c-0.2-0.1-0.4-0.3-0.6-0.2C37.5,78.7,37.4,79,37.3,79.2z M41.5,78.7
		c0.1-0.2,0.3-0.4,0.2-0.6c-0.1-0.1-0.4-0.2-0.6-0.3c-0.1,0.2-0.3,0.4-0.2,0.6C41,78.6,41.3,78.6,41.5,78.7z M28.2,74.5
		c-0.2-0.1-0.4-0.2-0.6-0.3c-0.1,0.2-0.3,0.4-0.2,0.6c0.1,0.1,0.4,0.2,0.6,0.3C28.1,74.9,28.1,74.7,28.2,74.5z M26.9,69.3
		c-0.1,0.2-0.3,0.4-0.2,0.6c0.1,0.1,0.4,0.2,0.6,0.3c0.1-0.2,0.3-0.4,0.2-0.6C27.4,69.4,27.1,69.4,26.9,69.3z"/>
	<path class="st1" d="M12.9,56.2c0.7,1.4,1.2,2.6,0.5,4.4c-0.9,2.5-1.6,5.6,1.6,7.5c0.4,0.2,0.6,1,0.7,1.5c0.4,2.6,1.3,3.1,3.6,1.5
		c2.2-1.4,4.3,0.5,6,1.4c1.2,0.6-0.1,2.7-1.5,3.7c-0.9,0.6-1.3,1.5-0.6,2.4c1,1.2,1.7,2.2,1.4,4c-0.2,1,1.3,1.8,2.6,1.9
		c0.8,0,1.5,0.3,1.6,1.1c0.2,1.1-0.9,1.3-1.6,1.6c-1.5,0.6-3.2,0.7-4.8,1.1c-1.6,0.4-0.6,1,0.3,1.3c0,0.5,0,0.9,0,1.4
		c-0.7,0-1.4,0-2.1,0c-3.1-5.3-6.1-10.7-9.3-16C9.1,71.2,6.6,67.3,4,63.6c-1.2-1.8-1.5-2.8,1-4c1.9-0.9,4.2-1.7,5.1-4
		C11,55.7,11.9,56,12.9,56.2z"/>
	<path class="st6" d="M69.8,125.2c1.3,0.3,2-0.6,2.8-1.4c0,1.4,0.6,2.5,1.7,3.4c-3.9,1.6-7.3,4-10.4,6.7c-2.1,1.9-5.3,1.8-6.8,4.6
		c-0.2,0.4-1.2,0.2-1.6-0.3c-2.9-2.9-6.5-5-8.5-8.7c0.2-0.2,0.5-0.5,0.7-0.7c1.2,0,2.4,0,3.5,0c0,0,0,0,0,0c1,1.9,2.9,4.2,4.4,3.9
		c3.3-0.7,7-0.5,9.8-3.1C67,128.2,69.9,128.2,69.8,125.2z"/>
	<path class="st7" d="M99.7,108.9c0.2-1.4-1-3.8,2.3-3.2c0.8,0.2,1.2-1,1.2-1.8c3-0.2,2.4-1.8,1.4-3.6c0-0.2,0-0.5,0-0.7
		c0.2-1.6-0.6-2.3-2.1-2.1c0-0.5,0-0.9,0-1.4c2-0.1,4.4,0.3,2.4-3c-0.3-0.4,0.3-1.3,0.4-2c0.9,0,1.9,0,2.8,0
		c0.1,1.4,1.4,1.9,2.1,2.8c1.2,0.1,2.6-0.4,2.9,1.5c0.2,2.7-1.1,4.7-3.3,6.2c-2.7,1.7-5,3.8-6.7,6.4
		C102.2,109.3,100.8,108.6,99.7,108.9z"/>
	<path class="st7" d="M91.8,112.4c2.4-1.6,4.6-3.6,7.8-3.5c-2.4,2.4-3.3,6.6-7.9,6.3C91.8,114.3,91.8,113.3,91.8,112.4z"/>
	<path class="st8" d="M47.7,128.8c-0.2,0.2-0.5,0.5-0.7,0.7c-1.7-1.4-3.7-2.6-4.3-5c-0.1-3.1,1.8-1.7,2.9-1.2c1,0.4,1.3,2,2.7,1.9
		c0,0.5,0,0.9,0,1.4C48.2,127.3,48,128,47.7,128.8z"/>
	<path class="st9" d="M84.7,118.1c0.5,0,1,0,1.5,0c-0.1,2.3-1.1,4-3.3,4.7c-1,0.3-1.6,0.7-1.7,1.8c-0.1,2.1-1.6,1.4-2.8,1.2
		c-0.2,0.2-0.4,0.3-0.6,0.3c0.6-0.7,1.5-1.3,1.3-2.5c-0.1-1.4,0.5-2.1,2-2.2C83.2,121.5,84.4,120.3,84.7,118.1z"/>
	<path class="st10" d="M42,117.4c-0.5,1.9-1,3.8-1.4,5.7c-0.9-0.4-1.4-1.1-1.4-2.1C39.3,119.1,39.5,117.3,42,117.4z"/>
	<path class="st7" d="M88.9,116.6c0.2-1.4,1.2-1.3,2.2-1.3C91,116.7,90,116.7,88.9,116.6z"/>
	<path class="st1" d="M22.9,95.3c1.6-0.2,2.3,0.6,2.1,2.1C24,97,23.3,96.3,22.9,95.3z"/>
	<path class="st0" d="M21.4,92.5c0.3,0.2,1.3-0.3,0.7,0.7C21.9,93,21.6,92.7,21.4,92.5z"/>
	<path class="st8" d="M108.2,91.1c-0.9,0-1.9,0-2.8,0c-2.3-4.6-2.3-4.6-6.8-1.8c-0.3,0.2-0.6,0.3-1,0.4c-1.6,0.7-2.4,0.8-3.1-1.5
		c-0.9-2.8,1.4-4.7,0.9-7.1c1.7,0.4,2.4-1.3,3.6-1.8c0.8-0.3,1.7-0.7,2.3,0c0.7,0.9-0.3,1.4-0.8,2c-0.8,0.9-1.8,1.7-3,2.9
		c3.6,0.9,6.8-2.6,10-0.3c1,1,2.1,2,2.1,3.6C107,87.8,109.7,90.3,108.2,91.1z"/>
	<path class="st0" d="M48.4,86.8c-2.3,1.3-4.5,0.7-6.7-0.5c-1.1-0.6-2.3-2.4-3.9-0.5c-0.3,0.4-1.3,0.2-1.2-0.6
		c0.1-0.9,0.7-2.2,1.7-1.8c2.5,1.2,4.9-0.4,7.3-0.2c0.7,0,1.4,0,2.1,0c0,0.8-0.1,1.6,0.7,2.1C48.4,85.8,48.4,86.3,48.4,86.8z"/>
	<path class="st5" d="M84,73.9c-0.1,1.7-1.2,2.7-2.4,3.3c-1.3,0.7-2.6-0.1-3.4-1.1c-0.7-0.9-1.6-2.6,0.9-2.4
		c1.2,0.1,1.7-0.6,2.4-1.1C83.3,71.3,83.7,72.6,84,73.9z"/>
	<path class="st2" d="M108.2,91.1c1.6-0.7-1.2-3.2,1.4-3.6c3.3,2.3,3.4,3.5,0.7,6.4C109.5,93,108.3,92.4,108.2,91.1z"/>
	<path class="st5" d="M48.4,85.4c-0.8-0.5-0.7-1.4-0.7-2.1C49.2,83.5,49.6,84.2,48.4,85.4z"/>
	<path class="st0" d="M66.4,78.9c-0.2-0.2-0.4-0.4-0.5-0.7c0.3-0.1,0.5-0.3,0.8-0.4c0.1,0,0.4,0.2,0.5,0.4
		C67.2,78.8,66.9,78.9,66.4,78.9z"/>
	<path class="st0" d="M80.2,71c-0.1,0.2-0.1,0.5-0.3,0.6c-0.1,0.1-0.4-0.1-0.6-0.2c0.1-0.2,0.1-0.5,0.3-0.6
		C79.7,70.7,80,70.9,80.2,71z"/>
	<path class="st11" d="M95.4,81.1c0.5,2.4-1.8,4.3-0.9,7.1c0.7,2.3,1.5,2.2,3.1,1.5c0.3-0.1,0.7-0.2,1-0.4c4.5-2.8,4.5-2.8,6.8,1.8
		c-0.2,0.7-0.7,1.5-0.4,2c1.9,3.3-0.5,3-2.4,3c-1.5-0.7-2.9-1.6-4.7-1.4c-1.3,0.2-2.3-0.2-2.9-1.5c-0.5-1.2-1.4-1.5-2.6-1.2
		c-0.1,0-0.3,0.1-0.3,0.1c-2.2-1.4-4.3-2.9-6.4,0.1c-0.3-0.4-0.6-0.7-0.9-1.1c0.5-1.2,0.9-2.4,1.4-3.6c0.6,0,1.1-0.1,1.4-0.7
		c2.6,1.5,4.7,2,4.6-2.2c0-0.7,1.2-1.1,1.1-2C93.3,81.1,94.3,81.1,95.4,81.1z"/>
	<path class="st10" d="M62.7,103.2c0.4,3-2.2,3.3-4,4.4c-3.3,2-6.5,4.3-10.3,5.6c1-3.5,2.6-6.3,6.9-6.5c1.5-0.1,2.1-1.7,3.3-2.5
		C59.9,103.3,61.2,103,62.7,103.2z"/>
	<path class="st10" d="M77.6,96c-0.5,0.6-1,1.6-1.6,1.8c-3.7,0.8-5.9,3.9-8.9,5.8c-1.8,1.1-2.9-1.3-4.4-0.5c1.4-1.7,3.4-2.7,5.3-3.5
		c2.1-0.8,3.7-2.3,4.2-3.9c0.8-2.8,1.7-2.4,3.5-1.1c0.5,0.4,1.3,0.5,2,0.7C77.6,95.6,77.6,95.8,77.6,96z"/>
	<path class="st10" d="M93.2,82.5c0,0.9-1.1,1.4-1.1,2c0.1,4.2-2,3.7-4.6,2.2C87.8,83.2,90.8,83.2,93.2,82.5z"/>
	<path class="st10" d="M48.4,113.1c-0.7,4-2.1,5-5.7,4.3C43.6,114.6,46.1,113.9,48.4,113.1z"/>
	<path class="st10" d="M86.1,87.5c-0.5,1.2-0.9,2.4-1.4,3.6c-1,0-1.9,0-2.9,0C83,89.5,82.5,86.1,86.1,87.5z"/>
	<path class="st11" d="M77.6,96c0-0.2,0-0.5,0-0.7c0-0.7,0-1.4,0-2.1c0.8,0.1,1.7,0.3,1.8,1.2C79.5,95.5,78.3,95.6,77.6,96z"/>
	<path class="st12" d="M69.8,125.2c0.1,3-2.8,3-4.3,4.4c-2.8,2.6-6.5,2.4-9.8,3.1c-1.5,0.3-3.4-2-4.4-3.9c1.6,0.2,3.8-1.7,4.5,1.5
		c0.2,0.8,1.4,0.8,1.8,0.2c1.2-2.1,3.6-1.4,5.2-2.1c1.9-0.8,3.6-1.3,4.7-3.2C68,124.3,69.1,122.9,69.8,125.2z"/>
	<path class="st6" d="M76.3,122.3c-0.8-1-1.9-0.6-2.9-0.5c1.5-2,2.5-1.9,4.4-1.7c1.5,0.2,3.5,0.6,4.9-0.8c0.6-0.6,1.2-1.2,2.1-1.2
		c-0.3,2.2-1.5,3.4-3.7,3.5c-1.5,0-2.1,0.7-2,2.2C78,123.4,77.5,122.2,76.3,122.3z"/>
	<path class="st12" d="M47.7,128.8c0.2-0.7,0.5-1.4,0.7-2.1c1.4-0.1,2.1-0.8,2.1-2.1l0,0c4.9,0.6-0.1,2.9,0.7,4.3
		C50.1,128.8,48.9,128.8,47.7,128.8z"/>
	<path class="st12" d="M50.6,124.5c-0.1-0.1-0.2-0.1-0.3-0.2C50.4,124.4,50.5,124.4,50.6,124.5C50.6,124.5,50.6,124.5,50.6,124.5z"
		/>
	<path class="st11" d="M104.6,100.3c1,1.8,1.6,3.4-1.4,3.6C101,101.6,102.8,101,104.6,100.3z"/>
	<path class="st11" d="M102.5,97.5c1.6-0.2,2.3,0.6,2.1,2.1c-0.7-0.3-1.3-0.4-2-0.2c-0.7,0.2-1.8,0.5-1.9-0.7
		C100.6,97.8,101.6,97.5,102.5,97.5z"/>
	<path class="st1" d="M25,90.4c0.9,0.2,1.9-1.1,2.6-0.1c0.8,1.2,2.8,1.6,2.2,3.6c-0.2,0.6-0.7,1.4-1.1,1.1c-1.3-0.9-3.6-0.9-3.7-3.2
		C25,91.3,25,90.8,25,90.4z"/>
	<path class="st1" d="M31.9,80.4c-1.1-0.1-2.6,0.3-2.6-1.5c0-1.2,0.6-2.1,1.9-1.9c1.2,0.2,2.7,0.6,2.8,2.2
		C34.1,80.6,32.8,80.3,31.9,80.4z"/>
	<path class="st0" d="M19.2,67.6c0,0.5-0.1,1.1-0.7,1.1c-1.2-0.1-1.8-1-2-2.1c-0.1-0.7,0.4-1.1,1.1-1C18.7,65.8,18.9,66.9,19.2,67.6
		z"/>
	<path class="st0" d="M25,90.4c0,0.5,0,0.9,0,1.4c-0.7-0.2-1.4-0.5-2.1-0.7c0-0.5,0-0.9,0-1.4C23.5,89.9,24.8,88.5,25,90.4z"/>
	<path class="st0" d="M31.4,83.2c0.9,0.1,1.7,0.2,1.8,1.3c0,0.2-0.2,0.5-0.3,0.5c-0.9,0.2-1.2-0.5-1.6-1.1
		C31.4,83.7,31.4,83.5,31.4,83.2z"/>
	<path class="st1" d="M35.2,88.4c0.1-0.2,0.1-0.5,0.3-0.6c0.1-0.1,0.4,0.1,0.6,0.2c-0.1,0.2-0.1,0.5-0.3,0.6
		C35.6,88.7,35.4,88.5,35.2,88.4z"/>
	<path class="st1" d="M31.4,83.2c0,0.2,0,0.5,0,0.7c-0.5-0.1-1.3-0.1-1-0.9C30.6,82.5,31.1,82.8,31.4,83.2z"/>
	<path class="st0" d="M37.3,79.2c0.1-0.2,0.1-0.5,0.3-0.6c0.1-0.1,0.4,0.1,0.6,0.2c-0.1,0.2-0.1,0.5-0.3,0.6
		C37.8,79.5,37.5,79.3,37.3,79.2z"/>
	<path class="st0" d="M41.5,78.7c-0.2-0.1-0.5-0.1-0.6-0.3c-0.1-0.1,0.1-0.4,0.2-0.6c0.2,0.1,0.5,0.1,0.6,0.3
		C41.8,78.3,41.6,78.5,41.5,78.7z"/>
	<path class="st0" d="M28.2,74.5c-0.1,0.2-0.2,0.4-0.3,0.6c-0.2-0.1-0.5-0.1-0.6-0.3c-0.1-0.1,0.1-0.4,0.2-0.6
		C27.8,74.3,28,74.4,28.2,74.5z"/>
	<path class="st1" d="M26.9,69.3c0.2,0.1,0.5,0.1,0.6,0.3c0.1,0.1-0.1,0.4-0.2,0.6c-0.2-0.1-0.5-0.1-0.6-0.3
		C26.6,69.7,26.8,69.5,26.9,69.3z"/>
</g>
</svg>
